<svg width="380" height="380" viewBox="0 0 380 380" fill="none" xmlns="http://www.w3.org/2000/svg">
<rect width="380" height="380" rx="190" fill="white"/>
<path d="M160.68 215.56C163.4 213.4 164.64 212.4 164.4 212.56C172.24 206.08 178.4 200.76 182.88 196.6C187.44 192.44 191.28 188.08 194.4 183.52C197.52 178.96 199.08 174.52 199.08 170.2C199.08 166.92 198.32 164.36 196.8 162.52C195.28 160.68 193 159.76 189.96 159.76C186.92 159.76 184.52 160.92 182.76 163.24C181.08 165.48 180.24 168.68 180.24 172.84H160.44C160.6 166.04 162.04 160.36 164.76 155.8C167.56 151.24 171.2 147.88 175.68 145.72C180.24 143.56 185.28 142.48 190.8 142.48C200.32 142.48 207.48 144.92 212.28 149.8C217.16 154.68 219.6 161.04 219.6 168.88C219.6 177.44 216.68 185.4 210.84 192.76C205 200.04 197.56 207.16 188.52 214.12H220.92V230.8H160.68V215.56Z" fill="black"/>
</svg>
