<svg width="380" height="380" viewBox="0 0 380 380" fill="none" xmlns="http://www.w3.org/2000/svg">
<rect width="380" height="380" rx="190" fill="white"/>
<path d="M160.12 169.12C160.44 160.56 163.24 153.96 168.52 149.32C173.8 144.68 180.96 142.36 190 142.36C196 142.36 201.12 143.4 205.36 145.48C209.68 147.56 212.92 150.4 215.08 154C217.32 157.6 218.44 161.64 218.44 166.12C218.44 171.4 217.12 175.72 214.48 179.08C211.84 182.36 208.76 184.6 205.24 185.8V186.28C209.8 187.8 213.4 190.32 216.04 193.84C218.68 197.36 220 201.88 220 207.4C220 212.36 218.84 216.76 216.52 220.6C214.28 224.36 210.96 227.32 206.56 229.48C202.24 231.64 197.08 232.72 191.08 232.72C181.48 232.72 173.8 230.36 168.04 225.64C162.36 220.92 159.36 213.8 159.04 204.28H178.96C179.04 207.8 180.04 210.6 181.96 212.68C183.88 214.68 186.68 215.68 190.36 215.68C193.48 215.68 195.88 214.8 197.56 213.04C199.32 211.2 200.2 208.8 200.2 205.84C200.2 202 198.96 199.24 196.48 197.56C194.08 195.8 190.2 194.92 184.84 194.92H181V178.24H184.84C188.92 178.24 192.2 177.56 194.68 176.2C197.24 174.76 198.52 172.24 198.52 168.64C198.52 165.76 197.72 163.52 196.12 161.92C194.52 160.32 192.32 159.52 189.52 159.52C186.48 159.52 184.2 160.44 182.68 162.28C181.24 164.12 180.4 166.4 180.16 169.12H160.12Z" fill="black"/>
</svg>
