<svg width="89" height="30" viewBox="0 0 89 30" fill="none" xmlns="http://www.w3.org/2000/svg">
<path d="M88.9722 22.9283V28.162H72.0349V1.74455H77.9799V22.9283H88.9722ZM72.0349 1.7757H77.9799H72.0349ZM10.6952 28.1931C16.7951 28.1931 21.9351 23.9875 23.3904 18.3178L38.2531 30L53.0849 18.3178V28.1931H70.0222V22.9595H59.0609V1.7757H53.1159V11.6511L38.8724 22.8349L35.6831 20.3427L42.4952 14.9844L49.9266 9.15887L45.6845 5.82555L31.4411 17.0093L28.2518 14.5171L42.4952 3.33334L38.2531 0L23.3904 11.6822C21.9351 5.98131 16.7951 1.80686 10.6952 1.80686H0.0435791V28.2243H10.6952V28.1931ZM6.01963 22.9283V7.00934H10.6952C14.6586 7.00934 17.8479 10.5607 17.8479 14.9533C17.8479 19.3458 14.6586 22.9283 10.6952 22.9283H6.01963Z" fill="white"/>
</svg>
