<svg width="331" height="64" viewBox="0 0 331 64" fill="none" xmlns="http://www.w3.org/2000/svg">
<path d="M69.7833 5.50975C64.2735 2.96679 58.7638 1.27148 52.8302 0C51.9825 1.27148 51.1349 2.96679 50.711 4.6621C44.3536 3.81444 37.9962 3.81444 31.6388 4.6621C31.215 3.39061 30.3673 1.27148 29.5197 0C23.5861 0.847655 17.6525 2.96679 12.5666 5.50975C1.97087 21.6152 -0.995921 37.7206 0.275561 53.4023C7.48063 58.912 14.2619 61.8788 21.0431 63.998C22.7384 61.8788 24.4337 59.3358 25.7052 56.7929C23.1622 55.9452 21.0431 54.6737 18.5001 53.4023C18.924 52.9784 19.7716 52.5546 20.1955 52.1308C33.7579 58.4882 48.5919 58.4882 62.1544 52.1308C62.5782 52.5546 63.4259 52.9784 63.8497 53.4023C61.7306 54.6737 59.1876 55.9452 56.6446 56.7929C57.9161 59.3358 59.6114 61.8788 61.3067 63.998C68.088 61.8788 74.8692 58.4882 82.0743 53.4023C83.7696 35.1777 79.1075 19.4961 69.7833 5.50975ZM27.4005 43.6542C23.1622 43.6542 19.7716 39.8398 19.7716 35.1777C19.7716 30.5156 23.1622 26.7011 27.4005 26.7011C31.6388 26.7011 35.0294 30.5156 35.0294 35.1777C34.6056 39.8398 31.215 43.6542 27.4005 43.6542ZM54.5255 43.6542C50.2872 43.6542 46.8966 39.8398 46.8966 35.1777C46.8966 30.5156 50.2872 26.7011 54.5255 26.7011C58.7638 26.7011 62.1544 30.5156 62.1544 35.1777C62.1544 39.8398 58.7638 43.6542 54.5255 43.6542Z" fill="white"/>
<path d="M110.471 16.5293H128.271C132.51 16.5293 136.324 17.377 139.291 18.6484C142.258 19.9199 144.377 22.0391 146.072 24.1582C147.344 26.7012 148.191 29.2441 148.191 32.6347C148.191 35.6015 147.344 38.5683 146.072 41.1113C144.377 43.6543 142.258 45.7734 138.867 47.0449C135.477 48.3164 131.662 49.164 127 49.164H110.471V16.5293V16.5293ZM127 40.6875C129.967 40.6875 132.086 39.8398 133.781 38.5683C135.477 37.2968 135.9 35.1777 135.9 32.6347C135.9 30.0918 135.053 28.3965 133.781 27.125C132.51 25.8535 130.391 25.0058 127.424 25.0058H121.914V41.1113H127V40.6875Z" fill="white"/>
<path d="M174.469 48.7402C171.926 47.8925 169.807 47.0449 167.688 45.7734V38.1445C169.383 39.416 171.078 40.2637 173.621 41.1113C176.164 41.959 178.707 42.3828 180.826 42.3828C182.098 42.3828 182.945 42.3828 183.369 41.9589C183.793 41.5351 184.217 41.1113 184.217 41.1113C184.217 40.6875 184.217 40.2636 183.793 39.8398C183.369 39.416 182.945 39.416 182.098 38.9922L176.588 37.7207C173.621 36.873 171.078 36.0254 169.807 34.7539C168.959 33.0586 168.111 31.3633 168.111 29.2441C168.111 27.5488 168.535 25.8535 169.807 24.582C171.078 23.3105 172.773 22.0391 174.893 21.6152C177.012 20.7676 179.555 20.3438 182.521 20.3438C185.064 20.3438 187.607 20.7676 189.727 21.1914C191.846 21.6152 193.541 22.4629 194.812 23.3105V30.5156C193.541 29.668 191.846 28.8203 189.727 28.3965C188.031 27.9727 185.912 27.5488 183.793 27.5488C180.826 27.5488 179.555 27.9726 179.555 29.2441C179.555 29.6679 179.978 30.0918 180.402 30.0918C180.826 30.5156 181.674 30.5156 182.945 30.9394L187.607 31.7871C190.574 32.2109 192.693 33.0586 194.389 34.7539C195.66 36.0254 196.508 38.1445 196.508 40.6875C196.508 43.6543 195.236 45.7734 192.693 47.4687C190.15 49.164 186.76 50.0117 182.521 50.0117C179.555 50.0117 177.012 49.5879 174.469 48.7402Z" fill="white"/>
<path d="M206.68 47.8925C204.137 46.621 202.018 44.9257 200.746 42.8066C199.475 40.6874 198.627 38.1445 198.627 35.1777C198.627 32.2109 199.475 30.0917 200.746 27.5488C202.018 25.0058 204.137 23.7343 206.68 22.4628C209.223 21.1914 212.613 20.7675 216.004 20.7675C220.666 20.7675 224.48 21.6152 227.447 23.7343V32.2109C226.6 31.3632 225.328 30.9394 223.633 30.5156C221.937 30.0917 220.666 29.6679 218.971 29.6679C216.004 29.6679 213.885 30.0917 212.189 31.3632C210.494 32.2109 209.646 33.9062 209.646 35.6015C209.646 37.2968 210.494 38.5683 211.766 39.8398C213.461 41.1112 215.58 41.5351 218.547 41.5351C220.242 41.5351 221.514 41.1112 223.209 40.6874C224.48 40.2636 225.752 39.8398 227.023 38.9921V47.0448C223.633 49.164 219.818 50.0116 215.58 50.0116C212.613 50.0116 209.223 49.164 206.68 47.8925Z" fill="white"/>
<path d="M238.891 47.8925C236.348 46.6211 234.229 44.9258 232.957 42.3828C231.686 40.2636 230.838 37.7207 230.838 34.7539C230.838 31.7871 231.686 29.6679 232.957 27.125C234.229 25.0058 236.348 23.3105 238.891 22.0391C241.434 20.7676 244.4 20.3438 248.215 20.3438C252.029 20.3438 254.996 20.7676 257.539 22.0391C260.082 23.3105 262.201 25.0058 263.473 27.125C264.744 29.2441 265.592 31.7871 265.592 34.7539C265.592 37.7207 264.744 40.2636 263.473 42.3828C262.201 44.5019 260.082 46.6211 257.539 47.8925C254.996 49.164 252.029 50.0117 248.215 50.0117C244.824 49.5879 241.857 49.164 238.891 47.8925ZM252.877 39.416C254.148 38.1445 254.572 36.873 254.572 34.7539C254.572 32.6348 254.148 31.3633 252.877 30.5156C251.605 29.2441 250.334 28.8203 248.215 28.8203C246.096 28.8203 244.824 29.2441 243.553 30.5156C242.281 31.7871 241.857 33.0586 241.857 34.7539C241.857 36.4492 242.281 38.1445 243.553 39.416C244.824 40.6875 246.096 41.1113 248.215 41.1113C250.334 41.1113 251.605 40.6875 252.877 39.416Z" fill="white"/>
<path d="M293.141 22.039V32.2109C291.869 31.3632 290.598 30.9394 288.478 30.9394C285.936 30.9394 284.24 31.787 282.969 33.0585C281.697 34.7538 280.85 36.873 280.85 39.8398V48.3163H269.83V21.1914H280.85V29.6679C281.273 26.7011 282.545 24.1581 283.816 22.8867C285.088 21.1913 286.783 20.7675 288.902 20.7675C290.598 21.1913 291.869 21.6152 293.141 22.039Z" fill="white"/>
<path d="M330.014 15.2578V48.7402H318.994V42.8066C318.146 44.9257 316.451 47.0449 314.756 47.8925C312.637 49.164 310.518 49.5879 307.551 49.5879C305.008 49.5879 302.889 49.164 300.77 47.8925C299.074 46.6211 297.379 44.9257 296.531 42.8066C295.684 40.6875 294.836 38.1445 294.836 35.6015C294.836 32.6347 295.26 30.0918 296.531 27.9726C297.803 25.8535 299.074 24.1582 301.193 22.8867C303.312 21.6152 305.432 21.1914 307.975 21.1914C313.484 21.1914 316.875 23.7344 318.57 28.3965V16.1055H330.014V15.2578ZM317.299 39.416C318.57 38.1445 318.994 36.873 318.994 35.1777C318.994 33.4824 318.57 32.2109 317.299 30.9394C316.027 29.668 314.756 29.2441 312.637 29.2441C310.941 29.2441 309.246 29.668 307.975 30.9394C306.703 32.2109 306.279 33.4824 306.279 35.1777C306.279 36.873 306.703 38.5683 307.975 39.416C309.246 40.6875 310.518 41.1113 312.637 41.1113C314.756 41.1113 316.027 40.6875 317.299 39.416Z" fill="white"/>
<path d="M157.516 24.582C160.482 24.582 163.025 22.4629 163.025 19.4961C163.025 16.5293 160.482 14.4102 157.516 14.4102C154.549 14.4102 152.006 16.5293 152.006 19.4961C152.006 22.4629 154.549 24.582 157.516 24.582Z" fill="white"/>
<path d="M152.006 27.9726C155.396 29.6679 159.635 29.6679 163.025 27.9726V48.7401H152.006V27.9726Z" fill="white"/>
</svg>
