<svg width="150" height="30" viewBox="0 0 150 30" fill="none" xmlns="http://www.w3.org/2000/svg">
<path d="M22.2326 16.4297L30.2523 11.3107L22.2326 6.23444L30.2096 1.1155L38.2293 6.23444L30.2096 11.3534L38.2293 16.4723L30.2096 21.5912L22.2326 16.4297ZM14.1703 23.2122L22.1899 18.0933L30.2096 23.2122L22.1899 28.3312L14.1703 23.2122ZM22.2326 6.23444L14.2129 11.3534L22.2326 16.4723L14.2129 21.5912L6.19324 16.4297L14.2129 11.3107L6.19324 6.23444L14.2129 1.1155L22.2326 6.23444Z" fill="white"/>
<path d="M135.148 16.0884L130.327 9.47641H134.465L137.238 13.6143L140.053 9.47641H144.148L139.243 16.0457L144.404 23.2122H140.352L137.195 18.6479L134.124 23.2122H129.901L135.148 16.0884H135.148ZM126.829 16.6003V16.259C126.829 13.6995 125.55 12.1639 123.502 12.1639C121.497 12.1639 120.175 13.5716 120.175 16.259V16.6003C120.175 19.0744 121.455 20.4821 123.502 20.4821C125.55 20.4395 126.829 19.0744 126.829 16.6003V16.6003ZM116.549 16.6429V16.259C116.549 11.6519 119.492 9.13518 123.502 9.13518C127.597 9.13518 130.455 11.6519 130.455 16.259V16.6429C130.455 21.1646 127.64 23.5961 123.502 23.5961C119.066 23.5535 116.549 21.1646 116.549 16.6429V16.6429ZM111.345 16.4296V16.0884C111.345 13.5716 109.98 12.1639 108.06 12.1639C106.098 12.1639 104.733 13.7422 104.733 16.131V16.4296C104.733 18.9891 106.055 20.4821 108.017 20.4821C110.108 20.4821 111.345 19.1598 111.345 16.4296V16.4296ZM104.69 20.6954L104.391 23.2122H101.32V4.86938H104.818V11.9079C105.586 10.1163 107.122 9.13518 109.297 9.13518C112.582 9.17785 115.013 11.4387 115.013 16.003V16.4296C115.013 20.994 112.71 23.5961 109.212 23.5961C106.908 23.5535 105.415 22.487 104.69 20.6954V20.6954ZM95.7745 16.6003V16.3016C95.7745 13.5716 94.3669 12.2065 92.4899 12.2065C90.485 12.2065 89.1627 13.7422 89.1627 16.3016V16.5577C89.1627 18.9891 90.4424 20.5248 92.4473 20.5248C94.4948 20.4821 95.7745 19.1598 95.7745 16.6003ZM85.75 9.47641H88.7361L89.0773 12.0785C89.8025 10.3296 91.3382 9.13518 93.5991 9.13518C97.097 9.13518 99.4005 11.6519 99.4005 16.3016V16.6855C99.4005 21.2073 96.841 23.5961 93.5991 23.5961C91.4235 23.5961 89.9305 22.615 89.2053 21.0367V27.9899H85.7073L85.75 9.47641ZM80.2045 16.6003V16.259C80.2045 13.6995 78.9248 12.1639 76.8772 12.1639C74.8723 12.1639 73.5499 13.5716 73.5499 16.259V16.6003C73.5499 19.0744 74.8296 20.4821 76.8772 20.4821C78.9248 20.4395 80.2045 19.0744 80.2045 16.6003V16.6003ZM69.9666 16.6429V16.259C69.9666 11.6519 72.91 9.13518 76.9199 9.13518C81.015 9.13518 83.8731 11.6519 83.8731 16.259V16.6429C83.8731 21.1646 81.1003 23.5961 76.9199 23.5961C72.4835 23.5535 69.9666 21.1646 69.9666 16.6429V16.6429ZM60.454 9.47641H63.3547L63.8239 12.6758C64.3785 10.5002 65.7862 9.34846 68.3457 9.34846H69.2415V13.017H67.7485C64.8051 13.017 64.0799 14.0408 64.0799 16.9415V23.2549H60.4966V9.47641H60.454ZM48.1259 9.30579V20.0982H50.8986C53.2448 20.0982 54.8232 18.5625 54.8232 15.1499V14.2541C54.8232 10.8415 53.1595 9.30579 50.7706 9.30579H48.1259ZM44.5 6.23444H50.9839C55.1217 6.23444 58.5344 8.62326 58.5344 14.0834V15.2353C58.5344 20.7381 55.3351 23.2122 51.1119 23.2122H44.5V6.23444Z" fill="white"/>
</svg>
