<svg width="132" height="64" viewBox="0 0 132 64" fill="none" xmlns="http://www.w3.org/2000/svg">
<path d="M2.76341 4.96727C2.76341 4.59879 2.91857 4.41454 3.22887 4.41454H17.658C17.9489 4.41454 18.0943 4.57939 18.0943 4.90909L18.0652 7.52727C18.0652 7.93454 17.8713 8.13818 17.4834 8.13818H8.40705C8.03857 8.13818 7.85432 8.29333 7.85432 8.60363V13.1127C7.85432 13.423 7.99978 13.5782 8.29069 13.5782H14.6034C14.9137 13.5782 15.0689 13.7333 15.0689 14.0436V16.8073C15.0689 17.0788 14.9234 17.2145 14.6325 17.2145H8.2616C7.99008 17.2145 7.85432 17.3406 7.85432 17.5927V25.3309C7.85432 25.777 7.6022 26 7.09796 26H3.40341C3.15129 26 2.97675 25.9515 2.87978 25.8545C2.8022 25.7576 2.76341 25.6024 2.76341 25.3891V4.96727ZM25.1593 25.3018C25.1593 25.5539 25.1011 25.7382 24.9848 25.8545C24.8684 25.9515 24.6648 26 24.3739 26H21.3193C21.0672 26 20.8927 25.9515 20.7957 25.8545C20.7181 25.7576 20.6793 25.6024 20.6793 25.3891V11.1345C20.6793 10.7661 20.8345 10.5818 21.1448 10.5818H24.723C25.0139 10.5818 25.1593 10.7467 25.1593 11.0764V25.3018ZM25.2175 7.99273C25.2175 8.47757 24.9557 8.72 24.4321 8.72H21.2902C21.0381 8.72 20.8636 8.66182 20.7666 8.54545C20.689 8.42909 20.6502 8.26424 20.6502 8.05091V4.99636C20.6502 4.60848 20.8151 4.41454 21.1448 4.41454H24.7521C25.0624 4.41454 25.2175 4.59879 25.2175 4.96727V7.99273ZM28.9891 26C28.5818 26 28.3782 25.8061 28.3782 25.4182V11.1345C28.3782 10.7661 28.5333 10.5818 28.8436 10.5818H32.3636C32.6546 10.5818 32.8 10.7467 32.8 11.0764V12.5018C32.8 12.6182 32.8291 12.6958 32.8873 12.7345C32.9455 12.7733 33.0327 12.7345 33.1491 12.6182C33.6533 12.1527 34.1576 11.7455 34.6618 11.3964C35.1661 11.0473 35.6994 10.7758 36.2618 10.5818C36.8243 10.3879 37.4255 10.2909 38.0655 10.2909C39.4812 10.2909 40.5964 10.7079 41.4109 11.5418C42.2449 12.3758 42.6618 13.4909 42.6618 14.8873V25.3018C42.6618 25.7673 42.4291 26 41.9636 26H38.7346C38.5406 26 38.3952 25.9612 38.2982 25.8836C38.2206 25.7867 38.1818 25.6315 38.1818 25.4182V15.5855C38.1818 14.9261 37.9976 14.4218 37.6291 14.0727C37.28 13.7042 36.7564 13.52 36.0582 13.52C35.6509 13.52 35.2727 13.5879 34.9236 13.7236C34.5746 13.8594 34.2352 14.063 33.9055 14.3345C33.5758 14.5867 33.2267 14.9164 32.8582 15.3236V25.3309C32.8582 25.777 32.6061 26 32.1018 26H28.9891ZM53.9986 24.5164C53.3974 25.0594 52.7186 25.4958 51.9623 25.8255C51.2253 26.1358 50.372 26.2909 49.4023 26.2909C47.9283 26.2909 46.7647 25.8933 45.9114 25.0982C45.0774 24.303 44.6605 23.2848 44.6605 22.0436C44.6605 20.9576 44.9999 20.0073 45.6786 19.1927C46.3574 18.3782 47.3271 17.7479 48.5877 17.3018C49.8483 16.8364 51.3514 16.5842 53.0968 16.5455L54.115 16.4582C54.2314 16.4582 54.338 16.4291 54.435 16.3709C54.532 16.3127 54.5805 16.2061 54.5805 16.0509V15.44C54.5805 14.703 54.3671 14.1309 53.9405 13.7236C53.5138 13.297 52.9029 13.0836 52.1077 13.0836C51.5259 13.0836 50.9635 13.2194 50.4205 13.4909C49.8968 13.743 49.4508 14.1891 49.0823 14.8291C49.0241 14.9648 48.9562 15.0521 48.8786 15.0909C48.8011 15.1297 48.6556 15.1297 48.4423 15.0909L45.5332 14.4218C45.4168 14.383 45.3296 14.3248 45.2714 14.2473C45.2326 14.1503 45.2714 13.9564 45.3877 13.6655C45.8726 12.5212 46.7065 11.6776 47.8896 11.1345C49.092 10.5721 50.5659 10.2909 52.3114 10.2909C53.9211 10.2909 55.2011 10.4945 56.1514 10.9018C57.1017 11.3091 57.7902 11.8812 58.2168 12.6182C58.6435 13.3358 58.8568 14.1794 58.8568 15.1491V25.36C58.8568 25.5927 58.818 25.7576 58.7405 25.8545C58.6629 25.9515 58.5174 26 58.3041 26H55.3077C55.0944 26 54.9393 25.9224 54.8423 25.7673C54.7647 25.6121 54.7162 25.4182 54.6968 25.1855L54.6386 24.5455C54.5999 24.1964 54.3865 24.1867 53.9986 24.5164ZM54.5805 19.1345C54.5805 18.8048 54.435 18.64 54.1441 18.64L53.3296 18.6982C52.8253 18.7176 52.3211 18.7952 51.8168 18.9309C51.3126 19.0473 50.8568 19.2218 50.4496 19.4545C50.0423 19.6679 49.7029 19.9491 49.4314 20.2982C49.1793 20.6279 49.0532 21.0158 49.0532 21.4618C49.0532 22.0436 49.2568 22.5091 49.6641 22.8582C50.0714 23.1879 50.6338 23.3527 51.3514 23.3527C51.8362 23.3527 52.2629 23.2752 52.6314 23.12C53.0193 22.9648 53.3489 22.7806 53.6205 22.5673C53.9114 22.3152 54.1441 22.063 54.3186 21.8109C54.4932 21.5588 54.5805 21.297 54.5805 21.0255V19.1345ZM62.7107 26C62.3034 26 62.0998 25.8061 62.0998 25.4182V11.1345C62.0998 10.7661 62.2549 10.5818 62.5652 10.5818H66.0852C66.3761 10.5818 66.5216 10.7467 66.5216 11.0764V12.5018C66.5216 12.6182 66.5507 12.6958 66.6089 12.7345C66.6671 12.7733 66.7543 12.7345 66.8707 12.6182C67.3749 12.1527 67.8792 11.7455 68.3834 11.3964C68.8877 11.0473 69.421 10.7758 69.9834 10.5818C70.5458 10.3879 71.1471 10.2909 71.7871 10.2909C73.2028 10.2909 74.318 10.7079 75.1325 11.5418C75.9664 12.3758 76.3834 13.4909 76.3834 14.8873V25.3018C76.3834 25.7673 76.1507 26 75.6852 26H72.4561C72.2622 26 72.1167 25.9612 72.0198 25.8836C71.9422 25.7867 71.9034 25.6315 71.9034 25.4182V15.5855C71.9034 14.9261 71.7192 14.4218 71.3507 14.0727C71.0016 13.7042 70.478 13.52 69.7798 13.52C69.3725 13.52 68.9943 13.5879 68.6452 13.7236C68.2961 13.8594 67.9567 14.063 67.6271 14.3345C67.2974 14.5867 66.9483 14.9164 66.5798 15.3236V25.3309C66.5798 25.777 66.3277 26 65.8234 26H62.7107ZM79.1093 26C78.8766 26 78.7215 25.9612 78.6439 25.8836C78.5663 25.8061 78.5275 25.6509 78.5275 25.4182V24.2836C78.5275 24.0509 78.5566 23.8667 78.6148 23.7309C78.673 23.5952 78.8087 23.3721 79.0221 23.0618L86.1202 13.8109C86.3142 13.5394 86.2366 13.4036 85.8875 13.4036H79.6911C79.4778 13.4036 79.3324 13.3648 79.2548 13.2873C79.1966 13.2097 79.1675 13.0739 79.1675 12.88V11.0473C79.1675 10.737 79.3033 10.5818 79.5748 10.5818H91.6184C91.9093 10.5818 92.0548 10.7273 92.0548 11.0182V12.3273C92.0548 12.5018 92.016 12.6667 91.9384 12.8218C91.8802 12.9576 91.7736 13.1321 91.6184 13.3455L84.433 22.6836C84.2002 22.9939 84.2584 23.1491 84.6075 23.1491H91.5893C91.9384 23.1491 92.113 23.2945 92.113 23.5855V25.4764C92.113 25.6315 92.0645 25.7576 91.9675 25.8545C91.8899 25.9515 91.7445 26 91.5311 26H79.1093ZM102.805 24.5164C102.204 25.0594 101.525 25.4958 100.769 25.8255C100.032 26.1358 99.1788 26.2909 98.2091 26.2909C96.7352 26.2909 95.5715 25.8933 94.7182 25.0982C93.8842 24.303 93.4673 23.2848 93.4673 22.0436C93.4673 20.9576 93.8067 20.0073 94.4855 19.1927C95.1642 18.3782 96.1339 17.7479 97.3946 17.3018C98.6552 16.8364 100.158 16.5842 101.904 16.5455L102.922 16.4582C103.038 16.4582 103.145 16.4291 103.242 16.3709C103.339 16.3127 103.387 16.2061 103.387 16.0509V15.44C103.387 14.703 103.174 14.1309 102.747 13.7236C102.321 13.297 101.71 13.0836 100.915 13.0836C100.333 13.0836 99.7703 13.2194 99.2273 13.4909C98.7036 13.743 98.2576 14.1891 97.8891 14.8291C97.8309 14.9648 97.763 15.0521 97.6855 15.0909C97.6079 15.1297 97.4624 15.1297 97.2491 15.0909L94.34 14.4218C94.2236 14.383 94.1364 14.3248 94.0782 14.2473C94.0394 14.1503 94.0782 13.9564 94.1946 13.6655C94.6794 12.5212 95.5133 11.6776 96.6964 11.1345C97.8988 10.5721 99.3727 10.2909 101.118 10.2909C102.728 10.2909 104.008 10.4945 104.958 10.9018C105.908 11.3091 106.597 11.8812 107.024 12.6182C107.45 13.3358 107.664 14.1794 107.664 15.1491V25.36C107.664 25.5927 107.625 25.7576 107.547 25.8545C107.47 25.9515 107.324 26 107.111 26H104.115C103.901 26 103.746 25.9224 103.649 25.7673C103.572 25.6121 103.523 25.4182 103.504 25.1855L103.445 24.5455C103.407 24.1964 103.193 24.1867 102.805 24.5164ZM103.387 19.1345C103.387 18.8048 103.242 18.64 102.951 18.64L102.136 18.6982C101.632 18.7176 101.128 18.7952 100.624 18.9309C100.119 19.0473 99.6636 19.2218 99.2564 19.4545C98.8491 19.6679 98.5097 19.9491 98.2382 20.2982C97.9861 20.6279 97.86 21.0158 97.86 21.4618C97.86 22.0436 98.0636 22.5091 98.4709 22.8582C98.8782 23.1879 99.4406 23.3527 100.158 23.3527C100.643 23.3527 101.07 23.2752 101.438 23.12C101.826 22.9648 102.156 22.7806 102.427 22.5673C102.718 22.3152 102.951 22.063 103.125 21.8109C103.3 21.5588 103.387 21.297 103.387 21.0255V19.1345ZM120.419 14.5964C120.09 14.1697 119.644 13.8012 119.081 13.4909C118.519 13.1806 117.83 13.0255 117.016 13.0255C116.298 13.0255 115.687 13.1709 115.183 13.4618C114.698 13.7333 114.456 14.1115 114.456 14.5964C114.456 14.8485 114.553 15.0909 114.747 15.3236C114.941 15.537 115.387 15.7309 116.085 15.9055L119.43 16.72C121.04 17.0885 122.184 17.6897 122.863 18.5236C123.542 19.3576 123.881 20.2885 123.881 21.3164C123.881 22.3636 123.581 23.2558 122.979 23.9927C122.398 24.7297 121.583 25.3018 120.536 25.7091C119.488 26.097 118.286 26.2909 116.928 26.2909C115.202 26.2909 113.738 25.9903 112.536 25.3891C111.333 24.7685 110.49 24.0024 110.005 23.0909C109.927 22.9552 109.888 22.8291 109.888 22.7127C109.888 22.577 109.947 22.48 110.063 22.4218L112.041 21.4036C112.235 21.3067 112.381 21.2679 112.478 21.2873C112.594 21.2873 112.691 21.3358 112.768 21.4327C113.021 21.7818 113.321 22.1115 113.67 22.4218C114.019 22.7321 114.456 22.9842 114.979 23.1782C115.503 23.3527 116.162 23.4303 116.958 23.4109C117.501 23.4109 117.985 23.3527 118.412 23.2364C118.858 23.1006 119.207 22.9164 119.459 22.6836C119.711 22.4315 119.838 22.1406 119.838 21.8109C119.838 21.4812 119.702 21.2 119.43 20.9673C119.159 20.7152 118.654 20.5018 117.918 20.3273L114.921 19.6873C113.467 19.3576 112.361 18.8436 111.605 18.1455C110.868 17.4279 110.499 16.497 110.499 15.3527C110.499 14.3636 110.751 13.4909 111.256 12.7345C111.779 11.9782 112.536 11.3867 113.525 10.96C114.514 10.5139 115.697 10.2909 117.074 10.2909C118.548 10.2909 119.818 10.5624 120.885 11.1055C121.971 11.6485 122.747 12.2982 123.212 13.0545C123.29 13.1709 123.348 13.297 123.387 13.4327C123.425 13.5491 123.358 13.6558 123.183 13.7527L121.088 14.7709C120.953 14.8291 120.827 14.8485 120.71 14.8291C120.613 14.7903 120.516 14.7127 120.419 14.5964ZM10.618 56.5164C10.0167 57.0594 9.33796 57.4958 8.5816 57.8255C7.84463 58.1358 6.99129 58.2909 6.0216 58.2909C4.54766 58.2909 3.38402 57.8933 2.53069 57.0982C1.69675 56.303 1.27978 55.2848 1.27978 54.0436C1.27978 52.9576 1.61917 52.0073 2.29796 51.1927C2.97675 50.3782 3.94644 49.7479 5.20705 49.3018C6.46766 48.8364 7.97069 48.5842 9.71614 48.5455L10.7343 48.4582C10.8507 48.4582 10.9574 48.4291 11.0543 48.3709C11.1513 48.3127 11.1998 48.2061 11.1998 48.0509V47.44C11.1998 46.703 10.9864 46.1309 10.5598 45.7236C10.1331 45.297 9.5222 45.0836 8.72705 45.0836C8.14523 45.0836 7.58281 45.2194 7.03978 45.4909C6.51614 45.743 6.07008 46.1891 5.7016 46.8291C5.64341 46.9648 5.57554 47.0521 5.49796 47.0909C5.42038 47.1297 5.27493 47.1297 5.0616 47.0909L2.15251 46.4218C2.03614 46.383 1.94887 46.3248 1.89069 46.2473C1.8519 46.1503 1.89069 45.9564 2.00705 45.6655C2.4919 44.5212 3.32584 43.6776 4.50887 43.1345C5.71129 42.5721 7.18523 42.2909 8.93069 42.2909C10.5404 42.2909 11.8204 42.4945 12.7707 42.9018C13.721 43.3091 14.4095 43.8812 14.8361 44.6182C15.2628 45.3358 15.4761 46.1794 15.4761 47.1491V57.36C15.4761 57.5927 15.4374 57.7576 15.3598 57.8545C15.2822 57.9515 15.1367 58 14.9234 58H11.9271C11.7137 58 11.5586 57.9224 11.4616 57.7673C11.384 57.6121 11.3355 57.4182 11.3161 57.1855L11.258 56.5455C11.2192 56.1964 11.0058 56.1867 10.618 56.5164ZM11.1998 51.1345C11.1998 50.8048 11.0543 50.64 10.7634 50.64L9.94887 50.6982C9.44463 50.7176 8.94038 50.7952 8.43614 50.9309C7.9319 51.0473 7.47614 51.2218 7.06887 51.4545C6.6616 51.6679 6.3222 51.9491 6.05069 52.2982C5.79857 52.6279 5.67251 53.0158 5.67251 53.4618C5.67251 54.0436 5.87614 54.5091 6.28342 54.8582C6.69069 55.1879 7.25311 55.3527 7.97069 55.3527C8.45554 55.3527 8.8822 55.2752 9.25069 55.12C9.63857 54.9648 9.96826 54.7806 10.2398 54.5673C10.5307 54.3152 10.7634 54.063 10.938 53.8109C11.1125 53.5588 11.1998 53.297 11.1998 53.0255V51.1345ZM23.2282 57.3018C23.2282 57.5539 23.17 57.7382 23.0536 57.8545C22.9373 57.9515 22.7336 58 22.4427 58H19.3591C18.9324 58 18.7191 57.7964 18.7191 57.3891L18.8064 36.9673C18.8064 36.5988 18.9615 36.4145 19.2718 36.4145H22.7918C23.0827 36.4145 23.2282 36.5891 23.2282 36.9382V57.3018ZM27.4936 58C27.0864 58 26.8827 57.777 26.8827 57.3309V36.9673C26.8827 36.5988 27.0476 36.4145 27.3773 36.4145H33.3991C33.6124 36.4145 33.7676 36.4436 33.8646 36.5018C33.9615 36.56 34.0391 36.6764 34.0973 36.8509L38.49 49.04C38.5482 49.2145 38.6161 49.3018 38.6936 49.3018C38.7712 49.2824 38.8391 49.1952 38.8973 49.04L43.0864 37.0836C43.2027 36.6376 43.4161 36.4145 43.7264 36.4145H49.9809C50.2718 36.4145 50.4173 36.5891 50.4173 36.9382V57.3018C50.4173 57.7673 50.1749 58 49.69 58H45.9373C45.7046 58 45.5397 57.9515 45.4427 57.8545C45.3652 57.7576 45.3264 57.6121 45.3264 57.4182V42.9309C45.3264 42.7952 45.2876 42.737 45.21 42.7564C45.1518 42.7564 45.1033 42.8242 45.0646 42.96L39.9736 57.5345C39.8573 57.8448 39.6536 58 39.3627 58H36.9482C36.6185 58 36.4052 57.8448 36.3082 57.5345L31.2755 43.1636C31.2173 42.9891 31.1494 42.9115 31.0718 42.9309C31.0136 42.9503 30.9846 43.0376 30.9846 43.1927V57.4764C30.9846 57.6703 30.9458 57.8061 30.8682 57.8836C30.81 57.9612 30.6742 58 30.4609 58H27.4936ZM58.54 57.3018C58.54 57.5539 58.4818 57.7382 58.3655 57.8545C58.2491 57.9515 58.0455 58 57.7546 58H54.7C54.4479 58 54.2733 57.9515 54.1764 57.8545C54.0988 57.7576 54.06 57.6024 54.06 57.3891V43.1345C54.06 42.7661 54.2152 42.5818 54.5255 42.5818H58.1036C58.3946 42.5818 58.54 42.7467 58.54 43.0764V57.3018ZM58.5982 39.9927C58.5982 40.4776 58.3364 40.72 57.8127 40.72H54.6709C54.4188 40.72 54.2442 40.6618 54.1473 40.5455C54.0697 40.4291 54.0309 40.2642 54.0309 40.0509V36.9964C54.0309 36.6085 54.1958 36.4145 54.5255 36.4145H58.1327C58.443 36.4145 58.5982 36.5988 58.5982 36.9673V39.9927ZM62.3698 58C61.9625 58 61.7589 57.8061 61.7589 57.4182V43.1345C61.7589 42.7661 61.914 42.5818 62.2243 42.5818H65.7443C66.0352 42.5818 66.1807 42.7467 66.1807 43.0764V44.5018C66.1807 44.6182 66.2098 44.6958 66.268 44.7345C66.3261 44.7733 66.4134 44.7345 66.5298 44.6182C67.034 44.1527 67.5383 43.7455 68.0425 43.3964C68.5468 43.0473 69.0801 42.7758 69.6425 42.5818C70.2049 42.3879 70.8061 42.2909 71.4461 42.2909C72.8619 42.2909 73.9771 42.7079 74.7916 43.5418C75.6255 44.3758 76.0425 45.4909 76.0425 46.8873V57.3018C76.0425 57.7673 75.8098 58 75.3443 58H72.1152C71.9213 58 71.7758 57.9612 71.6789 57.8836C71.6013 57.7867 71.5625 57.6315 71.5625 57.4182V47.5855C71.5625 46.9261 71.3783 46.4218 71.0098 46.0727C70.6607 45.7042 70.1371 45.52 69.4389 45.52C69.0316 45.52 68.6534 45.5879 68.3043 45.7236C67.9552 45.8594 67.6158 46.063 67.2861 46.3345C66.9564 46.5867 66.6074 46.9164 66.2389 47.3236V57.3309C66.2389 57.777 65.9867 58 65.4825 58H62.3698ZM85.4593 55.0618C86.0605 55.0618 86.623 54.9067 87.1466 54.5964C87.6896 54.2667 88.1842 53.8497 88.6302 53.3455V43.2509C88.6302 42.8048 88.8824 42.5818 89.3866 42.5818H92.5284C92.9357 42.5818 93.1393 42.7855 93.1393 43.1927L93.0811 57.4764C93.0811 57.8255 92.926 58 92.6157 58H89.1539C88.863 58 88.7175 57.8352 88.7175 57.5055V56.08C88.7175 55.9636 88.6884 55.8958 88.6302 55.8764C88.5721 55.8376 88.4945 55.8667 88.3975 55.9636C87.583 56.7976 86.7684 57.3988 85.9539 57.7673C85.1587 58.1164 84.3054 58.2909 83.3939 58.2909C82.5405 58.2909 81.7745 58.1067 81.0957 57.7382C80.4363 57.3697 79.9127 56.8364 79.5248 56.1382C79.1369 55.4206 78.943 54.577 78.943 53.6073V43.28C78.943 42.8145 79.1757 42.5818 79.6411 42.5818H82.8702C83.2387 42.5818 83.423 42.7855 83.423 43.1927V52.9673C83.423 53.6073 83.5975 54.1212 83.9466 54.5091C84.3151 54.8776 84.8193 55.0618 85.4593 55.0618ZM102.792 45.6655C102.578 45.6655 102.472 45.7818 102.472 46.0145V53.0255C102.472 53.6848 102.627 54.16 102.937 54.4509C103.247 54.7224 103.742 54.8582 104.421 54.8582H105.992C106.127 54.8582 106.234 54.9067 106.312 55.0036C106.389 55.1006 106.428 55.217 106.428 55.3527L106.399 57.1273C106.399 57.4958 106.186 57.7285 105.759 57.8255C105.41 57.8642 105.032 57.903 104.624 57.9418C104.236 57.9612 103.839 57.9806 103.432 58C103.044 58 102.666 58 102.297 58C100.978 58 99.931 57.6897 99.1552 57.0691C98.3795 56.4291 97.9916 55.4885 97.9916 54.2473V46.1018C97.9916 45.8109 97.8655 45.6655 97.6134 45.6655H95.8389C95.4704 45.6655 95.2861 45.5006 95.2861 45.1709V43.0182C95.2861 42.7273 95.4607 42.5818 95.8098 42.5818H97.8171C97.9916 42.5818 98.0886 42.4752 98.108 42.2618L98.5152 37.84C98.5346 37.5103 98.6801 37.3455 98.9516 37.3455H102.123C102.433 37.3455 102.588 37.5297 102.588 37.8982V42.2618C102.588 42.4558 102.685 42.5527 102.879 42.5527H105.933C106.283 42.5527 106.457 42.7079 106.457 43.0182V45.1709C106.457 45.5006 106.263 45.6655 105.875 45.6655H102.792ZM115.476 58.2909C113.944 58.2909 112.587 57.9515 111.404 57.2727C110.24 56.5939 109.328 55.663 108.669 54.48C108.01 53.2776 107.68 51.9103 107.68 50.3782C107.68 48.7685 108.019 47.3624 108.698 46.16C109.377 44.9382 110.308 43.9879 111.491 43.3091C112.674 42.6303 114.012 42.2909 115.505 42.2909C117.076 42.2909 118.444 42.64 119.607 43.3382C120.771 44.017 121.673 44.9673 122.313 46.1891C122.972 47.3915 123.302 48.7782 123.302 50.3491C123.302 51.9006 122.972 53.2776 122.313 54.48C121.653 55.663 120.732 56.5939 119.549 57.2727C118.385 57.9515 117.028 58.2909 115.476 58.2909ZM115.505 55.3236C116.223 55.3236 116.824 55.1394 117.309 54.7709C117.794 54.383 118.153 53.8109 118.385 53.0545C118.638 52.2982 118.764 51.377 118.764 50.2909C118.764 49.1467 118.638 48.2061 118.385 47.4691C118.153 46.7127 117.794 46.1406 117.309 45.7527C116.824 45.3648 116.223 45.1709 115.505 45.1709C114.807 45.1709 114.206 45.3648 113.702 45.7527C113.217 46.1406 112.848 46.7127 112.596 47.4691C112.344 48.2061 112.218 49.1467 112.218 50.2909C112.218 51.3964 112.344 52.3273 112.596 53.0836C112.848 53.8206 113.217 54.383 113.702 54.7709C114.206 55.1394 114.807 55.3236 115.505 55.3236ZM130.244 57.3018C130.244 57.7673 129.972 58 129.429 58H125.997C125.57 58 125.357 57.7964 125.357 57.3891V53.6945C125.357 53.3455 125.512 53.1709 125.822 53.1709H129.808C130.098 53.1709 130.244 53.3358 130.244 53.6655V57.3018Z" fill="black"/>
</svg>
