<svg width="125" height="55" viewBox="0 0 125 55" fill="none" xmlns="http://www.w3.org/2000/svg">
<path d="M9.2288 9.90892V49.6465H3.8528V9.90892H9.2288ZM32.6589 9.90892L19.6669 45.2561H13.9773L26.9245 9.90892H32.6589ZM42.7861 9.90892V35.2209C42.7861 36.2663 42.9653 36.998 43.3237 37.4161C43.6821 37.8343 44.2794 38.0433 45.1157 38.0433C45.6234 38.0433 46.0416 38.0135 46.3701 37.9537C46.6986 37.8641 47.1168 37.7447 47.6245 37.5953L47.0869 41.6273C46.5792 41.926 45.937 42.15 45.1605 42.2993C44.4138 42.4785 43.6672 42.5681 42.9205 42.5681C40.7402 42.5681 39.1424 42.0455 38.1269 41.0001C37.1413 39.9249 36.6485 38.2225 36.6485 35.8929V9.90892H42.7861ZM61.4379 42.5681C59.0785 42.5681 57.0177 42.1052 55.2555 41.1793C53.5233 40.2535 52.1793 38.9244 51.2235 37.1921C50.2678 35.4599 49.7899 33.3692 49.7899 30.9201C49.7899 28.4711 50.2678 26.3804 51.2235 24.6481C52.1793 22.9159 53.5083 21.5868 55.2107 20.6609C56.943 19.735 58.9142 19.2721 61.1243 19.2721C63.3942 19.2721 65.3206 19.735 66.9035 20.6609C68.4865 21.5569 69.6961 22.7964 70.5323 24.3793C71.3686 25.9324 71.7867 27.7095 71.7867 29.7105C71.7867 30.3079 71.7718 30.8753 71.7419 31.4129C71.7121 31.9505 71.6673 32.4284 71.6075 32.8465H53.7323V28.5905H68.9195L65.9627 29.6657C65.9627 27.7841 65.5297 26.3356 64.6635 25.3201C63.8273 24.3047 62.6326 23.7969 61.0795 23.7969C59.9446 23.7969 58.959 24.0657 58.1227 24.6033C57.3163 25.1409 56.7041 25.9473 56.2859 27.0225C55.8678 28.0679 55.6587 29.3969 55.6587 31.0097C55.6587 32.5927 55.8827 33.9068 56.3307 34.9521C56.8086 35.9676 57.4657 36.7292 58.3019 37.2369C59.1681 37.7447 60.1985 37.9985 61.3931 37.9985C62.7073 37.9985 63.7675 37.7447 64.5739 37.2369C65.3803 36.7292 66.0075 36.0273 66.4555 35.1313L71.3387 37.0129C70.8609 38.1777 70.1291 39.1783 69.1435 40.0145C68.1878 40.8508 67.0379 41.4929 65.6939 41.9409C64.3798 42.3591 62.9611 42.5681 61.4379 42.5681ZM89.7561 27.8289C89.7561 26.5447 89.3828 25.5441 88.6361 24.8273C87.9193 24.1105 86.9636 23.7521 85.7689 23.7521C84.6638 23.7521 83.6932 24.0358 82.8569 24.6033C82.0206 25.1708 81.4084 26.1116 81.0201 27.4257L75.7785 25.8129C76.2862 23.8417 77.3913 22.2588 79.0937 21.0641C80.826 19.8694 83.1406 19.2721 86.0377 19.2721C88.0089 19.2721 89.7262 19.5857 91.1897 20.2129C92.6532 20.8103 93.7881 21.7212 94.5945 22.9457C95.4308 24.1702 95.8489 25.7084 95.8489 27.5601V36.6545C95.8489 37.7895 96.3865 38.3569 97.4617 38.3569C97.9694 38.3569 98.4473 38.2823 98.8953 38.1329L98.5369 41.9409C97.7604 42.3292 96.7897 42.5233 95.6249 42.5233C94.5796 42.5233 93.6388 42.3441 92.8025 41.9857C91.9662 41.6273 91.3092 41.0897 90.8313 40.3729C90.3534 39.6263 90.1145 38.7004 90.1145 37.5953V37.4161L91.1897 37.2369C91.0105 38.3719 90.5177 39.3425 89.7113 40.1489C88.9049 40.9255 87.9193 41.5228 86.7545 41.9409C85.6196 42.3591 84.4398 42.5681 83.2153 42.5681C81.6921 42.5681 80.378 42.3441 79.2729 41.8961C78.1678 41.4183 77.3166 40.7313 76.7193 39.8353C76.122 38.9393 75.8233 37.8343 75.8233 36.5201C75.8233 34.8476 76.3609 33.4887 77.4361 32.4433C78.5113 31.3681 80.0494 30.6364 82.0505 30.2481L90.4729 28.5457L90.4281 32.3537L85.0521 33.4289C84.0366 33.638 83.2601 33.9217 82.7225 34.2801C82.2148 34.6087 81.9609 35.1612 81.9609 35.9377C81.9609 36.6844 82.2297 37.2519 82.7673 37.6401C83.3348 38.0284 84.0068 38.2225 84.7833 38.2225C85.4105 38.2225 86.0228 38.1479 86.6201 37.9985C87.2174 37.8492 87.755 37.6103 88.2329 37.2817C88.7108 36.9532 89.0841 36.5052 89.3529 35.9377C89.6217 35.3703 89.7561 34.6833 89.7561 33.8769V27.8289ZM123.541 14.3889L124.258 18.7793C124.138 18.7793 124.004 18.7793 123.854 18.7793C123.735 18.7495 123.601 18.7345 123.451 18.7345C122.077 18.7345 121.047 19.0481 120.36 19.6753C119.673 20.2726 119.33 21.1089 119.33 22.1841L116.821 21.1537C116.821 19.9591 117.06 18.854 117.538 17.8385C118.016 16.7932 118.717 15.9569 119.643 15.3297C120.599 14.7025 121.734 14.3889 123.048 14.3889C123.108 14.3889 123.182 14.3889 123.272 14.3889C123.362 14.3889 123.451 14.3889 123.541 14.3889ZM116.194 37.9089C118.613 37.9089 120.48 38.4316 121.794 39.4769C123.108 40.5223 123.765 41.9857 123.765 43.8673C123.765 45.5697 123.272 47.0033 122.286 48.1681C121.301 49.3628 119.912 50.2588 118.12 50.8561C116.358 51.4535 114.312 51.7521 111.982 51.7521C108.13 51.7521 105.307 51.2145 103.515 50.1393C101.753 49.0641 100.872 47.6604 100.872 45.9281C100.872 44.7036 101.335 43.6732 102.261 42.8369C103.217 42.0007 104.785 41.5377 106.965 41.4481L106.741 42.1649C105.188 41.8961 103.993 41.3884 103.157 40.6417C102.35 39.8652 101.947 38.8049 101.947 37.4609C101.947 36.0871 102.47 34.9671 103.515 34.1009C104.59 33.2049 106.039 32.6823 107.861 32.5329L110.549 33.7873H109.922C108.637 33.8769 107.726 34.1457 107.189 34.5937C106.681 35.0119 106.427 35.4897 106.427 36.0273C106.427 36.6545 106.666 37.1324 107.144 37.4609C107.652 37.7596 108.369 37.9089 109.294 37.9089H116.194ZM112.027 47.5409C113.58 47.5409 114.85 47.4065 115.835 47.1377C116.851 46.8689 117.597 46.5255 118.075 46.1073C118.583 45.6892 118.837 45.2263 118.837 44.7185C118.837 44.1511 118.613 43.6881 118.165 43.3297C117.717 43.0012 116.91 42.8369 115.746 42.8369H108.174C107.458 42.8369 106.86 43.0161 106.382 43.3745C105.934 43.7329 105.71 44.2257 105.71 44.8529C105.71 45.6892 106.263 46.3463 107.368 46.8241C108.503 47.302 110.056 47.5409 112.027 47.5409ZM112.072 19.2721C114.163 19.2721 115.97 19.5857 117.493 20.2129C119.046 20.8103 120.226 21.6764 121.032 22.8113C121.868 23.9463 122.286 25.3052 122.286 26.8881C122.286 28.4412 121.868 29.7852 121.032 30.9201C120.226 32.0551 119.046 32.9361 117.493 33.5633C115.97 34.1607 114.163 34.4593 112.072 34.4593C108.757 34.4593 106.218 33.7873 104.456 32.4433C102.724 31.0694 101.858 29.2177 101.858 26.8881C101.858 25.3052 102.261 23.9463 103.067 22.8113C103.904 21.6764 105.083 20.8103 106.606 20.2129C108.13 19.5857 109.952 19.2721 112.072 19.2721ZM112.072 23.1249C110.877 23.1249 109.892 23.4534 109.115 24.1105C108.339 24.7676 107.95 25.6785 107.95 26.8433C107.95 28.0081 108.339 28.934 109.115 29.6209C109.892 30.278 110.877 30.6065 112.072 30.6065C113.267 30.6065 114.237 30.278 114.984 29.6209C115.761 28.934 116.149 28.0081 116.149 26.8433C116.149 25.6785 115.761 24.7676 114.984 24.1105C114.237 23.4534 113.267 23.1249 112.072 23.1249Z" fill="black"/>
</svg>
