<svg width="238" height="28" viewBox="0 0 238 28" fill="none" xmlns="http://www.w3.org/2000/svg">
<path d="M190.418 13.7953C190.418 16.1846 190.448 18.5743 190.401 20.9631C190.387 21.7372 190.63 22.0201 191.401 21.9952C193.015 21.945 194.635 22.0243 196.243 21.9153C198.262 21.7778 200.033 20.9663 201.335 19.3941C203.381 16.9245 203.593 14.1134 202.815 11.0897C202.116 8.37382 199.321 6.10914 196.626 5.82361C194.919 5.64264 193.216 5.70179 191.511 5.6436C190.645 5.61418 190.388 5.97964 190.403 6.81351C190.447 9.13959 190.418 11.4679 190.418 13.7953ZM184.518 13.8966C184.518 9.73302 184.537 5.5691 184.501 1.40583C184.495 0.617359 184.757 0.378836 185.515 0.389068C189.122 0.436069 192.735 0.314568 196.334 0.497457C201.894 0.780743 206.109 3.36229 208.382 8.53721C209.434 10.9314 209.702 13.5053 209.209 16.1866C208.304 21.1124 205.45 24.3401 200.956 26.2403C199.472 26.8686 197.881 27.2596 196.263 27.2881C192.626 27.3517 188.987 27.3166 185.349 27.3485C184.697 27.3543 184.501 27.1295 184.505 26.4811C184.531 22.2868 184.518 18.0915 184.518 13.8966" fill="black"/>
<path d="M102.673 0.515641C105.259 0.652807 107.536 1.57876 109.292 3.59054C110.908 5.44212 111.378 7.64862 111.2 9.99196C110.938 13.4362 109.325 16.0091 106.037 17.3878C105.363 17.6704 105.657 18.1148 105.932 18.5132C107.348 20.5752 108.77 22.6333 110.189 24.6944C110.662 25.3811 111.114 26.0839 111.607 26.756C111.959 27.2369 111.748 27.3379 111.284 27.3376C109.388 27.3363 107.492 27.3181 105.596 27.3494C105.071 27.3578 104.888 26.9888 104.681 26.6793C103.081 24.2928 101.485 21.9021 99.9341 19.4833C99.5335 18.8582 99.0785 18.5999 98.3431 18.6504C97.5076 18.7079 96.6654 18.6606 95.8261 18.6638C94.5708 18.668 94.5699 18.6699 94.5692 19.8811C94.5686 22.0863 94.5481 24.2918 94.5817 26.4967C94.5919 27.1439 94.3972 27.3712 93.7363 27.3514C92.3388 27.3092 90.939 27.3165 89.5408 27.3482C88.9192 27.3616 88.6708 27.1982 88.6759 26.5143C88.7072 22.5077 88.7107 18.5008 88.6749 14.4945C88.6679 13.6945 88.9688 13.4796 89.7083 13.4844C93.0658 13.5068 96.4231 13.5183 99.78 13.48C101.009 13.4656 102.266 13.5282 103.407 12.8689C104.933 11.9865 105.486 10.6273 105.114 8.54228C104.868 7.1623 103.708 6.15098 102.149 5.86481C100.109 5.49072 98.0553 5.69631 96.0084 5.66082C93.9266 5.62469 91.8432 5.63269 89.7611 5.66274C88.9982 5.67361 88.6161 5.48433 88.6736 4.61785C88.7456 3.53522 88.7376 2.44205 88.6749 1.35846C88.6324 0.612839 88.907 0.38135 89.6207 0.389983C91.8585 0.416202 94.097 0.399897 96.3348 0.399897L102.673 0.515641Z" fill="black"/>
<path d="M226.839 0.00150149C230.723 -0.0557312 233.99 1.52888 237.024 3.74784C237.426 4.04264 237.524 4.30482 237.067 4.69042C236.05 5.54731 235.06 6.4381 234.092 7.3487C233.663 7.75189 233.357 7.71032 232.904 7.36341C231.378 6.1967 229.662 5.47537 227.74 5.20935C226.658 5.0594 225.624 5.17674 224.616 5.50543C223.639 5.8242 222.932 6.80291 222.956 7.64382C222.988 8.73476 223.735 9.58973 224.959 10.0642C226.927 10.8258 229.025 11.1462 231 11.8778C232.713 12.5131 234.419 13.1647 235.684 14.5766C237.49 16.5929 237.645 18.973 237.106 21.4561C236.443 24.522 234.35 26.287 231.482 27.1736C229.819 27.6877 228.074 27.8856 226.323 27.7095C222.902 27.3664 219.716 26.3861 216.996 24.1809C216.108 23.4605 216.104 23.4244 216.994 22.7222C217.894 22.0134 218.806 21.3189 219.678 20.5774C220.169 20.1586 220.505 20.1129 221.112 20.502C223.556 22.0668 226.226 22.8191 229.16 22.3798C230.777 22.1377 231.737 20.9694 231.475 19.3922C231.256 18.0861 230.081 17.7417 229.072 17.3232C227.096 16.5018 224.966 16.1638 222.944 15.4767C221.096 14.8494 219.315 14.0395 218.262 12.3395C216.728 9.86278 216.72 7.17349 217.981 4.60761C219.774 0.95783 223.144 0.106375 226.839 0.00150149Z" fill="black"/>
<path d="M11.198 27.7467C7.29467 27.6201 3.68933 26.611 0.591093 24.1215C-0.201531 23.4852 -0.197694 23.4101 0.60676 22.7764C1.5551 22.0288 2.52421 21.3053 3.43898 20.5197C3.89364 20.1293 4.18524 20.1197 4.71312 20.4589C7.18468 22.0474 9.87269 22.8234 12.8414 22.3793C14.4593 22.1379 15.4386 20.9462 15.1589 19.3894C14.9264 18.0945 13.7604 17.7418 12.7487 17.322C10.7718 16.5016 8.64203 16.1639 6.61939 15.4762C4.77132 14.8479 2.99774 14.0348 1.9391 12.3364C0.394776 9.85684 0.40149 7.16723 1.66732 4.60806C3.4863 0.933023 6.86846 0.0438383 10.6257 0.0125042C14.4599 -0.0197891 17.7024 1.54723 20.706 3.75181C21.1207 4.05652 21.1731 4.32765 20.7328 4.70078C19.7189 5.56151 18.7342 6.45741 17.7555 7.35779C17.3807 7.70278 17.1016 7.76129 16.6501 7.41278C15.1052 6.22241 13.3674 5.4755 11.4093 5.21108C10.3267 5.06464 9.29429 5.17975 8.28681 5.50876C7.30778 5.82849 6.60436 6.81072 6.63249 7.65098C6.66894 8.74352 7.41425 9.5921 8.64171 10.0663C10.61 10.8269 12.7075 11.1479 14.6822 11.8792C16.3963 12.5142 18.102 13.168 19.3647 14.5813C21.1677 16.5997 21.3282 18.9786 20.7827 21.4658C20.11 24.5298 18.0189 26.2909 15.1499 27.1759C13.8847 27.5667 12.554 27.8068 11.198 27.7467Z" fill="black"/>
<path d="M50.3119 13.9238C50.3119 18.0865 50.294 22.2498 50.3285 26.4121C50.3343 27.1574 50.1216 27.3898 49.3779 27.3563C48.1057 27.2981 46.8277 27.3032 45.5552 27.354C44.768 27.3857 44.4655 27.1746 44.4812 26.32C44.5346 23.4312 44.5045 20.5411 44.4997 17.6526C44.4978 16.4913 44.461 16.46 43.285 16.46C38.4657 16.4587 33.6469 16.46 28.8276 16.459C27.5278 16.4587 27.5278 16.4565 27.5278 15.128C27.5278 10.5922 27.5499 6.05676 27.508 1.52099C27.5 0.672733 27.7197 0.349799 28.5897 0.386888C29.8929 0.442203 31.2026 0.442523 32.5061 0.385291C33.2815 0.351718 33.4481 0.667937 33.441 1.37008C33.4107 4.22819 33.4545 7.08631 33.4113 9.94378C33.3991 10.738 33.6143 11.0555 34.4421 11.0469C37.4892 11.0155 40.5363 11.0165 43.5827 11.0472C44.3507 11.0552 44.5205 10.7329 44.5135 10.0381C44.4847 7.14961 44.5247 4.25953 44.4857 1.37072C44.4751 0.623494 44.737 0.375699 45.4509 0.392645C46.7561 0.4227 48.0638 0.439325 49.3677 0.386249C50.1108 0.355555 50.3314 0.607825 50.3259 1.34194C50.2972 5.53559 50.3119 9.72988 50.3119 13.9238Z" fill="black"/>
<path d="M163.589 7.6863C162.716 9.8589 161.922 11.8301 161.131 13.8028C159.821 17.0686 158.511 20.335 157.205 23.6021C156.827 24.5479 156.432 25.4898 156.102 26.4522C155.895 27.0578 155.603 27.3753 154.905 27.3545C153.414 27.3094 151.919 27.3113 150.427 27.3529C149.666 27.374 149.498 27.1329 149.796 26.4506C150.636 24.5271 151.459 22.5956 152.284 20.6653C153.738 17.2589 155.189 13.8514 156.641 10.4437C158.019 7.20734 159.394 3.96938 160.772 0.732054C160.948 0.318636 161.246 0.112405 161.712 0.116242C163.079 0.127113 164.448 0.126156 165.816 0.117843C166.24 0.115285 166.473 0.27547 166.648 0.689208C168.141 4.21493 169.665 7.72723 171.174 11.2453C172.633 14.6492 174.087 18.0556 175.544 21.4605C176.308 23.2478 177.07 25.0358 177.844 26.8186C178.01 27.2033 177.871 27.3328 177.499 27.3331C175.665 27.3344 173.829 27.3427 171.995 27.3331C171.545 27.3308 171.389 26.9852 171.243 26.6201C169.758 22.8932 168.26 19.1702 166.773 15.4437C165.811 13.0348 164.861 10.6218 163.902 8.21163C163.858 8.101 163.78 8.00412 163.589 7.6863Z" fill="black"/>
<path d="M123.509 27.3483C124.101 27.3611 124.261 27.1188 124.24 26.5726V24.0442L124.197 22.112C124.178 21.2244 124.499 20.3627 125.095 19.7044L127.233 17.3425C131.992 12.0023 136.754 6.66304 141.505 1.31482C141.692 1.10412 142.102 0.921868 141.914 0.564724C141.771 0.292949 141.405 0.406774 141.135 0.405815C139.487 0.398461 137.838 0.423401 136.19 0.390788C135.629 0.379917 135.09 0.60373 134.709 1.01651C131.583 4.40283 128.43 7.76421 125.289 11.1371C125.035 11.4095 124.766 11.8328 124.411 11.7107C124.06 11.5895 124.24 11.0994 124.239 10.7752C124.228 7.60594 124.22 4.43608 124.243 1.26654C124.248 0.635385 124.071 0.369684 123.399 0.389827L119.295 0.393025C118.59 0.377678 118.334 0.601494 118.34 1.35447C118.377 5.51775 118.358 9.68166 118.358 13.8459C118.358 18.0405 118.373 22.2354 118.343 26.43C118.339 27.1085 118.505 27.3739 119.218 27.3512L123.509 27.3483Z" fill="black"/>
<path d="M134.444 17.1223C133.575 18.21 132.66 19.2619 131.745 20.311C131.4 20.7074 131.398 21.0601 131.697 21.4764C132.993 23.2868 134.284 25.1003 135.561 26.9244C135.736 27.1754 135.902 27.3356 136.224 27.334C138.365 27.3276 140.507 27.3308 142.901 27.3308C142.03 26.1388 141.307 25.1473 140.582 24.1574C138.882 21.8377 137.181 19.5196 135.48 17.1996C135.301 16.955 135.133 16.7862 134.942 16.7862C134.795 16.7862 134.634 16.8847 134.444 17.1223" fill="black"/>
<path d="M27.5164 22.5035C27.5477 23.8666 27.5515 25.2318 27.5135 26.5955C27.4969 27.1873 27.7389 27.3577 28.2764 27.3418C28.9894 27.3213 29.7037 27.3373 30.4173 27.3376C30.652 27.3376 30.8877 27.3376 31.1236 27.337C31.6637 27.3354 32.204 27.3341 32.7441 27.3408C33.1229 27.3446 33.428 27.2976 33.4264 26.8107C33.4184 25.2916 33.4241 23.7729 33.4174 22.2532C33.4142 21.7473 33.1472 21.5718 32.6421 21.5814C31.2464 21.6073 29.8495 21.6111 28.4535 21.5814C28.4353 21.5808 28.4174 21.5808 28.3998 21.5808C27.7632 21.5808 27.501 21.8324 27.5164 22.5035Z" fill="black"/>
<path d="M71.1281 7.81282L63.4493 26.478C63.2223 27.0929 62.9109 27.3704 62.2317 27.3506C60.7718 27.309 59.3097 27.3119 57.8498 27.3487C57.0949 27.3672 56.8186 27.1952 57.1633 26.4118C58.1564 24.1526 59.113 21.8773 60.085 19.6088C61.5306 16.2359 62.9822 12.8643 64.4216 9.48759C65.667 6.56521 66.9002 3.63707 68.1366 0.711174C68.3153 0.287844 68.6287 0.11071 69.0846 0.113907C70.4521 0.123819 71.8197 0.126696 73.1872 0.114227C73.6223 0.11039 73.8375 0.295198 74.0086 0.699024C75.3447 3.85098 76.7148 6.98982 78.0593 10.1392C79.4885 13.4865 80.8969 16.8425 82.3226 20.1917C83.2521 22.3768 84.1819 24.5625 85.1443 26.7332C85.3729 27.2483 85.1718 27.3339 84.7392 27.3346C82.9986 27.3355 81.2586 27.3314 79.5176 27.3407C79.045 27.3432 78.7934 27.1194 78.622 26.6887L71.1281 7.81282Z" fill="black"/>
</svg>
