<svg width="292" height="46" viewBox="0 0 292 46" fill="none" xmlns="http://www.w3.org/2000/svg">
<path d="M45.5805 1.35445L21.7543 33.9662L0 1.4202C1.16541 0.828449 43.5086 0.69695 45.5805 1.35445ZM13.7907 8.65265L22.0133 21.0136L31.0129 8.65265H13.7907Z" fill="white"/>
<path d="M159.791 22.986C159.597 15.2276 164.906 7.66637 174.812 7.73212C184.718 7.79786 189.574 15.0303 189.509 23.1175C189.509 31.8622 183.164 38.3057 174.488 38.3057C165.813 38.3057 159.791 31.9937 159.791 22.986ZM181.934 22.9203C181.934 22.3285 181.934 21.671 181.869 21.0793C181.61 17.7918 179.215 15.0303 176.042 14.3071C173.064 13.7153 170.086 15.0961 168.597 17.7261C166.719 20.9478 166.719 25.0243 168.597 28.246C170.474 31.665 174.747 32.8485 178.114 30.9417C179.085 30.4157 179.862 29.6267 180.445 28.772C181.546 26.9967 182.064 24.9585 181.934 22.9203Z" fill="white"/>
<path d="M291.548 38.4372C285.721 33.506 280.217 28.0488 274.131 22.7888V37.5825H267.268C267.204 36.9907 267.139 36.399 267.074 35.7415C267.074 27.1283 267.074 18.4493 267.074 9.83615C267.204 9.1129 267.398 8.45541 267.722 7.79791C268.369 8.06091 269.017 8.38966 269.599 8.84991C274.326 13.1236 278.987 17.4631 283.714 21.8026C284.037 22.1313 284.491 22.3943 285.138 22.9203V8.38966H292.001V38.0427L291.548 38.4372Z" fill="white"/>
<path d="M253.478 27.0625H247.974V21.2108H260.017C260.147 21.6053 260.211 21.9998 260.211 22.3285C260.211 26.2735 260.276 30.2185 260.211 34.1634C260.211 34.7552 259.888 35.2812 259.434 35.6757C254.125 38.8317 246.032 39.5549 240.464 35.7414C235.543 32.3882 233.472 27.5227 233.99 21.6053C234.508 15.2933 237.874 10.8223 243.831 8.71834C248.751 6.94311 253.607 7.6006 258.334 9.77034C258.722 9.96759 259.046 10.2306 259.37 10.4936L256.586 15.885C255.032 15.3591 253.413 14.8988 251.794 14.5701C248.298 14.0441 244.996 14.5701 242.795 17.8575C240.917 20.619 240.917 25.353 242.795 28.1802C244.672 31.0075 248.104 32.4539 251.794 31.6649C252.895 31.4677 253.672 30.9417 253.543 29.6267C253.413 28.9035 253.478 28.1145 253.478 27.0625Z" fill="white"/>
<path d="M55.292 8.38965H62.0902V19.4356H72.8379V8.38965H79.7656V37.5825H72.9026V26.2078H62.155V37.5825H55.292V8.38965Z" fill="white"/>
<path d="M87.9238 8.32391H106.247V14.7016H94.9163V19.5671H105.211V25.6818H94.9163V31.139H106.311V37.5825H87.9238V8.32391Z" fill="white"/>
<path d="M213.529 10.2306L211.846 16.411L209.839 15.3591C208.285 14.4386 206.472 13.9783 204.659 14.1098C203.558 14.2413 202.523 14.5701 202.264 15.8193C202.005 17.0685 202.652 17.9233 203.688 18.4493C204.724 18.9753 205.954 19.567 207.055 20.093C207.832 20.4875 208.609 20.8163 209.385 21.2108C213.27 23.512 214.695 26.2077 213.982 30.613C213.335 34.4922 210.875 36.7934 207.184 37.7797C202.393 39.0289 198.12 37.5824 193.847 35.2154L195.789 28.772C196.436 29.1007 196.89 29.3637 197.343 29.6267C199.479 30.9417 201.94 31.5334 204.4 31.5334C205.566 31.4677 206.537 31.0732 206.86 29.8897C207.249 28.772 206.796 27.5227 205.76 26.9967C204.465 26.2077 203.04 25.6817 201.746 24.9585C200.515 24.3667 199.35 23.6435 198.249 22.9203C194.235 20.093 193.717 12.6633 199.026 9.44159C202.911 7.00886 209.515 7.27185 213.529 10.2306Z" fill="white"/>
<path d="M120.686 31.2705H132.275V37.6482H113.888V8.38965H120.686V31.2705Z" fill="white"/>
<path d="M144.771 31.2048H156.102V37.5825H137.908V8.38965H144.771V31.2048Z" fill="white"/>
<path d="M38.847 37.5825V44.6177C37.6816 45.1437 8.87008 45.2752 6.92773 44.7492V37.5825H38.847Z" fill="white"/>
<path d="M227.514 8.38965V37.5825H220.716V8.38965H227.514Z" fill="white"/>
</svg>
