<svg width="46" height="45" viewBox="0 0 46 45" fill="none" xmlns="http://www.w3.org/2000/svg">
<path d="M32.375 3.75H13.625C8.44733 3.75 4.25 7.61154 4.25 12.375V29.625C4.25 34.3885 8.44733 38.25 13.625 38.25H32.375C37.5527 38.25 41.75 34.3885 41.75 29.625V12.375C41.75 7.61154 37.5527 3.75 32.375 3.75Z" stroke="white" stroke-width="4" stroke-linecap="round" stroke-linejoin="round"/>
<path d="M30.4999 21.3188C30.7313 22.8793 30.4648 24.473 29.7382 25.8732C29.0117 27.2735 27.8621 28.409 26.453 29.1182C25.0439 29.8275 23.447 30.0743 21.8895 29.8237C20.332 29.5731 18.8932 28.8377 17.7778 27.7223C16.6623 26.6068 15.9269 25.168 15.6763 23.6105C15.4257 22.053 15.6726 20.4561 16.3818 19.047C17.091 17.6379 18.2265 16.4883 19.6268 15.7618C21.027 15.0352 22.6207 14.7687 24.1812 15.0001C25.7729 15.2361 27.2465 15.9778 28.3844 17.1157C29.5222 18.2535 30.2639 19.7271 30.4999 21.3188Z" stroke="white" stroke-width="4" stroke-linecap="round" stroke-linejoin="round"/>
<path d="M33.3125 12.1875H33.3312" stroke="white" stroke-width="4" stroke-linecap="round" stroke-linejoin="round"/>
</svg>
