<svg width="1051" height="886" viewBox="0 0 1051 886" fill="none" xmlns="http://www.w3.org/2000/svg">
<g clip-path="url(#clip0_195_126)">
<rect x="444.318" y="-103.568" width="163.395" height="163.395" rx="32.6791" fill="#E7F5FF"/>
<g clip-path="url(#clip1_195_126)">
<path fill-rule="evenodd" clip-rule="evenodd" d="M559.239 -30.914L570.014 -6.72544C572.195 -1.83057 569.992 3.90406 565.095 6.08338C560.197 8.26271 554.46 6.06132 552.279 1.16654L543.569 -18.3869L539.73 -9.34832V-30.914H559.239Z" fill="#2AA8FF"/>
<path fill-rule="evenodd" clip-rule="evenodd" d="M525.853 -26.3914L525.866 -26.3621L534.384 -46.4184C535.958 -50.1244 539.566 -52.3449 543.357 -52.3317C547.086 -52.3447 550.649 -50.1972 552.263 -46.5737L562.627 -23.3081C560.537 -25.1121 557.814 -26.203 554.836 -26.203C549.662 -26.203 545.257 -22.9095 543.605 -18.3051L543.569 -18.387L535.202 1.31492C533.107 6.24702 527.409 8.54815 522.474 6.45458C521.999 6.25319 521.54 6.01451 521.103 5.74076C519.293 4.7573 517.781 3.19268 516.879 1.16656L508.202 -18.3113C509.508 -17.9374 510.888 -17.7372 512.314 -17.7372C518.315 -17.7372 523.489 -21.282 525.853 -26.3914H525.853Z" fill="#AEDEFF"/>
<path fill-rule="evenodd" clip-rule="evenodd" d="M506.28 -13.9421L499.801 1.31487C497.706 6.24697 492.008 8.5481 487.073 6.45453C482.139 4.36096 479.836 -1.33447 481.931 -6.26657L489.126 -23.208C490.649 -23.8818 492.333 -24.256 494.105 -24.256C500.221 -24.256 505.299 -19.796 506.28 -13.942V-13.9421Z" fill="#393939"/>
</g>
<rect x="444.318" y="92.0182" width="163.395" height="163.395" rx="32.6791" fill="#262627"/>
<g clip-path="url(#clip2_195_126)">
<path d="M487.627 180.909L487.607 180.844L500.479 169.06V163.383H479.828V169.06H492.163L492.183 169.115L479.437 180.909V186.587H500.686V180.909H487.627Z" fill="white"/>
<path d="M513.362 162.842C510.98 162.842 509.038 163.201 507.538 163.92C506.14 164.546 504.963 165.578 504.158 166.881C503.389 168.193 502.906 169.653 502.741 171.165L509.006 172.046C509.233 170.71 509.687 169.764 510.366 169.207C511.14 168.623 512.092 168.329 513.059 168.374C514.331 168.374 515.253 168.714 515.827 169.394C516.395 170.074 516.684 171.015 516.684 172.256V172.875H510.659C507.592 172.875 505.389 173.555 504.05 174.915C502.71 176.275 502.041 178.07 502.044 180.3C502.044 182.585 502.712 184.285 504.05 185.4C505.387 186.515 507.069 187.07 509.095 187.063C511.609 187.063 513.542 186.198 514.895 184.469C515.694 183.406 516.265 182.189 516.571 180.895H516.799L517.663 186.573H523.341V172.195C523.341 169.224 522.557 166.922 520.991 165.29C519.425 163.658 516.882 162.842 513.362 162.842ZM515.347 180.566C514.446 181.317 513.267 181.691 511.798 181.691C510.587 181.691 509.747 181.479 509.275 181.055C509.046 180.855 508.863 180.606 508.74 180.327C508.617 180.048 508.557 179.745 508.565 179.44C508.551 179.153 508.597 178.866 508.698 178.596C508.799 178.327 508.954 178.081 509.153 177.873C509.368 177.671 509.622 177.515 509.9 177.413C510.178 177.312 510.473 177.269 510.768 177.285H516.694V177.676C516.706 178.228 516.591 178.776 516.357 179.277C516.124 179.779 515.778 180.219 515.347 180.566Z" fill="white"/>
<path d="M557.671 163.383H550.963V186.59H557.671V163.383Z" fill="white"/>
<path d="M597.273 163.383C595.379 163.383 593.885 164.051 592.792 165.389C592.008 166.35 591.412 167.77 591.004 169.649H590.807L589.93 163.383H584.201V186.587H590.909V174.687C590.909 173.187 591.26 172.036 591.963 171.236C592.665 170.436 593.962 170.036 595.852 170.036H598.399V163.383H597.273Z" fill="white"/>
<path d="M577.551 164.141C575.984 163.21 574.009 162.745 571.625 162.747C567.871 162.747 564.934 163.816 562.812 165.953C560.691 168.091 559.63 171.037 559.63 174.793C559.576 177.064 560.072 179.314 561.075 181.351C561.993 183.167 563.423 184.674 565.189 185.686C566.966 186.713 569.079 187.228 571.529 187.23C573.649 187.23 575.419 186.903 576.84 186.251C578.176 185.664 579.34 184.745 580.22 183.582C581.057 182.439 581.68 181.153 582.055 179.787L576.276 178.169C576.033 179.057 575.564 179.868 574.916 180.522C574.263 181.175 573.169 181.501 571.635 181.501C569.81 181.501 568.45 180.979 567.555 179.934C566.906 179.179 566.498 178.101 566.317 176.704H582.144C582.209 176.051 582.243 175.504 582.243 175.062V173.617C582.281 171.676 581.88 169.751 581.07 167.986C580.311 166.379 579.085 165.039 577.551 164.141ZM571.431 168.279C574.151 168.279 575.693 169.617 576.058 172.294H566.436C566.589 171.401 566.959 170.559 567.514 169.843C568.396 168.798 569.702 168.277 571.431 168.279Z" fill="white"/>
<path d="M554.388 154.03C553.884 154.012 553.381 154.097 552.909 154.278C552.438 154.459 552.008 154.733 551.645 155.083C551.286 155.437 551.006 155.862 550.82 156.33C550.634 156.798 550.548 157.3 550.567 157.803C550.549 158.31 550.635 158.815 550.821 159.286C551.007 159.758 551.288 160.186 551.646 160.545C552.005 160.903 552.433 161.183 552.905 161.369C553.377 161.554 553.882 161.64 554.388 161.621C554.891 161.64 555.393 161.554 555.862 161.369C556.33 161.183 556.754 160.902 557.108 160.544C557.459 160.181 557.733 159.752 557.913 159.281C558.094 158.81 558.177 158.307 558.159 157.803C558.182 157.302 558.1 156.802 557.919 156.334C557.738 155.867 557.462 155.442 557.107 155.087C556.753 154.732 556.328 154.455 555.861 154.274C555.393 154.092 554.893 154.01 554.392 154.033L554.388 154.03Z" fill="white"/>
<path d="M540.533 162.747C538.249 162.747 536.413 163.465 535.025 164.899C533.998 165.962 533.245 167.549 532.764 169.659H532.55L531.673 163.393H525.944V193.258H532.652V180.957H532.897C533.102 181.777 533.389 182.575 533.754 183.337C534.321 184.579 535.252 185.62 536.423 186.322C537.637 186.984 539.004 187.314 540.387 187.277C543.195 187.277 545.334 186.184 546.803 183.996C548.271 181.809 549.006 178.757 549.006 174.841C549.006 171.058 548.295 168.096 546.874 165.957C545.453 163.817 543.339 162.747 540.533 162.747ZM541.213 179.563C540.431 180.696 539.207 181.263 537.541 181.263C536.854 181.295 536.17 181.162 535.544 180.877C534.919 180.591 534.37 180.161 533.944 179.621C533.076 178.531 532.643 177.038 532.645 175.143V174.701C532.645 172.777 533.078 171.304 533.944 170.281C534.81 169.259 536.009 168.754 537.541 168.765C539.237 168.765 540.468 169.303 541.237 170.38C542.005 171.457 542.39 172.958 542.39 174.885C542.394 176.877 542.004 178.437 541.22 179.563H541.213Z" fill="white"/>
<path d="M476.839 180.909H453.631V186.594H476.839V180.909Z" fill="#FF4F00"/>
</g>
<rect x="444.318" y="287.605" width="163.395" height="163.395" rx="20.4244" fill="#4353FF"/>
<path d="M546.718 356.95C546.718 356.95 539.76 378.803 539.246 380.658C539.04 378.837 533.967 339.564 533.967 339.564C522.108 339.564 515.801 348.017 512.442 356.95C512.442 356.95 503.977 378.871 503.291 380.692C503.257 378.974 501.989 357.156 501.989 357.156C501.269 346.196 491.295 339.564 483.206 339.564L492.94 399.04C505.348 399.006 512.031 390.588 515.527 381.62C515.527 381.62 522.965 362.276 523.273 361.417C523.342 362.241 528.62 399.04 528.62 399.04C541.062 399.04 547.78 391.172 551.379 382.548L568.825 339.564C556.52 339.564 550.042 347.982 546.718 356.95Z" fill="white"/>
<rect x="44.3997" y="-108" width="163.395" height="163.395" rx="20.4244" fill="#356AE6"/>
<g clip-path="url(#clip3_195_126)">
<path d="M147.355 6.21339H104.965C100.938 6.21339 97.0758 4.638 94.2283 1.83352C91.3807 -0.971282 89.781 -4.77497 89.781 -8.74091H162.539C162.538 -4.77432 160.937 -0.970631 158.089 1.83352C155.24 4.638 151.378 6.21339 147.35 6.21339" fill="white"/>
</g>
<rect x="44.3997" y="87.5864" width="163.395" height="163.395" rx="32.6791" fill="#6773E5"/>
<path d="M120.994 154.727C120.994 151.641 123.526 150.455 127.719 150.455C133.732 150.455 141.327 152.274 147.34 155.518V136.926C140.773 134.315 134.286 133.287 127.719 133.287C111.659 133.287 100.978 141.673 100.978 155.676C100.978 177.512 131.042 174.031 131.042 183.446C131.042 187.085 127.878 188.272 123.447 188.272C116.88 188.272 108.494 185.582 101.848 181.943V200.772C109.206 203.937 116.643 205.282 123.447 205.282C139.903 205.282 151.217 197.133 151.217 182.971C151.138 159.395 120.994 163.588 120.994 154.727Z" fill="white"/>
<rect x="244" y="-19" width="163.395" height="163.395" rx="32.6791" fill="white"/>
<path d="M348.035 47.7888V37.3905C349.41 36.7482 350.573 35.7289 351.39 34.4512C352.208 33.1734 352.645 31.6898 352.652 30.173V29.9344C352.652 25.512 349.067 21.9268 344.645 21.9268H344.406C339.984 21.9268 336.399 25.512 336.399 29.9344V30.173C336.406 31.6898 336.843 33.1734 337.661 34.4512C338.478 35.7289 339.642 36.7482 341.016 37.3905V47.7888C337.066 48.3937 333.347 50.0313 330.234 52.5359L301.716 30.3231C301.919 29.5891 302.025 28.8342 302.037 28.0765C302.041 26.2919 301.515 24.5464 300.526 23.0607C299.537 21.575 298.13 20.4159 296.483 19.73C294.835 19.0441 293.021 18.8622 291.27 19.2074C289.519 19.5526 287.91 20.4093 286.646 21.6691C285.382 22.929 284.52 24.5354 284.17 26.2852C283.819 28.035 283.995 29.8495 284.675 31.4992C285.356 33.149 286.51 34.5599 287.993 35.5534C289.475 36.5469 291.219 37.0784 293.004 37.0807C294.565 37.0733 296.097 36.6565 297.447 35.8719L325.529 57.7241C320.366 65.5234 320.504 75.6881 325.877 83.3447L317.335 91.8883C316.645 91.6677 315.926 91.5504 315.201 91.5405C311.11 91.544 307.797 94.8613 307.798 98.9518C307.799 103.042 311.115 106.357 315.205 106.358C319.295 106.36 322.613 103.046 322.616 98.9553C322.606 98.2306 322.489 97.5113 322.268 96.8211L330.717 88.3684C338.267 94.1804 348.636 94.6812 356.711 89.6237C364.786 84.5658 368.861 75.0175 366.926 65.6884C364.991 56.3589 357.455 49.2186 348.035 47.7885V47.7888ZM344.533 81.9883C342.972 82.0303 341.419 81.7591 339.964 81.1907C338.51 80.6224 337.184 79.7684 336.065 78.6791C334.946 77.5899 334.057 76.2875 333.449 74.8488C332.842 73.4102 332.529 71.8645 332.529 70.3029C332.529 68.7413 332.842 67.1956 333.449 65.7569C334.057 64.3183 334.946 63.0159 336.065 61.9267C337.184 60.8374 338.51 59.9834 339.964 59.4151C341.419 58.8467 342.972 58.5755 344.533 58.6175C350.824 58.8378 355.81 63.9996 355.814 70.2944C355.817 76.5886 350.835 81.7557 344.545 81.9823" fill="#FF7A59"/>
<rect x="244" y="176.586" width="163.395" height="163.395" rx="32.6791" fill="#1A77F2"/>
<path d="M343.292 220.05H331.305C324.192 220.05 316.28 223.1 316.28 233.613C316.315 237.276 316.28 240.784 316.28 244.732H308.051V258.083H316.535V296.519H332.124V257.829H342.413L343.344 244.694H331.855C331.855 244.694 331.881 238.851 331.855 237.155C331.855 233 336.095 233.238 336.35 233.238C338.368 233.238 342.291 233.244 343.298 233.238V220.05H343.292Z" fill="white"/>
<rect x="645" y="-19" width="163.395" height="163.395" rx="32.6791" fill="#262627"/>
<g clip-path="url(#clip4_195_126)">
<path d="M724.649 23.9098C734.653 23.0862 741.838 25.7413 749.569 33.4675C757.915 41.809 763.464 52.6188 764.96 64.1336C766.624 76.9389 764.335 86.4947 757.287 93.4907C750.547 100.18 740.702 102.387 727.551 101.288L727.007 101.24C715.808 100.21 707.888 96.5386 700.213 88.766C692.015 80.4637 687.696 71.0374 687.926 61.1436C688.039 56.3 689.411 52.1719 692.057 48.1215C693.792 45.4661 695.554 43.3947 699.239 39.5959L700.469 38.3361L701.825 36.962C710.558 28.1832 716.308 24.5966 724.649 23.9098ZM748.974 34.0623C741.418 26.5102 734.475 23.9446 724.718 24.7479C716.496 25.4249 710.849 29.0172 702.011 37.9681L701.372 38.6168C697.066 42.994 695.048 45.2321 693.271 47.8203L693.012 48.2019L692.761 48.5814C690.198 52.5051 688.876 56.4824 688.767 61.1632C688.542 70.8116 692.764 80.0254 700.811 88.1752C708.467 95.928 716.331 99.506 727.621 100.45L728.181 100.494C740.829 101.467 750.258 99.2819 756.694 92.8939C763.532 86.1067 765.759 76.8097 764.126 64.2419C762.655 52.9164 757.193 42.2758 748.974 34.0623ZM738.509 52.0605V56.1685H729.784V79.7132H725.438V56.1685H716.713V52.0605H738.509Z" fill="white"/>
</g>
<rect x="645" y="176.586" width="163.395" height="163.395" rx="32.6791" fill="white"/>
<g clip-path="url(#clip5_195_126)">
<path d="M741.587 228.054V287.612C741.587 294.276 746.19 297.989 751.063 297.989C755.574 297.989 760.538 294.831 760.538 287.612V228.505C760.538 222.396 756.026 218.579 751.063 218.579C746.099 218.579 741.587 222.789 741.587 228.054Z" fill="#F9AB00"/>
<path d="M716.772 258.284V287.612C716.772 294.276 721.374 297.989 726.247 297.989C730.759 297.989 735.722 294.831 735.722 287.612V258.735C735.722 252.626 731.21 248.809 726.247 248.809C721.284 248.809 716.772 253.019 716.772 258.284Z" fill="#E37400"/>
<path d="M701.431 297.989C706.664 297.989 710.906 293.747 710.906 288.514C710.906 283.281 706.664 279.039 701.431 279.039C696.198 279.039 691.956 283.281 691.956 288.514C691.956 293.747 696.198 297.989 701.431 297.989Z" fill="#E37400"/>
</g>
<rect x="844.236" y="-105.42" width="163.395" height="163.395" rx="32.6791" fill="white"/>
<path fill-rule="evenodd" clip-rule="evenodd" d="M901.916 -48.5393C904.293 -46.6078 905.185 -46.7552 909.649 -47.0531L951.736 -49.5801C952.628 -49.5801 951.886 -50.4706 951.588 -50.6186L944.599 -55.6715C943.259 -56.7113 941.475 -57.9021 938.055 -57.6042L897.303 -54.6319C895.817 -54.4845 895.52 -53.7414 896.112 -53.1458L901.916 -48.5393ZM904.443 -38.7311V5.5507C904.443 7.93056 905.632 8.82088 908.309 8.67368L954.561 5.99728C957.239 5.85007 957.538 4.21317 957.538 2.2799V-41.7048C957.538 -43.6349 956.795 -44.6758 955.156 -44.5272L906.822 -41.7048C905.038 -41.5549 904.443 -40.6626 904.443 -38.7311H904.443ZM950.103 -36.3558C950.4 -35.0171 950.103 -33.6795 948.762 -33.529L946.534 -33.085V-0.393326C944.599 0.646614 942.814 1.24117 941.328 1.24117C938.947 1.24117 938.351 0.497597 936.568 -1.73009L921.991 -24.6145V-2.47321L926.603 -1.43237C926.603 -1.43237 926.603 1.24117 922.882 1.24117L912.622 1.83632C912.324 1.24117 912.622 -0.243561 913.663 -0.540985L916.34 -1.28305V-30.5581L912.623 -30.856C912.325 -32.1947 913.067 -34.1249 915.151 -34.2747L926.157 -35.0166L941.328 -11.8343V-32.342L937.46 -32.7859C937.163 -34.4225 938.351 -35.6109 939.838 -35.7582L950.103 -36.3558ZM893.882 -58.6438L936.27 -61.7655C941.476 -62.2119 942.815 -61.9128 946.087 -59.5363L959.618 -50.026C961.85 -48.3906 962.594 -47.9453 962.594 -46.1626V5.99728C962.594 9.26627 961.404 11.1995 957.24 11.4953L908.014 14.4679C904.889 14.6169 903.401 14.1716 901.765 12.0899L891.8 -0.838417C890.015 -3.21828 889.272 -4.99863 889.272 -7.08152V-53.4447C889.272 -56.118 890.464 -58.3479 893.882 -58.6438Z" fill="black"/>
<rect x="844.236" y="90.1659" width="163.395" height="163.395" rx="20.4244" fill="#356AE6"/>
<path d="M921.018 175.044C922.271 175.044 923.524 174.562 924.873 173.55C926.463 172.442 927.86 171.526 927.86 171.526L928.342 171.189L927.86 170.852C927.667 170.707 906.707 156.156 904.539 154.758C903.527 154.036 902.371 153.891 901.455 154.325C900.588 154.758 900.106 155.674 900.106 156.782V161.745L900.299 161.841C900.444 161.938 914.851 171.96 917.645 173.839C918.802 174.658 919.91 175.044 921.018 175.044Z" fill="white"/>
<path d="M949.109 166.322C947.856 165.407 902.901 134.039 900.974 132.69L900.347 132.257V139.966C900.347 142.423 901.648 143.339 903.238 144.495C903.238 144.495 937.738 168.539 942.026 171.478C937.738 174.466 905.262 196.967 903.19 198.268C900.733 199.907 900.492 200.967 900.492 203.183V211.471C900.492 211.471 948.049 177.453 949.061 176.682C951.229 175.044 951.711 173.116 951.759 171.719V170.852C951.807 169.117 950.892 167.575 949.109 166.322Z" fill="white"/>
</g>
<defs>
<clipPath id="clip0_195_126">
<rect width="1051" height="886" fill="white"/>
</clipPath>
<clipPath id="clip1_195_126">
<rect width="92.3582" height="61.4367" fill="white" transform="translate(479.836 -52.5889)"/>
</clipPath>
<clipPath id="clip2_195_126">
<rect width="144.768" height="39.377" fill="white" transform="translate(453.631 154.027)"/>
</clipPath>
<clipPath id="clip3_195_126">
<rect width="72.6324" height="65.0314" fill="white" transform="translate(89.7811 -58.8179)"/>
</clipPath>
<clipPath id="clip4_195_126">
<rect width="77.5602" height="77.8632" fill="white" transform="translate(687.918 23.7661)"/>
</clipPath>
<clipPath id="clip5_195_126">
<rect width="79.4102" height="79.4102" fill="white" transform="translate(686.993 218.579)"/>
</clipPath>
</defs>
</svg>
