<svg width="750" height="151" viewBox="0 0 750 151" fill="none" xmlns="http://www.w3.org/2000/svg">
<path d="M25.9183 91.25C21.4983 89.0967 19.2883 85.1867 19.2883 79.52C19.2883 73.8533 21.5549 69.8867 26.0883 67.62C64.9616 44.6133 87.2883 31.3533 93.0683 27.84C98.8483 24.3267 102.305 22.4 103.438 22.06C104.685 21.4933 106.158 21.21 107.858 21.21C110.918 21.21 114.092 23.9867 117.378 29.54C119.532 33.0533 120.608 35.7167 120.608 37.53C120.608 39.23 120.212 40.7033 119.418 41.95C118.398 43.7633 116.075 45.86 112.448 48.24C78.675 68.1867 61.1083 78.6133 59.7483 79.52L112.448 110.8C114.602 112.047 116.132 113.067 117.038 113.86C119.532 115.9 120.778 118.11 120.778 120.49C120.778 122.757 119.758 125.533 117.718 128.82C115.792 131.993 114.035 134.26 112.448 135.62C110.862 136.98 109.218 137.66 107.518 137.66C105.252 137.66 102.305 136.583 98.6783 134.43L25.9183 91.25ZM130.12 21.21C130.12 18.6033 130.177 16.6767 130.29 15.43C130.517 14.07 131.027 12.54 131.82 10.84C133.407 7.77999 137.827 6.24999 145.08 6.24999C151.994 6.24999 156.3 7.77999 158 10.84C158.907 12.54 159.417 14.07 159.53 15.43C159.757 16.79 159.87 18.7733 159.87 21.38V100.09C159.87 104.17 160.21 106.777 160.89 107.91C161.57 108.93 163.044 109.44 165.31 109.44C167.69 109.44 169.277 109.553 170.07 109.78C170.864 109.893 171.827 110.347 172.96 111.14C175.227 112.613 176.36 116.637 176.36 123.21C176.36 130.35 175.227 134.713 172.96 136.3C170.014 138.34 162.987 138.68 151.88 137.32C143.154 136.187 137.487 133.297 134.88 128.65C131.707 123.097 130.12 114.257 130.12 102.13V21.21ZM185.736 63.37C185.736 60.7633 185.792 58.8367 185.906 57.59C186.132 56.23 186.642 54.7 187.436 53C189.022 50.0533 193.442 48.58 200.696 48.58C206.136 48.58 209.989 49.5433 212.256 51.47C214.182 53.0567 215.202 55.4933 215.316 58.78C215.429 59.9133 215.486 61.5567 215.486 63.71V123.21C215.486 125.817 215.372 127.8 215.146 129.16C215.032 130.407 214.522 131.88 213.616 133.58C212.142 136.527 207.779 138 200.526 138C193.386 138 189.022 136.47 187.436 133.41C186.642 131.71 186.132 130.237 185.906 128.99C185.792 127.743 185.736 125.76 185.736 123.04V63.37ZM213.616 31.92C212.822 33.5067 211.349 34.64 209.196 35.32C207.042 36 204.152 36.34 200.526 36.34C197.012 36.34 194.179 36 192.026 35.32C189.872 34.64 188.342 33.45 187.436 31.75C186.642 30.05 186.132 28.5767 185.906 27.33C185.792 25.97 185.736 23.9867 185.736 21.38C185.736 18.7733 185.792 16.8467 185.906 15.6C186.132 14.24 186.642 12.7667 187.436 11.18C189.022 8.11999 193.442 6.58999 200.696 6.58999C207.836 6.58999 212.142 8.11999 213.616 11.18C214.522 12.88 215.032 14.41 215.146 15.77C215.372 17.0167 215.486 18.9433 215.486 21.55C215.486 24.1567 215.372 26.14 215.146 27.5C215.032 28.7467 214.522 30.22 213.616 31.92ZM281.766 93.12L304.376 111.82C307.209 114.2 308.966 116.013 309.646 117.26C310.439 118.507 310.836 119.697 310.836 120.83C310.836 123.55 309.079 127.233 305.566 131.88C301.712 136.64 298.312 139.02 295.366 139.02C292.872 139.02 289.416 137.377 284.996 134.09L283.296 132.9C280.689 130.747 276.666 127.007 271.226 121.68C265.786 116.24 261.649 112.387 258.816 110.12V123.21C258.816 125.817 258.702 127.8 258.476 129.16C258.362 130.407 257.852 131.88 256.946 133.58C255.472 136.527 251.109 138 243.856 138C236.716 138 232.352 136.47 230.766 133.41C229.972 131.71 229.462 130.237 229.236 128.99C229.122 127.63 229.066 125.647 229.066 123.04V21.21C229.066 18.6033 229.122 16.6767 229.236 15.43C229.462 14.07 229.972 12.54 230.766 10.84C232.352 7.77999 236.772 6.24999 244.026 6.24999C249.466 6.24999 253.319 7.21333 255.586 9.14C257.512 10.7267 258.532 13.22 258.646 16.62C258.759 17.64 258.816 19.2267 258.816 21.38V75.27C260.856 73.57 263.916 70.68 267.996 66.6C272.189 62.52 275.306 59.63 277.346 57.93L279.386 56.57C283.352 53.51 286.752 51.98 289.586 51.98C292.419 51.98 295.649 54.3033 299.276 58.95C303.016 63.4833 304.886 67.0533 304.886 69.66C304.886 72.2667 302.789 75.3267 298.596 78.84L281.766 93.12ZM320.888 130.01C318.735 128.65 317.658 126.497 317.658 123.55C317.658 120.603 319.812 116.127 324.118 110.12C325.365 108.193 327.348 107.23 330.068 107.23C332.902 107.23 336.698 108.647 341.458 111.48C346.218 114.2 350.525 115.56 354.378 115.56C361.292 115.56 364.748 114.2 364.748 111.48C364.748 109.327 360.952 107.74 353.358 106.72C346.218 105.7 339.135 103.037 332.108 98.73C328.822 96.69 326.102 93.5167 323.948 89.21C321.795 84.79 320.718 79.5767 320.718 73.57C320.718 55.6633 333.015 46.71 357.608 46.71C365.655 46.71 373.928 48.6367 382.428 52.49C386.395 54.3033 388.378 56.57 388.378 59.29C388.378 62.01 387.132 65.3533 384.638 69.32C382.145 73.2867 379.595 75.27 376.988 75.27C375.628 75.27 373.078 74.42 369.338 72.72C365.712 71.02 361.745 70.17 357.438 70.17C350.752 70.17 347.408 71.4167 347.408 73.91C347.408 77.31 351.262 79.52 358.968 80.54C366.448 81.3333 373.702 83.4867 380.728 87C384.015 88.5867 386.735 91.3633 388.888 95.33C391.155 99.1833 392.288 104.057 392.288 109.95C392.288 115.843 391.155 120.887 388.888 125.08C386.735 129.16 383.675 132.22 379.708 134.26C372.455 137.773 363.332 139.53 352.338 139.53C341.458 139.53 330.975 136.357 320.888 130.01ZM429.732 109.95C431.659 111.877 432.622 115.843 432.622 121.85V122.53C432.622 125.25 432.509 127.29 432.282 128.65C432.169 129.897 431.602 131.427 430.582 133.24C428.882 136.527 424.575 138.17 417.662 138.17C410.862 138.17 406.329 137.093 404.062 134.94C401.909 132.787 400.832 128.707 400.832 122.7V122.02C400.832 119.413 400.889 117.43 401.002 116.07C401.229 114.71 401.795 113.18 402.702 111.48C404.402 108.08 408.652 106.38 415.452 106.38C422.365 106.38 427.125 107.57 429.732 109.95ZM471.774 93.29C471.774 98.05 473.36 101.79 476.534 104.51C479.707 107.117 483.05 108.42 486.564 108.42C490.19 108.42 493.534 107.4 496.594 105.36C499.767 103.207 502.317 102.13 504.244 102.13C507.644 102.13 511.78 105.133 516.654 111.14C519.26 114.427 520.564 117.373 520.564 119.98C520.564 124.287 517.447 128.31 511.214 132.05C504.754 136.583 496.82 138.85 487.414 138.85C476.874 138.85 466.73 135.053 456.984 127.46C452.337 123.833 448.54 119.017 445.594 113.01C442.647 106.89 441.174 100.203 441.174 92.95C441.174 85.5833 442.647 78.9533 445.594 73.06C448.54 67.0533 452.337 62.2367 456.984 58.61C466.39 51.13 476.42 47.39 487.074 47.39C491.38 47.39 495.574 48.0133 499.654 49.26C503.734 50.3933 506.737 51.5267 508.664 52.66L511.384 54.36C513.424 55.72 515.01 56.7967 516.144 57.59C519.09 59.8567 520.564 62.4633 520.564 65.41C520.564 68.2433 519.374 71.4733 516.994 75.1C512.914 81.3333 509.004 84.45 505.264 84.45C503.11 84.45 500.05 83.2033 496.084 80.71C494.044 78.7833 491.097 77.82 487.244 77.82C483.504 77.82 479.99 79.18 476.704 81.9C473.417 84.62 471.774 88.4167 471.774 93.29ZM528.996 93.29C528.996 79.69 533.756 68.47 543.276 59.63C552.796 50.79 563.676 46.37 575.916 46.37C588.156 46.37 598.979 50.79 608.386 59.63C617.793 68.3567 622.496 79.52 622.496 93.12C622.496 102.527 620.059 110.913 615.186 118.28C610.313 125.533 604.363 130.917 597.336 134.43C590.423 137.83 583.226 139.53 575.746 139.53C568.266 139.53 561.013 137.717 553.986 134.09C546.959 130.35 541.009 124.91 536.136 117.77C531.376 110.517 528.996 102.357 528.996 93.29ZM564.526 105.53C568.153 108.25 571.836 109.61 575.576 109.61C579.316 109.61 583.056 108.193 586.796 105.36C590.536 102.527 592.406 98.3333 592.406 92.78C592.406 87.2267 590.649 83.09 587.136 80.37C583.623 77.65 579.826 76.29 575.746 76.29C571.666 76.29 567.869 77.7067 564.356 80.54C560.843 83.3733 559.086 87.5667 559.086 93.12C559.086 98.56 560.899 102.697 564.526 105.53ZM723.75 67.62C728.283 69.8867 730.55 73.8533 730.55 79.52C730.55 85.1867 728.34 89.0967 723.92 91.25L651.33 134.43C645.55 138.17 640.903 138.567 637.39 135.62C635.803 134.26 634.16 132.22 632.46 129.5C630.193 125.76 629.06 123.04 629.06 121.34C629.06 119.64 629.4 118.167 630.08 116.92C631.326 114.993 633.763 112.953 637.39 110.8L690.26 79.52L637.56 48.24C635.52 46.9933 633.99 45.9733 632.97 45.18C630.476 43.0267 629.23 40.7033 629.23 38.21C629.23 35.9433 630.193 33.2233 632.12 30.05C635.633 24.1567 638.92 21.21 641.98 21.21C644.7 21.21 647.76 22.2867 651.16 24.44L723.75 67.62Z" fill="white"/>
</svg>
