<svg width="200" height="40" viewBox="0 0 200 40" fill="none" xmlns="http://www.w3.org/2000/svg">
<path d="M7.60257 24.1685C6.43295 23.5987 5.84814 22.564 5.84814 21.0645C5.84814 19.565 6.44793 18.5153 7.64756 17.9155C17.9342 11.8275 23.8423 8.31861 25.3718 7.38892C26.9013 6.45924 27.816 5.94939 28.1158 5.85942C28.4458 5.70946 28.8356 5.6345 29.2854 5.6345C30.0952 5.6345 30.9351 6.36927 31.8046 7.83878C32.3746 8.76847 32.6593 9.47325 32.6593 9.95309C32.6593 10.4029 32.5546 10.7928 32.3444 11.1227C32.0745 11.6025 31.4598 12.1574 30.5 12.7872C21.563 18.0655 16.9145 20.8245 16.5547 21.0645L30.5 29.3418C31.07 29.6718 31.4749 29.9417 31.7147 30.1515C32.3746 30.6913 32.7043 31.2761 32.7043 31.9059C32.7043 32.5058 32.4344 33.2404 31.8946 34.1102C31.3849 34.9499 30.92 35.5498 30.5 35.9096C30.0804 36.2695 29.6453 36.4495 29.1955 36.4495C28.5958 36.4495 27.816 36.1645 26.8563 35.5947L7.60257 24.1685ZM35.1764 5.6345C35.1764 4.94471 35.1915 4.43489 35.2214 4.10499C35.2815 3.74511 35.4164 3.34024 35.6263 2.89039C36.0462 2.08065 37.2158 1.67578 39.1351 1.67578C40.9647 1.67578 42.1042 2.08065 42.554 2.89039C42.794 3.34024 42.929 3.74511 42.9589 4.10499C43.0189 4.46488 43.0488 4.9897 43.0488 5.67948V26.5077C43.0488 27.5873 43.1388 28.2772 43.3188 28.577C43.4987 28.8469 43.8887 28.9819 44.4884 28.9819C45.1182 28.9819 45.5381 29.0118 45.748 29.0719C45.9581 29.1018 46.2129 29.2219 46.5127 29.4318C47.1126 29.8215 47.4124 30.8864 47.4124 32.6257C47.4124 34.5151 47.1126 35.6696 46.5127 36.0896C45.7332 36.6294 43.8737 36.7194 40.9345 36.3595C38.6255 36.0597 37.1259 35.2949 36.436 34.0652C35.5964 32.5958 35.1764 30.2566 35.1764 27.0475V5.6345ZM49.8935 16.7909C49.8935 16.1011 49.9083 15.5913 49.9385 15.2614C49.9983 14.9015 50.1332 14.4966 50.3434 14.0468C50.763 13.267 51.9327 12.8771 53.8522 12.8771C55.2917 12.8771 56.3113 13.132 56.9112 13.6419C57.4209 14.0618 57.6908 14.7065 57.721 15.5763C57.7509 15.8762 57.7659 16.311 57.7659 16.8808V32.6257C57.7659 33.3156 57.7358 33.8403 57.676 34.2002C57.6458 34.5302 57.5108 34.92 57.2711 35.3698C56.8811 36.1497 55.7265 36.5394 53.8072 36.5394C51.9178 36.5394 50.763 36.1346 50.3434 35.3248C50.1332 34.875 49.9983 34.4852 49.9385 34.1552C49.9083 33.8252 49.8935 33.3005 49.8935 32.5807V16.7909ZM57.2711 8.46857C57.061 8.88845 56.6712 9.18834 56.1015 9.36828C55.5315 9.54822 54.7667 9.63819 53.8072 9.63819C52.8774 9.63819 52.1277 9.54822 51.558 9.36828C50.988 9.18834 50.5831 8.87344 50.3434 8.42359C50.1332 7.97373 49.9983 7.58387 49.9385 7.25397C49.9083 6.89409 49.8935 6.36926 49.8935 5.67948C49.8935 4.9897 49.9083 4.47988 49.9385 4.14998C49.9983 3.7901 50.1332 3.40023 50.3434 2.98036C50.763 2.17062 51.9327 1.76575 53.8522 1.76575C55.7416 1.76575 56.8811 2.17062 57.2711 2.98036C57.5108 3.43021 57.6458 3.83508 57.676 4.19496C57.7358 4.52487 57.7659 5.03468 57.7659 5.72447C57.7659 6.41425 57.7358 6.93907 57.676 7.29895C57.6458 7.62886 57.5108 8.01872 57.2711 8.46857ZM75.3049 24.6633L81.288 29.6117C82.0377 30.2415 82.5026 30.7212 82.6825 31.0512C82.8924 31.3812 82.9974 31.6961 82.9974 31.9959C82.9974 32.7157 82.5325 33.6903 81.6029 34.92C80.583 36.1796 79.6833 36.8094 78.9038 36.8094C78.2438 36.8094 77.3293 36.3746 76.1597 35.5048L75.7098 35.1899C75.0199 34.6201 73.9554 33.6305 72.5159 32.2208C71.0763 30.7813 69.9816 29.7617 69.2319 29.1618V32.6257C69.2319 33.3156 69.2018 33.8403 69.1419 34.2002C69.1118 34.5302 68.9768 34.92 68.7371 35.3698C68.347 36.1497 67.1925 36.5394 65.2732 36.5394C63.3838 36.5394 62.229 36.1346 61.8093 35.3248C61.5992 34.875 61.4643 34.4852 61.4045 34.1552C61.3743 33.7953 61.3595 33.2706 61.3595 32.5807V5.6345C61.3595 4.94471 61.3743 4.43489 61.4045 4.10499C61.4643 3.74511 61.5992 3.34024 61.8093 2.89039C62.229 2.08065 63.3986 1.67578 65.3182 1.67578C66.7577 1.67578 67.7773 1.9307 68.3772 2.44054C68.8869 2.86041 69.1568 3.52018 69.1869 4.41989C69.2168 4.6898 69.2319 5.10967 69.2319 5.67948V19.9398C69.7717 19.49 70.5815 18.7252 71.6611 17.6456C72.7707 16.5659 73.5955 15.8012 74.1353 15.3513L74.6751 14.9915C75.7246 14.1817 76.6243 13.7768 77.3743 13.7768C78.1239 13.7768 78.9787 14.3916 79.9384 15.6212C80.9281 16.8208 81.4229 17.7655 81.4229 18.4553C81.4229 19.1451 80.868 19.9548 79.7585 20.8845L75.3049 24.6633ZM85.6574 34.4251C85.0877 34.0652 84.8027 33.4955 84.8027 32.7157C84.8027 31.9358 85.3727 30.7514 86.5121 29.1618C86.8421 28.6519 87.3668 28.3971 88.0866 28.3971C88.8365 28.3971 89.841 28.7721 91.1006 29.5217C92.3602 30.2415 93.4999 30.6014 94.5195 30.6014C96.3491 30.6014 97.2636 30.2415 97.2636 29.5217C97.2636 28.952 96.2591 28.532 94.2496 28.2621C92.3602 27.9922 90.4859 27.2875 88.6264 26.1478C87.7569 25.608 87.0371 24.7683 86.4671 23.6286C85.8974 22.459 85.6124 21.0795 85.6124 19.49C85.6124 14.7515 88.8664 12.3823 95.3742 12.3823C97.5036 12.3823 99.6928 12.8921 101.942 13.9118C102.992 14.3916 103.517 14.9915 103.517 15.7112C103.517 16.431 103.187 17.3157 102.527 18.3654C101.867 19.415 101.192 19.9398 100.503 19.9398C100.143 19.9398 99.4679 19.7149 98.4782 19.2651C97.5187 18.8152 96.469 18.5903 95.3292 18.5903C93.56 18.5903 92.6751 18.9202 92.6751 19.58C92.6751 20.4797 93.695 21.0645 95.7341 21.3344C97.7135 21.5443 99.633 22.1141 101.492 23.0438C102.362 23.4637 103.082 24.1984 103.652 25.2481C104.251 26.2678 104.551 27.5574 104.551 29.1169C104.551 30.6763 104.251 32.011 103.652 33.1206C103.082 34.2002 102.272 35.0099 101.222 35.5498C99.303 36.4794 96.8889 36.9443 93.9797 36.9443C91.1006 36.9443 88.3266 36.1047 85.6574 34.4251ZM114.46 29.1169C114.97 29.6268 115.224 30.6763 115.224 32.2658V32.4458C115.224 33.1655 115.195 33.7054 115.134 34.0652C115.105 34.3952 114.955 34.8001 114.685 35.2798C114.235 36.1497 113.095 36.5844 111.266 36.5844C109.466 36.5844 108.267 36.2994 107.667 35.7297C107.097 35.16 106.812 34.0803 106.812 32.4908V32.3108C106.812 31.6209 106.827 31.0962 106.857 30.7363C106.917 30.3764 107.067 29.9716 107.307 29.5217C107.757 28.622 108.881 28.1722 110.681 28.1722C112.51 28.1722 113.77 28.4871 114.46 29.1169ZM125.585 24.7083C125.585 25.9679 126.005 26.9576 126.844 27.6773C127.684 28.3672 128.569 28.712 129.499 28.712C130.458 28.712 131.343 28.4421 132.153 27.9022C132.992 27.3325 133.667 27.0475 134.177 27.0475C135.077 27.0475 136.171 27.8422 137.461 29.4318C138.151 30.3016 138.496 31.0811 138.496 31.771C138.496 32.9107 137.671 33.9753 136.021 34.965C134.312 36.1645 132.212 36.7644 129.723 36.7644C126.934 36.7644 124.25 35.7596 121.671 33.7503C120.441 32.7906 119.437 31.5162 118.657 29.9266C117.877 28.3071 117.487 26.5376 117.487 24.6183C117.487 22.6689 117.877 20.9145 118.657 19.355C119.437 17.7655 120.441 16.491 121.671 15.5313C124.16 13.5519 126.814 12.5622 129.634 12.5622C130.773 12.5622 131.883 12.7272 132.962 13.0571C134.042 13.357 134.837 13.6569 135.347 13.9568L136.066 14.4066C136.606 14.7665 137.026 15.0514 137.326 15.2614C138.106 15.8612 138.496 16.5509 138.496 17.3307C138.496 18.0804 138.181 18.9352 137.551 19.8949C136.471 21.5443 135.437 22.369 134.447 22.369C133.877 22.369 133.067 22.0391 132.018 21.3794C131.478 20.8695 130.698 20.6146 129.678 20.6146C128.689 20.6146 127.759 20.9745 126.889 21.6943C126.02 22.414 125.585 23.4187 125.585 24.7083ZM140.727 24.7083C140.727 21.1095 141.986 18.1404 144.506 15.8012C147.025 13.4619 149.904 12.2923 153.143 12.2923C156.382 12.2923 159.246 13.4619 161.735 15.8012C164.224 18.1104 165.469 21.0645 165.469 24.6633C165.469 27.1526 164.824 29.3717 163.534 31.3211C162.245 33.2404 160.671 34.6651 158.811 35.5947C156.982 36.4945 155.077 36.9443 153.098 36.9443C151.118 36.9443 149.199 36.4645 147.34 35.5048C145.48 34.5151 143.906 33.0756 142.616 31.1862C141.357 29.2669 140.727 27.1076 140.727 24.7083ZM150.129 27.9472C151.089 28.667 152.063 29.0269 153.053 29.0269C154.043 29.0269 155.032 28.6519 156.022 27.9022C157.012 27.1526 157.506 26.0428 157.506 24.5733C157.506 23.1038 157.041 22.0092 156.112 21.2894C155.182 20.5696 154.178 20.2098 153.098 20.2098C152.018 20.2098 151.013 20.5846 150.084 21.3344C149.154 22.0841 148.689 23.1938 148.689 24.6633C148.689 26.1028 149.169 27.1976 150.129 27.9472ZM192.263 17.9155C193.462 18.5153 194.062 19.565 194.062 21.0645C194.062 22.564 193.477 23.5987 192.308 24.1685L173.099 35.5947C171.569 36.5844 170.34 36.6895 169.41 35.9096C168.99 35.5498 168.555 35.0099 168.106 34.2902C167.506 33.3005 167.206 32.5807 167.206 32.1309C167.206 31.681 167.296 31.2912 167.476 30.9613C167.805 30.4513 168.45 29.9115 169.41 29.3418L183.401 21.0645L169.455 12.7872C168.915 12.4573 168.51 12.1874 168.24 11.9774C167.58 11.4076 167.251 10.7928 167.251 10.133C167.251 9.53322 167.506 8.81345 168.016 7.97373C168.945 6.41425 169.815 5.6345 170.625 5.6345C171.344 5.6345 172.154 5.91941 173.054 6.48922L192.263 17.9155Z" fill="black"/>
</svg>
