<svg width="46" height="45" viewBox="0 0 46 45" fill="none" xmlns="http://www.w3.org/2000/svg">
<path d="M40.991 40.4999V40.4986H41V27.2956C41 20.8367 39.6095 15.8611 32.0585 15.8611C28.4283 15.8611 25.9925 17.8532 24.998 19.7414H24.8931V16.4641H17.7336V40.4986H25.1888V28.5974C25.1888 25.4641 25.7828 22.4338 29.6631 22.4338C33.4868 22.4338 33.5435 26.0099 33.5435 28.7981V40.4999H40.991Z" fill="white"/>
<path d="M5.59399 16.4656H13.0581V40.5001H5.59399V16.4656Z" fill="white"/>
<path d="M9.32315 4.5C6.93635 4.5 5 6.43635 5 8.82315C5 11.2099 6.93635 13.1868 9.32315 13.1868C11.71 13.1868 13.6463 11.2099 13.6463 8.82315C13.6445 6.43635 11.7082 4.5 9.32315 4.5Z" fill="white"/>
</svg>
