<svg width="60" height="14" viewBox="0 0 60 14" fill="none" xmlns="http://www.w3.org/2000/svg">
<path d="M8.70502 8.83125C8.70502 10.3521 8.3908 11.7993 7.82471 13.1124C9.59826 13.0561 11.1873 12.2725 12.3064 11.0513C10.5412 8.97024 9.03499 8.19889 8.67557 8.03478C8.69471 8.29783 8.70502 8.56334 8.70502 8.83125" fill="white"/>
<path d="M2.17554 10.0415C2.17844 10.0463 2.18151 10.0509 2.18435 10.0556C2.19767 10.048 2.21116 10.0402 2.22453 10.0325C2.20814 10.0353 2.19205 10.0389 2.17554 10.0415" fill="white"/>
<g opacity="0.139999">
<g opacity="0.139999">
<path opacity="0.139999" d="M2.17554 10.0415C2.17838 10.0463 2.18151 10.0509 2.18435 10.0556C2.19767 10.048 2.21116 10.0402 2.22453 10.0325C2.20808 10.0353 2.19199 10.0389 2.17554 10.0415Z" fill="white"/>
</g>
</g>
<path d="M6.95669 4.42321C6.95669 4.62063 6.94562 4.81536 6.926 5.00751C7.15562 3.96848 6.98004 3.22693 6.69287 2.71394C6.86301 3.25362 6.95669 3.82726 6.95669 4.42321" fill="white"/>
<path d="M8.69071 8.2755C8.68655 8.195 8.68152 8.11479 8.67572 8.03476C8.67549 8.03464 8.67531 8.03464 8.67514 8.03464C8.66718 8.03458 8.67959 8.12726 8.69071 8.2755V8.2755ZM8.70435 8.69874C8.70705 8.53616 8.69926 8.38938 8.69071 8.2755C8.69791 8.4159 8.70254 8.557 8.70435 8.69874ZM8.66003 9.18749C8.51812 9.98981 7.97164 10.7921 6.11583 10.0403C4.56785 9.41319 3.49117 10.1242 2.80103 10.9042C3.96652 12.259 5.69271 13.1176 7.62001 13.1176C7.68874 13.1176 7.75666 13.1145 7.82486 13.1123C8.39095 11.7993 8.70517 10.352 8.70517 8.83123C8.70517 8.78703 8.70488 8.74283 8.70435 8.69874C8.70172 8.85225 8.68972 9.01987 8.66003 9.18749" fill="white"/>
<path d="M0.654142 10.7981C0.612223 10.8406 0.675161 10.827 0.816902 10.767C0.75215 10.7486 0.696062 10.7556 0.654142 10.7981Z" fill="white"/>
<path d="M7.62007 0.406744C6.91342 0.406744 6.23451 0.523837 5.59957 0.736655C5.47153 0.77957 5.34512 0.826056 5.22083 0.876758C2.9005 1.82369 1.26465 4.10134 1.26465 6.76217C1.26465 7.96214 1.59755 9.08425 2.17552 10.0418C2.19185 10.0391 2.20778 10.0356 2.224 10.0328C4.72213 9.60854 6.66565 7.55782 6.92589 5.00758C6.9455 4.81537 6.95656 4.6207 6.95656 4.42329C6.95656 3.82734 6.86289 3.2537 6.69275 2.71401C6.65856 2.60558 6.62244 2.49803 6.5821 2.39253C6.54562 2.29716 6.50587 2.20343 6.46448 2.11063C7.74542 2.79902 10.2121 4.41122 11.6325 7.20215C12.2169 8.35031 12.6299 9.37804 12.9239 10.2637C13.5884 9.25989 13.9755 8.0564 13.9755 6.76217C13.9755 3.25217 11.1301 0.406744 7.62007 0.406744Z" fill="white"/>
<path d="M5.59963 0.736596C5.47152 0.77951 5.34512 0.826055 5.22083 0.876698C2.9005 1.82363 1.26465 4.10128 1.26465 6.76211C1.26465 7.96215 1.59755 9.08419 2.17552 10.0417C2.19185 10.0391 2.20778 10.0356 2.224 10.0328C4.72219 9.60848 6.66564 7.55776 6.92588 5.00752C6.9455 4.81537 6.95657 4.62065 6.95657 4.42323C6.95657 3.82728 6.86289 3.25364 6.69275 2.71395C6.65856 2.60558 6.62244 2.49803 6.5821 2.39247C6.54563 2.2971 6.50587 2.20343 6.46448 2.11057C7.74536 2.79896 10.2121 4.41122 11.6325 7.20209C12.2169 8.35025 12.6299 9.37804 12.9239 10.2637C13.5883 9.25983 13.9755 8.05641 13.9755 6.76211C13.9755 3.25212 11.1301 0.406745 7.62008 0.406745C6.91342 0.406745 6.23456 0.52372 5.59963 0.736596" fill="white"/>
<path d="M50.9507 6.74572C50.9507 7.18324 50.9561 7.62082 50.9476 8.05822C50.9449 8.19996 50.9895 8.25178 51.1307 8.24721C51.4261 8.23802 51.7228 8.25254 52.0173 8.23257C52.3869 8.2074 52.7112 8.05881 52.9498 7.77093C53.3244 7.31872 53.3632 6.80397 53.2207 6.2503C53.0927 5.753 52.5808 5.33831 52.0875 5.28603C51.7748 5.25289 51.463 5.26373 51.1507 5.25307C50.9923 5.24768 50.9452 5.3146 50.948 5.46729C50.9559 5.89322 50.9507 6.31956 50.9507 6.74572ZM49.8704 6.76428C49.8704 6.00188 49.8738 5.23943 49.8672 4.47709C49.866 4.33272 49.9141 4.28904 50.0529 4.29091C50.7133 4.29952 51.375 4.27727 52.0339 4.31076C53.052 4.36263 53.8238 4.83534 54.2401 5.78292C54.4326 6.22132 54.4817 6.69262 54.3915 7.18359C54.2257 8.08556 53.7031 8.67659 52.8803 9.02454C52.6085 9.13958 52.3172 9.21118 52.0209 9.21639C51.3549 9.22804 50.6886 9.2216 50.0225 9.22746C49.9032 9.22851 49.8672 9.18735 49.868 9.06862C49.8726 8.3006 49.8704 7.53241 49.8704 6.76428" fill="white"/>
<path d="M34.8835 4.31423C35.357 4.33935 35.774 4.5089 36.0956 4.87727C36.3915 5.21632 36.4775 5.62035 36.4449 6.04944C36.397 6.6801 36.1017 7.15123 35.4995 7.40368C35.3761 7.45544 35.43 7.53682 35.4802 7.60977C35.7397 7.98733 36 8.3642 36.2599 8.74159C36.3464 8.86735 36.4291 8.99604 36.5194 9.1191C36.584 9.20716 36.5453 9.22566 36.4604 9.2256C36.1131 9.22536 35.766 9.22203 35.4188 9.22777C35.3226 9.22929 35.2892 9.16172 35.2512 9.10505C34.9582 8.66806 34.666 8.2303 34.382 7.7874C34.3087 7.67294 34.2254 7.62563 34.0907 7.63488C33.9377 7.64542 33.7835 7.63676 33.6298 7.63734C33.4 7.6381 33.3998 7.63845 33.3997 7.86023C33.3996 8.26403 33.3958 8.66788 33.402 9.07162C33.4038 9.19012 33.3682 9.23175 33.2472 9.22812C32.9913 9.22039 32.7349 9.22173 32.4789 9.22753C32.3651 9.22999 32.3196 9.20007 32.3205 9.07484C32.3263 8.34119 32.3269 7.60748 32.3204 6.87389C32.3191 6.72741 32.3742 6.68807 32.5096 6.68894C33.1244 6.69304 33.7391 6.69515 34.3538 6.68812C34.5788 6.68549 34.8091 6.69696 35.0179 6.57624C35.2973 6.41465 35.3986 6.16577 35.3305 5.78399C35.2854 5.5313 35.073 5.34612 34.7875 5.29372C34.4141 5.22522 34.038 5.26286 33.6632 5.25636C33.282 5.24975 32.9005 5.25121 32.5192 5.25671C32.3796 5.25871 32.3096 5.22405 32.3201 5.06538C32.3333 4.86714 32.3318 4.66697 32.3204 4.46856C32.3126 4.33203 32.3629 4.28964 32.4935 4.29122C32.9033 4.29602 33.3132 4.29304 33.723 4.29304L34.8835 4.31423Z" fill="white"/>
<path d="M57.6197 4.21967C58.3309 4.20919 58.9291 4.49935 59.4847 4.90566C59.5583 4.95964 59.5762 5.00765 59.4925 5.07826C59.3064 5.23516 59.1251 5.39828 58.9478 5.56502C58.8692 5.63884 58.8132 5.63123 58.7302 5.56771C58.4508 5.35407 58.1366 5.22199 57.7846 5.17328C57.5865 5.14582 57.3973 5.16731 57.2127 5.22749C57.0337 5.28587 56.9042 5.46508 56.9087 5.61905C56.9145 5.81882 57.0513 5.97537 57.2755 6.06225C57.6358 6.20171 58.0199 6.26038 58.3816 6.39433C58.6953 6.51066 59.0077 6.62998 59.2393 6.88852C59.57 7.25772 59.5983 7.69354 59.4998 8.14822C59.3783 8.70962 58.9951 9.0328 58.4699 9.19515C58.1653 9.28929 57.8458 9.32553 57.5252 9.29327C56.8989 9.23045 56.3155 9.05095 55.8174 8.64715C55.6547 8.51525 55.654 8.50863 55.817 8.38006C55.9817 8.25026 56.1488 8.1231 56.3084 7.98733C56.3984 7.91063 56.4599 7.90226 56.5711 7.97351C57.0186 8.26004 57.5074 8.3978 58.0447 8.31736C58.3408 8.27304 58.5167 8.05911 58.4686 7.7703C58.4286 7.53113 58.2134 7.46808 58.0286 7.39144C57.6668 7.24103 57.2768 7.17915 56.9065 7.05333C56.5681 6.93846 56.2421 6.79017 56.0492 6.47887C55.7683 6.02537 55.7669 5.53293 55.9978 5.0631C56.326 4.39478 56.9431 4.23887 57.6197 4.21967Z" fill="white"/>
<path d="M18.1337 9.29995C17.419 9.27677 16.7588 9.092 16.1915 8.63615C16.0463 8.51964 16.0471 8.50588 16.1944 8.38985C16.368 8.25296 16.5455 8.12047 16.713 7.97662C16.7962 7.90514 16.8496 7.90338 16.9463 7.9655C17.3988 8.25636 17.891 8.39845 18.4346 8.31713C18.7309 8.27293 18.9102 8.05472 18.859 7.76966C18.8164 7.53255 18.6029 7.46797 18.4177 7.3911C18.0557 7.24087 17.6657 7.17904 17.2953 7.05311C16.9569 6.93806 16.6322 6.78918 16.4383 6.47818C16.1555 6.02415 16.1568 5.53165 16.3886 5.06304C16.7216 4.39011 17.3409 4.22729 18.0289 4.22155C18.731 4.21564 19.3247 4.50258 19.8747 4.90626C19.9507 4.96205 19.9603 5.0117 19.8796 5.08002C19.694 5.23763 19.5137 5.40168 19.3345 5.56655C19.2658 5.62972 19.2147 5.64043 19.1321 5.57662C18.8492 5.35865 18.531 5.22188 18.1724 5.17346C17.9742 5.14665 17.7851 5.16772 17.6006 5.22797C17.4214 5.28652 17.2926 5.46637 17.2977 5.62023C17.3044 5.82029 17.4409 5.97567 17.6656 6.06249C18.026 6.20178 18.4101 6.26056 18.7717 6.39446C19.0856 6.51073 19.3979 6.63046 19.6291 6.88923C19.9593 7.25884 19.9887 7.69443 19.8888 8.14986C19.7656 8.71092 19.3827 9.03339 18.8574 9.19545C18.6257 9.26699 18.382 9.31096 18.1337 9.29995Z" fill="white"/>
<path d="M25.2958 6.76907C25.2958 7.53129 25.2925 8.29363 25.2988 9.05579C25.2999 9.19226 25.2609 9.23482 25.1248 9.22868C24.8918 9.21802 24.6578 9.21896 24.4248 9.22827C24.2806 9.23406 24.2252 9.19542 24.2281 9.03893C24.2379 8.50996 24.2324 7.98075 24.2315 7.45184C24.2312 7.2392 24.2244 7.23346 24.0091 7.23346C23.1266 7.23323 22.2443 7.23346 21.3618 7.23329C21.1238 7.23323 21.1238 7.23282 21.1238 6.98956C21.1238 6.15901 21.1278 5.32853 21.1202 4.49798C21.1187 4.34266 21.1589 4.28353 21.3182 4.29032C21.5569 4.30045 21.7967 4.3005 22.0354 4.29002C22.1773 4.28388 22.2078 4.34178 22.2065 4.47035C22.201 4.9937 22.209 5.51705 22.2011 6.04028C22.1989 6.18571 22.2383 6.24385 22.3899 6.24227C22.9478 6.23653 23.5058 6.2367 24.0636 6.24232C24.2042 6.24379 24.2353 6.18477 24.234 6.05755C24.2288 5.52864 24.2361 4.99944 24.2289 4.47047C24.227 4.33364 24.2749 4.28827 24.4057 4.29137C24.6447 4.29687 24.8841 4.29992 25.1229 4.2902C25.2589 4.28458 25.2993 4.33077 25.2983 4.4652C25.2931 5.23309 25.2958 6.00111 25.2958 6.76907Z" fill="white"/>
<path d="M46.0381 5.62683C45.8782 6.02466 45.7329 6.3856 45.5881 6.74683C45.3482 7.34483 45.1083 7.94294 44.8692 8.54117C44.8 8.71436 44.7276 8.88683 44.6672 9.06306C44.6293 9.17395 44.5757 9.23208 44.448 9.22828C44.1749 9.22002 43.9012 9.22038 43.6281 9.22799C43.4886 9.23185 43.458 9.18771 43.5125 9.06277C43.6663 8.71055 43.817 8.35687 43.9681 8.00342C44.2343 7.37967 44.5 6.75573 44.7658 6.13174C45.0181 5.53913 45.27 4.94623 45.5222 4.35344C45.5545 4.27774 45.6091 4.23998 45.6943 4.24068C45.9448 4.24267 46.1954 4.2425 46.446 4.24097C46.5236 4.24051 46.5662 4.26984 46.5983 4.3456C46.8717 4.99119 47.1506 5.63433 47.4269 6.27852C47.6942 6.90181 47.9604 7.52556 48.2271 8.14903C48.3671 8.4763 48.5066 8.8037 48.6483 9.13015C48.6788 9.20059 48.6532 9.2243 48.5853 9.22436C48.2493 9.22459 47.9132 9.22611 47.5774 9.22436C47.495 9.22395 47.4664 9.16066 47.4397 9.0938C47.1677 8.41138 46.8935 7.72966 46.6211 7.0473C46.445 6.6062 46.271 6.16435 46.0954 5.72303C46.0874 5.70277 46.0731 5.68503 46.0381 5.62683Z" fill="white"/>
<path d="M38.699 9.2275C38.8074 9.22984 38.8367 9.18546 38.8329 9.08547V8.62248L38.825 8.26868C38.8215 8.10615 38.8802 7.94837 38.9894 7.82782L39.3808 7.39534C40.2522 6.41749 41.1243 5.43982 41.9942 4.46051C42.0284 4.42192 42.1035 4.38855 42.0692 4.32316C42.043 4.27339 41.976 4.29423 41.9264 4.29406C41.6246 4.29271 41.3227 4.29728 41.021 4.29131C40.9183 4.28932 40.8196 4.3303 40.7498 4.40588C40.1774 5.02595 39.6001 5.64145 39.025 6.25906C38.9784 6.30894 38.9291 6.38646 38.8641 6.3641C38.7999 6.34191 38.8329 6.25215 38.8327 6.19279C38.8305 5.61247 38.8291 5.03204 38.8333 4.45167C38.8342 4.33609 38.8019 4.28744 38.6788 4.29113L37.9273 4.29172C37.7983 4.28891 37.7513 4.32989 37.7525 4.46777C37.7592 5.2301 37.7557 5.99256 37.7557 6.75507C37.7557 7.52315 37.7584 8.29128 37.753 9.05935C37.7522 9.18359 37.7826 9.23218 37.9133 9.22803L38.699 9.2275Z" fill="white"/>
<path d="M40.7014 7.35511C40.5423 7.55428 40.3747 7.7469 40.2072 7.93899C40.144 8.01159 40.1436 8.07617 40.1983 8.1524C40.4357 8.48389 40.6722 8.81597 40.9059 9.14997C40.938 9.19593 40.9684 9.22527 41.0274 9.22497C41.4194 9.2238 41.8115 9.22439 42.2499 9.22439C42.0905 9.00613 41.9581 8.82457 41.8253 8.64331C41.5139 8.21855 41.2025 7.79409 40.8911 7.36927C40.8583 7.32449 40.8276 7.29357 40.7925 7.29357C40.7657 7.29357 40.7362 7.31161 40.7014 7.35511" fill="white"/>
<path d="M21.1218 8.34057C21.1275 8.59015 21.1282 8.84015 21.1212 9.08985C21.1182 9.19822 21.1625 9.22943 21.2609 9.2265C21.3915 9.22275 21.5223 9.22568 21.653 9.22574C21.6959 9.22574 21.7391 9.22574 21.7823 9.22562C21.8812 9.22533 21.9801 9.22509 22.079 9.22632C22.1484 9.22703 22.2042 9.21842 22.2039 9.12925C22.2025 8.8511 22.2035 8.573 22.2023 8.29473C22.2017 8.20211 22.1528 8.16996 22.0603 8.17172C21.8048 8.17646 21.549 8.17716 21.2934 8.17172C21.29 8.1716 21.2868 8.1716 21.2835 8.1716C21.167 8.1716 21.119 8.21768 21.1218 8.34057Z" fill="white"/>
<path d="M29.1074 5.65053L27.7013 9.06832C27.6598 9.1809 27.6027 9.23172 27.4784 9.22809C27.2111 9.22048 26.9433 9.22101 26.676 9.22774C26.5378 9.23113 26.4872 9.19964 26.5503 9.0562C26.7321 8.64251 26.9073 8.22589 27.0853 7.8105C27.35 7.19289 27.6158 6.57551 27.8794 5.9572C28.1074 5.42208 28.3332 4.88591 28.5596 4.35015C28.5924 4.27264 28.6497 4.2402 28.7332 4.24079C28.9836 4.2426 29.234 4.24313 29.4844 4.24084C29.5641 4.24014 29.6035 4.27398 29.6348 4.34793C29.8795 4.92508 30.1304 5.49983 30.3766 6.07652C30.6383 6.68944 30.8962 7.30395 31.1572 7.91723C31.3274 8.31734 31.4977 8.71756 31.6739 9.11504C31.7158 9.20936 31.6789 9.22505 31.5997 9.22516C31.281 9.22534 30.9624 9.22458 30.6436 9.22628C30.5571 9.22674 30.511 9.18576 30.4796 9.1069L29.1074 5.65053Z" fill="white"/>
</svg>
