<svg width="87" height="33" viewBox="0 0 87 33" fill="none" xmlns="http://www.w3.org/2000/svg">
<path d="M9.60109 24.44C9.38776 25.1333 9.20109 25.8533 9.04109 26.6C8.90776 27.32 8.77443 28.04 8.64109 28.76C8.69443 28.44 8.73443 28.12 8.76109 27.8C8.78776 27.4533 8.84109 27.0933 8.92109 26.72C8.97443 26.4267 9.04109 26.16 9.12109 25.92C9.20109 25.68 9.24109 25.3867 9.24109 25.04C9.24109 24.8 9.28109 24.5733 9.36109 24.36C9.46776 24.1467 9.54776 23.92 9.60109 23.68C9.46776 23.7333 9.38776 23.8267 9.36109 23.96C9.36109 24.0933 9.33443 24.2 9.28109 24.28C9.17443 25.0267 9.01443 25.7867 8.80109 26.56C8.58776 27.3333 8.46776 28.12 8.44109 28.92C8.44109 29.1867 8.40109 29.4533 8.32109 29.72C8.40109 29.8267 8.41443 30 8.36109 30.24C8.33443 30.4533 8.36109 30.5867 8.44109 30.64C8.41443 30.72 8.38776 30.8133 8.36109 30.92C8.33443 31 8.32109 31.0933 8.32109 31.2C8.10776 31.4133 7.92109 31.6533 7.76109 31.92C7.62776 32.2133 7.40109 32.4133 7.08109 32.52C6.84109 32.4667 6.64109 32.36 6.48109 32.2C6.34776 32.0667 6.20109 31.9333 6.04109 31.8C6.04109 31.6667 6.00109 31.52 5.92109 31.36C5.86776 31.2 5.80109 31.1467 5.72109 31.2C5.64109 30.88 5.54776 30.5467 5.44109 30.2C5.36109 29.8533 5.32109 29.4533 5.32109 29C5.32109 28.7333 5.32109 28.48 5.32109 28.24C5.34776 27.9733 5.37443 27.6933 5.40109 27.4C5.48109 26.0933 5.65443 24.84 5.92109 23.64C6.21443 22.4133 6.53443 21.2267 6.88109 20.08C7.25443 18.9067 7.62776 17.76 8.00109 16.64C8.37443 15.52 8.70776 14.4 9.00109 13.28C8.86776 13.44 8.70776 13.6 8.52109 13.76C8.36109 13.8933 8.18776 14.0533 8.00109 14.24C7.73443 14.5067 7.44109 14.7733 7.12109 15.04C6.82776 15.28 6.50776 15.5333 6.16109 15.8C5.94776 15.96 5.70776 16.12 5.44109 16.28C5.17443 16.4133 4.89443 16.52 4.60109 16.6C4.30776 16.68 4.00109 16.7067 3.68109 16.68C3.38776 16.6267 3.10776 16.4933 2.84109 16.28C2.36109 15.7733 1.97443 15.12 1.68109 14.32C1.38776 13.4933 1.16109 12.6 1.00109 11.64C0.841094 10.68 0.734427 9.68 0.681094 8.64C0.654427 7.6 0.654427 6.6 0.681094 5.64C0.70776 5.18667 0.734427 4.78667 0.761094 4.44C0.814427 4.06667 0.98776 3.77333 1.28109 3.56C2.10776 3.96 2.66776 4.58667 2.96109 5.44C3.28109 6.29333 3.50776 7.24 3.64109 8.28C3.72109 8.81333 3.70776 9.36 3.60109 9.92C3.52109 10.4533 3.45443 10.9867 3.40109 11.52C3.29443 12.24 3.29443 12.9333 3.40109 13.6C3.50776 14.24 3.70776 14.8 4.00109 15.28C4.48109 15.2267 4.89443 15.04 5.24109 14.72C5.58776 14.3733 5.92109 14.0133 6.24109 13.64C6.93443 12.7067 7.60109 11.76 8.24109 10.8C8.90776 9.81333 9.58776 8.81333 10.2811 7.8C10.5211 7.45333 10.7211 7.12 10.8811 6.8C11.0411 6.45333 11.1478 6.04 11.2011 5.56C11.1478 5.50667 11.0678 5.48 10.9611 5.48C10.8811 5.48 10.8144 5.45333 10.7611 5.4C10.7344 5.05333 10.8011 4.8 10.9611 4.64C11.1478 4.45333 11.3611 4.29333 11.6011 4.16C11.8144 4.21333 12.0144 4.29333 12.2011 4.4C12.3878 4.50667 12.5878 4.56 12.8011 4.56C12.8544 4.56 12.9078 4.54667 12.9611 4.52C13.0411 4.46666 13.1078 4.44 13.1611 4.44C13.7211 4.52 14.1344 4.84 14.4011 5.4C14.6678 5.93333 14.7878 6.53333 14.7611 7.2C14.7611 7.44 14.7611 7.70667 14.7611 8C14.7878 8.26667 14.7878 8.50667 14.7611 8.72C14.7078 9.41333 14.5744 10.0667 14.3611 10.68C14.1744 11.2933 14.0011 11.8133 13.8411 12.24C13.7878 12.2933 13.7344 12.3067 13.6811 12.28C13.6278 12.2533 13.5744 12.2667 13.5211 12.32C13.4678 12.56 13.3878 12.76 13.2811 12.92C13.3078 13.2133 13.2411 13.5333 13.0811 13.88C12.9478 14.2 12.8544 14.5333 12.8011 14.88C12.7211 15.0133 12.6544 15.0933 12.6011 15.12C12.5211 15.6533 12.3878 16.2 12.2011 16.76C12.0144 17.32 11.8544 17.8933 11.7211 18.48C11.6678 18.5067 11.6144 18.5467 11.5611 18.6C11.5078 18.6533 11.4678 18.7067 11.4411 18.76C11.4144 19.0533 11.3078 19.3867 11.1211 19.76C10.9611 20.1067 10.8144 20.4667 10.6811 20.84C10.4411 21.48 10.1878 22.16 9.92109 22.88C9.68109 23.6 9.48109 24.3333 9.32109 25.08C9.37443 25 9.41443 24.9067 9.44109 24.8C9.46776 24.6667 9.52109 24.5467 9.60109 24.44ZM10.7611 21.52C10.7344 21.8133 10.6544 22.1333 10.5211 22.48C10.4144 22.8267 10.3078 23.1467 10.2011 23.44C10.1744 23.92 10.1078 24.3867 10.0011 24.84C9.92109 25.2667 9.81443 25.68 9.68109 26.08C9.49443 27.28 9.24109 28.4667 8.92109 29.64C8.94776 29.24 9.00109 28.84 9.08109 28.44C9.16109 28.0133 9.21443 27.5867 9.24109 27.16C9.26776 26.7867 9.32109 26.4667 9.40109 26.2C9.50776 25.9067 9.53443 25.6267 9.48109 25.36C9.61443 24.9867 9.70776 24.6267 9.76109 24.28C9.84109 23.9067 9.98776 23.5733 10.2011 23.28C10.2278 23.2267 10.2144 23.1867 10.1611 23.16C10.1078 23.1333 10.1078 23.1067 10.1611 23.08C10.2944 22.52 10.4411 21.96 10.6011 21.4C10.7878 20.84 10.9878 20.2933 11.2011 19.76C11.1744 20.4267 11.0411 21.08 10.8011 21.72C10.7744 21.72 10.7744 21.6933 10.8011 21.64C10.8278 21.5867 10.8144 21.5467 10.7611 21.52ZM12.4411 16.12C12.4944 16.0933 12.4944 16.1467 12.4411 16.28C12.4144 16.3867 12.4011 16.4667 12.4011 16.52C12.3478 16.4667 12.3344 16.4 12.3611 16.32C12.3878 16.24 12.4144 16.1733 12.4411 16.12ZM10.1611 19C10.1611 19 10.1878 19.0267 10.2411 19.08C10.1878 19.0267 10.1611 19 10.1611 19ZM8.64109 28.76V28.88V28.76ZM25.577 9.76C25.6837 8.56 25.8304 7.62667 26.017 6.96C26.2304 6.26667 26.4437 5.76 26.657 5.44C26.8704 5.12 27.057 4.94667 27.217 4.92C27.377 4.89333 27.4704 4.93333 27.497 5.04C27.5504 5.06667 27.5637 5.04 27.537 4.96C27.537 4.85333 27.537 4.77333 27.537 4.72C27.6704 4.74667 27.7237 4.85333 27.697 5.04C27.6704 5.22667 27.7237 5.34667 27.857 5.4C27.9904 5.42666 28.017 5.4 27.937 5.32C27.8837 5.24 27.9104 5.2 28.017 5.2C28.0704 5.17333 28.1104 5.2 28.137 5.28C28.1637 5.36 28.217 5.42667 28.297 5.48C28.3504 5.96 28.4037 6.48 28.457 7.04C28.5104 7.6 28.5237 8.17333 28.497 8.76C28.497 9.08 28.4704 9.42667 28.417 9.8C28.3904 10.1733 28.377 10.52 28.377 10.84C28.2704 11.3733 28.217 11.8667 28.217 12.32C28.217 12.7733 28.1504 13.2533 28.017 13.76C28.017 13.6 28.017 13.4533 28.017 13.32C28.017 13.1867 28.0037 13.0533 27.977 12.92C27.9237 13.1067 27.897 13.28 27.897 13.44C27.897 13.6 27.897 13.76 27.897 13.92C27.9237 14.08 27.937 14.2533 27.937 14.44C27.9637 14.6 27.9637 14.7733 27.937 14.96C27.937 15.0667 27.937 15.0933 27.937 15.04C27.937 14.9867 27.9104 14.9467 27.857 14.92C27.857 15.48 27.7904 15.8667 27.657 16.08C27.5237 16.2933 27.4837 16.4533 27.537 16.56C27.377 17.2533 27.2837 17.92 27.257 18.56C27.257 19.1733 27.1504 19.8667 26.937 20.64C26.9104 20.8 26.857 20.9733 26.777 21.16C26.7237 21.32 26.6837 21.48 26.657 21.64C26.6037 21.7733 26.5504 21.9333 26.497 22.12C26.4437 22.3067 26.377 22.4933 26.297 22.68C26.137 23.2133 25.9637 23.72 25.777 24.2C25.5904 24.6533 25.3904 25.16 25.177 25.72C25.097 26.0133 24.977 26.3067 24.817 26.6C24.6837 26.8667 24.577 27.1467 24.497 27.44C24.3104 27.7333 24.1237 28.0133 23.937 28.28C23.777 28.52 23.6304 28.7067 23.497 28.84C23.3104 28.8933 23.1104 28.9733 22.897 29.08C22.6837 29.16 22.4704 29.2267 22.257 29.28C21.9104 29.4667 21.577 29.6133 21.257 29.72C20.9637 29.8 20.5904 29.8667 20.137 29.92C19.657 30.0533 19.257 30.0133 18.937 29.8C18.617 29.56 18.257 29.28 17.857 28.96C17.8837 28.88 17.8704 28.84 17.817 28.84C17.7904 28.8133 17.737 28.7733 17.657 28.72C16.9904 27.7333 16.537 26.5733 16.297 25.24C16.0837 23.88 15.9504 22.44 15.897 20.92C15.8704 20.3067 15.8437 19.68 15.817 19.04C15.817 18.3733 15.8304 17.7333 15.857 17.12C15.857 16.6133 15.8704 16.12 15.897 15.64C15.9504 15.1333 15.9637 14.6267 15.937 14.12C15.9104 13.7467 15.8837 13.36 15.857 12.96C15.857 12.56 15.8704 12.1867 15.897 11.84L15.977 11.36C15.897 11.2533 15.857 11.12 15.857 10.96C15.857 10.6933 15.937 10.4933 16.097 10.36C16.2837 10.2267 16.417 10.0667 16.497 9.88C16.6837 9.88 16.817 9.89333 16.897 9.92C16.977 9.94667 17.017 9.94667 17.017 9.92C17.0437 9.86667 17.097 9.82667 17.177 9.8C17.417 9.85333 17.6437 9.88 17.857 9.88C18.0704 9.85333 18.337 9.89333 18.657 10C18.8704 10.1067 19.1237 10.2267 19.417 10.36C19.7104 10.4933 19.9237 10.6267 20.057 10.76C20.137 10.84 20.217 10.96 20.297 11.12C20.4037 11.28 20.497 11.4533 20.577 11.64C20.6837 11.8267 20.7637 12.0267 20.817 12.24C20.897 12.4267 20.937 12.5867 20.937 12.72C20.9637 13.4667 20.9637 14.3067 20.937 15.24C20.9104 16.1467 20.8704 17.0667 20.817 18C20.7904 18.9333 20.7637 19.8533 20.737 20.76C20.737 21.6667 20.7637 22.4667 20.817 23.16C20.9237 24.6267 21.137 25.4267 21.457 25.56C21.777 25.6933 22.137 25.4 22.537 24.68C22.9637 23.9333 23.3904 22.8933 23.817 21.56C24.2437 20.2 24.617 18.7733 24.937 17.28C25.257 15.7867 25.4837 14.36 25.617 13C25.7504 11.6133 25.737 10.5333 25.577 9.76ZM46.4952 1.44C46.4952 1.73333 46.4418 2.02667 46.3352 2.32C46.2552 2.61333 46.1752 2.92 46.0952 3.24C45.9618 3.56 45.8685 3.96 45.8152 4.44C45.7885 4.89333 45.7218 5.32 45.6152 5.72C45.5352 5.90667 45.4285 6.14667 45.2952 6.44C45.1618 6.73333 45.1218 7.02667 45.1752 7.32C45.1218 7.32 45.0952 7.30667 45.0952 7.28C45.0952 7.22667 45.0685 7.2 45.0152 7.2C44.8818 7.65333 44.8018 7.92 44.7752 8C44.7752 8.08 44.7752 8.13333 44.7752 8.16C44.7752 8.18666 44.7618 8.28 44.7352 8.44C44.7085 8.57333 44.6285 8.93333 44.4952 9.52C44.4952 9.46667 44.4952 9.41333 44.4952 9.36C44.4952 9.30667 44.4685 9.25333 44.4152 9.2C44.2552 9.46667 44.2018 9.8 44.2552 10.2C44.3085 10.5733 44.2818 10.8667 44.1752 11.08C44.2018 11.1067 44.2552 11.1467 44.3352 11.2C44.4152 11.2533 44.4285 11.3733 44.3752 11.56C44.2952 11.5067 44.2685 11.44 44.2952 11.36C44.3218 11.28 44.2818 11.2267 44.1752 11.2C44.1485 11.44 44.1485 11.68 44.1752 11.92C44.2018 12.16 44.2018 12.4267 44.1752 12.72C44.0952 12.48 44.0685 12.2 44.0952 11.88C44.1218 11.56 44.0952 11.24 44.0152 10.92C43.8818 11.0533 43.8418 11.2267 43.8952 11.44C43.9752 11.6533 44.0285 11.8667 44.0552 12.08C44.0552 12.2667 44.0285 12.44 43.9752 12.6C43.9485 12.76 43.9885 12.9067 44.0952 13.04C44.0418 13.0933 44.0018 13.1067 43.9752 13.08C43.9752 13.0267 43.9752 13.08 43.9752 13.24C43.9752 13.3467 43.9885 13.3733 44.0152 13.32C44.0418 13.24 44.0685 13.24 44.0952 13.32C44.1218 13.3733 44.1218 13.4 44.0952 13.4C44.0685 13.4 44.0552 13.4133 44.0552 13.44C44.0285 13.5733 44.0418 13.64 44.0952 13.64C44.1485 13.6133 44.1618 13.64 44.1352 13.72C44.1618 14.3333 44.1618 15.0133 44.1352 15.76C44.1618 16.5333 44.2152 17.2667 44.2952 17.96C44.4018 18.6267 44.4552 19.3867 44.4552 20.24C44.5085 20.2933 44.5352 20.28 44.5352 20.2C44.5352 20.9733 44.5085 21.76 44.4552 22.56C44.4285 23.3333 44.2685 23.9733 43.9752 24.48C43.7352 24.6133 43.5752 24.8133 43.4952 25.08C43.4152 25.3467 43.2552 25.5733 43.0152 25.76C42.9618 25.7867 42.8418 25.8133 42.6552 25.84C42.4685 25.8667 42.3352 25.8933 42.2552 25.92C42.1218 26.0533 42.0152 26.1467 41.9352 26.2C41.8818 26.2533 41.7752 26.28 41.6152 26.28C41.4552 26.4133 41.3085 26.5467 41.1752 26.68C41.0685 26.7867 40.9352 26.88 40.7752 26.96C40.6418 27.04 40.4818 27.0933 40.2952 27.12C40.1352 27.1467 39.9352 27.1067 39.6952 27C39.4018 26.8933 39.1485 26.7067 38.9352 26.44C38.7218 26.1733 38.5485 25.88 38.4152 25.56C38.2818 25.2133 38.1618 24.8533 38.0552 24.48C37.9485 24.1067 37.8418 23.7333 37.7352 23.36C37.5218 22.64 37.2952 21.88 37.0552 21.08C36.8152 20.2533 36.5885 19.4267 36.3752 18.6C36.1618 17.7467 35.9618 16.9067 35.7752 16.08C35.5885 15.2533 35.4552 14.4667 35.3752 13.72C35.2685 14.4667 35.2285 15.2 35.2552 15.92C35.3085 16.64 35.3485 17.4133 35.3752 18.24C35.3752 19.0133 35.4285 19.8 35.5352 20.6C35.6685 21.4 35.7352 22.2 35.7352 23C35.7618 23.4533 35.7752 23.8933 35.7752 24.32C35.7752 24.7467 35.7752 25.1867 35.7752 25.64L35.6952 27.68C35.6685 27.92 35.6285 28.0933 35.5752 28.2C35.5218 28.3067 35.4552 28.4 35.3752 28.48C35.3218 28.5333 35.2552 28.6 35.1752 28.68C35.1218 28.76 35.0685 28.9067 35.0152 29.12C34.8285 29.4133 34.6418 29.7067 34.4552 30C34.2952 30.2933 34.1085 30.5867 33.8952 30.88C33.4685 31.0133 33.0552 31.1333 32.6552 31.24C32.2552 31.3467 31.8285 31.2933 31.3752 31.08C31.0818 30.8933 30.8552 30.6267 30.6952 30.28C30.5352 29.9067 30.6552 29.5733 31.0552 29.28C31.1885 27.1467 31.2418 24.88 31.2152 22.48C31.1885 20.08 31.2952 17.68 31.5352 15.28C31.5885 14.64 31.6552 13.9733 31.7352 13.28C31.8418 12.5867 31.9485 11.9067 32.0552 11.24C32.1885 10.5733 32.3218 9.94667 32.4552 9.36C32.6152 8.74667 32.7885 8.22667 32.9752 7.8C33.1085 7.53333 33.2552 7.28 33.4152 7.04C33.6018 6.8 33.8152 6.61333 34.0552 6.48C34.1885 6.53333 34.2418 6.62667 34.2152 6.76C34.2152 6.86667 34.2418 6.98667 34.2952 7.12C34.5618 7.17333 34.7218 7.08 34.7752 6.84C34.8285 6.57333 34.9085 6.37333 35.0152 6.24C35.1485 6.29333 35.1885 6.42667 35.1352 6.64C35.0818 6.85333 35.0952 7.01333 35.1752 7.12C35.2818 7.28 35.4152 7.46667 35.5752 7.68C35.7618 7.89333 35.9218 8.13333 36.0552 8.4C36.2685 8.85333 36.4152 9.38667 36.4952 10C36.5752 10.5867 36.6818 11.1467 36.8152 11.68C36.9218 12.1867 37.0552 12.7067 37.2152 13.24C37.4018 13.7733 37.5618 14.3067 37.6952 14.84C37.9352 15.9867 38.2285 17.0533 38.5752 18.04C38.7085 18.5733 38.8685 19.0933 39.0552 19.6C39.2685 20.08 39.4152 20.6 39.4952 21.16C39.5752 21.7467 39.6552 22.32 39.7352 22.88C39.8418 23.44 39.9618 24 40.0952 24.56C40.2818 24.56 40.4018 24.48 40.4552 24.32C40.5352 24.1333 40.5752 23.92 40.5752 23.68C40.6018 23.44 40.6018 23.1867 40.5752 22.92C40.5752 22.6267 40.5885 22.36 40.6152 22.12C40.7485 21 40.8285 19.9067 40.8552 18.84C40.8818 17.7733 40.9485 16.7333 41.0552 15.72C41.1618 14.4133 41.2552 13.08 41.3352 11.72C41.4152 10.36 41.5352 9.04 41.6952 7.76C41.8552 6.48 42.0685 5.26667 42.3352 4.12C42.6018 2.97333 42.9885 1.93333 43.4952 0.999998C43.6285 0.839998 43.8552 0.719998 44.1752 0.639997C44.5218 0.559999 44.8152 0.453332 45.0552 0.319999C45.0818 0.293333 45.1218 0.333332 45.1752 0.439998C45.2018 0.306664 45.2285 0.226665 45.2552 0.199998C45.3085 0.173332 45.4018 0.133332 45.5352 0.0799975C45.4818 0.213332 45.5085 0.333332 45.6152 0.439998C45.7218 0.546665 45.7885 0.666665 45.8152 0.799998C45.8418 0.879998 45.8552 0.879998 45.8552 0.799998C45.8818 0.719999 45.8952 0.653332 45.8952 0.599998C46.0018 0.706665 46.0285 0.866665 45.9752 1.08C45.9218 1.26666 45.9618 1.41333 46.0952 1.52C46.2018 1.54666 46.2685 1.52 46.2952 1.44C46.3485 1.33333 46.4152 1.33333 46.4952 1.44ZM44.5352 18.44C44.3752 17.9067 44.3085 17.2667 44.3352 16.52C44.3885 15.7733 44.4018 15.1067 44.3752 14.52C44.4552 15 44.4952 15.6133 44.4952 16.36C44.4952 17.08 44.5085 17.7733 44.5352 18.44ZM44.5752 16.92C44.5218 16.8133 44.5085 16.6667 44.5352 16.48C44.5618 16.2933 44.5752 16.1733 44.5752 16.12C44.6552 16.2 44.6818 16.3333 44.6552 16.52C44.6285 16.68 44.6018 16.8133 44.5752 16.92ZM44.3752 13.8C44.2952 13.8 44.2552 13.76 44.2552 13.68C44.2818 13.5733 44.2685 13.48 44.2152 13.4C44.2952 13.4267 44.3352 13.4933 44.3352 13.6C44.3618 13.68 44.3752 13.7467 44.3752 13.8ZM44.8952 9.4C44.8152 9.4 44.7618 9.36 44.7352 9.28C44.7352 9.2 44.7485 9.14667 44.7752 9.12C44.8285 9.14667 44.8552 9.18667 44.8552 9.24C44.8552 9.29333 44.8685 9.34666 44.8952 9.4ZM44.6152 10.96C44.5618 10.9067 44.5352 10.84 44.5352 10.76C44.5618 10.68 44.5618 10.5733 44.5352 10.44C44.5885 10.44 44.6018 10.5067 44.5752 10.64C44.5752 10.7733 44.5885 10.88 44.6152 10.96ZM44.6152 16.04C44.5352 15.96 44.5218 15.8133 44.5752 15.6C44.6018 15.6533 44.6152 15.8 44.6152 16.04ZM34.3752 6.8C34.3485 6.77333 34.3485 6.72 34.3752 6.64C34.4285 6.56 34.4418 6.49333 34.4152 6.44C34.4685 6.49333 34.4818 6.54667 34.4552 6.6C34.4552 6.62667 34.4285 6.69333 34.3752 6.8ZM61.4473 21.04C61.234 21.0933 61.034 21.12 60.8473 21.12C60.6873 21.0933 60.5273 21.1333 60.3673 21.24C60.4207 21.3467 60.4473 21.48 60.4473 21.64C60.474 21.7733 60.554 21.8667 60.6873 21.92C60.6873 22.08 60.6873 22.2533 60.6873 22.44C60.6873 22.6 60.7007 22.7733 60.7273 22.96C60.8073 22.96 60.8207 22.9333 60.7673 22.88C60.714 22.8 60.714 22.76 60.7673 22.76C60.8473 22.84 60.8607 22.9067 60.8073 22.96C60.7807 23.0133 60.8207 23.04 60.9273 23.04C60.8207 23.28 60.7407 23.5467 60.6873 23.84C60.6607 24.1067 60.6207 24.3867 60.5673 24.68C60.4607 24.7867 60.3673 24.9067 60.2873 25.04C60.2073 25.1733 60.1673 25.3067 60.1673 25.44C60.114 25.4933 60.1007 25.56 60.1273 25.64C60.154 25.72 60.154 25.8 60.1273 25.88C60.1273 25.88 60.1007 25.9733 60.0473 26.16C59.914 26.4533 59.8073 26.7467 59.7273 27.04C59.6473 27.3067 59.5007 27.6 59.2873 27.92C59.2607 27.9733 59.114 28.1467 58.8473 28.44C58.6073 28.7333 58.3673 29.1733 58.1273 29.76C58.1273 29.7067 58.1407 29.6533 58.1673 29.6C58.0607 29.7067 57.9673 29.7867 57.8873 29.84C57.8073 29.8933 57.714 29.9733 57.6073 30.08C57.554 30.1067 57.5273 30.1067 57.5273 30.08C57.554 30.0533 57.5407 30.04 57.4873 30.04C57.434 30.0933 57.3673 30.1467 57.2873 30.2C57.2073 30.2267 57.1673 30.28 57.1673 30.36C56.954 30.44 56.714 30.5333 56.4473 30.64C56.2073 30.72 56.0073 30.84 55.8473 31C55.6873 31 55.474 31.0267 55.2073 31.08C54.9407 31.1333 54.6607 31.1733 54.3673 31.2C54.074 31.2533 53.7807 31.2933 53.4873 31.32C53.2207 31.3467 53.0073 31.3467 52.8473 31.32C52.8207 31.24 52.7673 31.2267 52.6873 31.28C52.6073 31.36 52.594 31.3333 52.6473 31.2C52.594 31.1733 52.554 31.1867 52.5273 31.24C52.5273 31.2933 52.4873 31.32 52.4073 31.32L50.7273 30.48V30.32C50.434 30.08 50.1807 29.8267 49.9673 29.56C49.754 29.2667 49.554 28.9733 49.3673 28.68C49.314 28.3333 49.2207 28.0133 49.0873 27.72C48.954 27.4 48.8607 27.0933 48.8073 26.8C48.754 26.8533 48.7407 26.8933 48.7673 26.92C48.794 26.92 48.794 26.9333 48.7673 26.96C48.4473 25.6267 48.2473 24.2267 48.1673 22.76C48.114 21.2933 48.1273 19.8667 48.2073 18.48C48.3407 16.5333 48.594 14.56 48.9673 12.56C49.3673 10.5333 49.8873 8.70667 50.5273 7.08C50.874 6.49333 51.154 5.96 51.3673 5.48C51.5807 5.08 51.754 4.74666 51.8873 4.48C52.0473 4.21333 52.274 4.01333 52.5673 3.88C52.7273 3.88 52.9407 3.88 53.2073 3.88C53.474 3.85333 53.7407 3.82667 54.0073 3.8C54.274 3.74667 54.5273 3.69333 54.7673 3.64C55.0073 3.56 55.1673 3.48 55.2473 3.4C55.3007 3.37333 55.3673 3.38667 55.4473 3.44C55.554 3.49333 55.6473 3.54666 55.7273 3.6C55.8607 3.54666 55.9673 3.50667 56.0473 3.48C56.154 3.45333 56.2473 3.41333 56.3273 3.36C56.5673 3.36 56.8607 3.38667 57.2073 3.44C57.554 3.49333 57.834 3.62667 58.0473 3.84C58.154 3.89333 58.3007 4.02667 58.4873 4.24C58.7007 4.45333 58.8207 4.6 58.8473 4.68C58.9007 4.81333 58.954 4.93333 59.0073 5.04C59.0607 5.12 59.074 5.22667 59.0473 5.36C59.074 5.33333 59.154 5.45333 59.2873 5.72C59.4473 5.96 59.5673 6.28 59.6473 6.68C59.754 7.05333 59.8073 7.46667 59.8073 7.92C59.8073 8.37333 59.6873 8.78667 59.4473 9.16C59.3407 9.29333 59.194 9.41333 59.0073 9.52C58.8207 9.62667 58.6607 9.70667 58.5273 9.76C58.2873 9.84 58.0873 9.74667 57.9273 9.48C57.7673 9.21333 57.6207 8.90667 57.4873 8.56C57.3807 8.18666 57.2873 7.84 57.2073 7.52C57.1273 7.17333 57.0473 6.98667 56.9673 6.96C56.8073 6.90667 56.674 6.90667 56.5673 6.96C56.4873 7.01333 56.394 7.10667 56.2873 7.24C56.0473 7.48 55.834 7.76 55.6473 8.08C55.4873 8.4 55.314 8.69333 55.1273 8.96V9.32C55.1273 9.29333 55.0873 9.32 55.0073 9.4C54.954 9.61333 54.9007 9.82667 54.8473 10.04C54.8207 10.2533 54.7807 10.4667 54.7273 10.68C54.7007 10.7333 54.6607 10.7867 54.6073 10.84C54.554 10.8667 54.5007 10.9067 54.4473 10.96C54.394 11.12 54.3273 11.28 54.2473 11.44C54.1673 11.5733 54.0873 11.7067 54.0073 11.84C53.874 12.24 53.7807 12.7067 53.7273 13.24C53.674 13.7467 53.634 14.1067 53.6073 14.32C53.3673 14.64 53.2473 15.0267 53.2473 15.48C53.2473 15.9333 53.154 16.32 52.9673 16.64C52.8873 17.28 52.8207 17.8933 52.7673 18.48C52.714 19.0667 52.6873 19.7067 52.6873 20.4C52.634 21.44 52.594 22.52 52.5673 23.64C52.5407 24.7333 52.6073 25.7867 52.7673 26.8C52.7407 26.8533 52.7407 26.88 52.7673 26.88C52.8207 26.8533 52.8473 26.8667 52.8473 26.92C52.8207 27.0267 52.8473 27.2 52.9273 27.44C53.0073 27.68 53.114 27.8133 53.2473 27.84C53.2473 28.2133 53.3273 28.52 53.4873 28.76C53.4873 28.76 53.5273 28.76 53.6073 28.76C53.6607 28.9467 53.7407 29.0933 53.8473 29.2C53.9807 29.28 54.1407 29.3867 54.3273 29.52C54.7007 29.44 55.034 29.3067 55.3273 29.12C55.6207 28.9333 55.8873 28.72 56.1273 28.48C56.3673 28.2133 56.5807 27.9467 56.7673 27.68C56.954 27.3867 57.114 27.1067 57.2473 26.84C57.4073 26.6 57.554 26.36 57.6873 26.12C57.8473 25.88 57.994 25.6267 58.1273 25.36C58.3407 24.8267 58.4607 24.2667 58.4873 23.68C58.5407 23.0933 58.3807 22.5067 58.0073 21.92C57.9273 21.9733 57.8607 22.0133 57.8073 22.04C57.7807 22.04 57.7273 22 57.6473 21.92C57.6207 22 57.554 22.08 57.4473 22.16C57.3673 22.2133 57.274 22.2933 57.1673 22.4C57.1673 22.4533 57.1007 22.4933 56.9673 22.52C56.834 22.5467 56.754 22.56 56.7273 22.56C56.594 22.5867 56.5007 22.6267 56.4473 22.68C56.4207 22.7333 56.314 22.76 56.1273 22.76C55.8873 22.84 55.6473 22.8667 55.4073 22.84C55.1673 22.7867 54.954 22.7467 54.7673 22.72C54.234 22.7467 53.8607 22.64 53.6473 22.4C53.434 22.16 53.3407 21.8 53.3673 21.32C53.5007 21.1333 53.7007 21.0267 53.9673 21C54.234 20.9467 54.554 20.9067 54.9273 20.88C55.3273 20.8267 55.634 20.7333 55.8473 20.6C56.0607 20.4667 56.394 20.32 56.8473 20.16C57.3273 20.0267 57.8207 19.9067 58.3273 19.8C58.834 19.6933 59.314 19.5867 59.7673 19.48C59.9007 19.5333 60.0207 19.5333 60.1273 19.48C60.2607 19.4267 60.3673 19.4533 60.4473 19.56C60.474 19.5067 60.554 19.48 60.6873 19.48C60.9007 19.5333 61.1407 19.5867 61.4073 19.64C61.7007 19.6933 61.8473 19.84 61.8473 20.08C61.714 20.1333 61.594 20.2 61.4873 20.28C61.4073 20.3333 61.3007 20.32 61.1673 20.24C61.1407 20.24 61.1273 20.2667 61.1273 20.32C61.1273 20.3467 61.1007 20.3733 61.0473 20.4C61.0473 20.4533 61.074 20.48 61.1273 20.48C61.1807 20.4533 61.234 20.4667 61.2873 20.52C61.2873 20.6533 61.2473 20.76 61.1673 20.84C61.0873 20.92 61.1807 20.9867 61.4473 21.04ZM67.7727 27.6C68.1193 27.4933 68.5593 27.2267 69.0927 26.8C69.626 26.3733 70.146 25.96 70.6527 25.56C71.186 25.16 71.6527 24.8533 72.0527 24.64C72.4527 24.4267 72.6927 24.4667 72.7727 24.76C72.666 25.0267 72.5727 25.2933 72.4927 25.56C72.4127 25.8267 72.306 26.1067 72.1727 26.4C72.1193 26.5867 72.026 26.76 71.8927 26.92C71.7593 27.0533 71.626 27.2133 71.4927 27.4C71.3593 27.6133 71.2393 27.8 71.1327 27.96C71.0527 28.12 70.946 28.2667 70.8127 28.4C70.5993 28.6667 70.3727 28.8533 70.1327 28.96C69.9193 29.04 69.706 29.2133 69.4927 29.48C69.4393 29.48 69.4127 29.4667 69.4127 29.44C69.4127 29.4133 69.386 29.3867 69.3327 29.36C69.226 29.4933 69.106 29.5867 68.9727 29.64C68.8393 29.6933 68.706 29.7733 68.5727 29.88C68.4927 29.88 68.426 29.88 68.3727 29.88C68.346 29.8533 68.306 29.84 68.2527 29.84C67.8793 29.9733 67.5327 30.0667 67.2127 30.12C66.8927 30.1467 66.5593 30.08 66.2127 29.92C66.1327 29.8133 66.026 29.7333 65.8927 29.68C65.786 29.6 65.666 29.5067 65.5327 29.4C65.0793 28.8933 64.7593 28.3733 64.5727 27.84C64.4127 27.3067 64.306 26.6267 64.2527 25.8C64.226 24.9733 64.2793 24.2133 64.4127 23.52C64.4127 23.4133 64.4127 23.32 64.4127 23.24C64.4393 23.1333 64.4527 23.04 64.4527 22.96C64.6127 21.7067 64.786 20.4267 64.9727 19.12C65.186 17.7867 65.3593 16.48 65.4927 15.2C65.5193 14.8267 65.546 14.48 65.5727 14.16C65.626 13.84 65.666 13.52 65.6927 13.2C65.6927 13.0667 65.6927 12.9333 65.6927 12.8C65.6927 12.6667 65.6393 12.5333 65.5327 12.4C65.666 12.2667 65.7193 12.0933 65.6927 11.88C65.6927 11.64 65.6927 11.4 65.6927 11.16C65.7193 10.76 65.7327 10.3733 65.7327 10C65.7593 9.6 65.746 9.17333 65.6927 8.72C65.666 8.50667 65.6527 8.30667 65.6527 8.12C65.6527 7.93333 65.626 7.76 65.5727 7.6C65.6527 6.88 65.9593 6.34667 66.4927 6C66.706 5.86667 66.9193 5.77333 67.1327 5.72C67.3727 5.66667 67.5993 5.62667 67.8127 5.6C67.9993 5.65333 68.1727 5.72 68.3327 5.8C68.5193 5.88 68.6793 5.94667 68.8127 6C69.026 6.10667 69.1993 6.24 69.3327 6.4C69.4927 6.53333 69.6393 6.66667 69.7727 6.8C69.9593 7.25333 70.0127 7.8 69.9327 8.44C69.8793 9.05333 69.826 9.66667 69.7727 10.28C69.7727 10.9733 69.746 11.72 69.6927 12.52C69.6393 13.2933 69.546 14.0533 69.4127 14.8C69.3593 15.0667 69.306 15.3467 69.2527 15.64C69.226 15.9067 69.1727 16.1333 69.0927 16.32C69.0393 16.4267 68.986 16.5067 68.9327 16.56C68.906 16.5867 68.8927 16.6267 68.8927 16.68C68.8127 16.92 68.7593 17.1733 68.7327 17.44C68.7327 17.7067 68.7193 17.96 68.6927 18.2C68.6393 18.4933 68.5593 18.7733 68.4527 19.04C68.346 19.28 68.2793 19.5467 68.2527 19.84C68.306 19.92 68.3327 19.9067 68.3327 19.8C68.3327 19.6667 68.3593 19.6133 68.4127 19.64C68.3593 19.9333 68.3193 20.2533 68.2927 20.6C68.266 20.9467 68.1993 21.2667 68.0927 21.56C68.146 21.56 68.1993 21.4933 68.2527 21.36C68.1993 21.84 68.1193 22.36 68.0127 22.92C67.9327 23.48 67.8527 23.9867 67.7727 24.44C67.7727 24.44 67.786 24.4267 67.8127 24.4C67.8127 24.9333 67.786 25.48 67.7327 26.04C67.706 26.5733 67.7193 27.0933 67.7727 27.6ZM67.8527 20.6C67.826 20.6 67.8127 20.6133 67.8127 20.64C67.8127 20.6667 67.7993 20.68 67.7727 20.68V20.88C67.7727 20.9067 67.786 20.9333 67.8127 20.96H67.8527L67.8927 20.92V20.88V20.6H67.8527ZM67.8527 20.6C67.826 20.6 67.8127 20.6133 67.8127 20.64C67.8127 20.6667 67.7993 20.68 67.7727 20.68V20.88C67.7727 20.9067 67.786 20.9333 67.8127 20.96H67.8527L67.8927 20.92V20.88V20.6H67.8527ZM67.9327 20.32C67.9327 20.3467 67.9193 20.3733 67.8927 20.4C67.8927 20.4 67.8927 20.4133 67.8927 20.44V20.52H67.9327L68.0127 20.44V20.36L67.9327 20.24V20.32ZM67.9327 20.32C67.9327 20.3467 67.9193 20.3733 67.8927 20.4C67.8927 20.4 67.8927 20.4133 67.8927 20.44V20.52H67.9327L68.0127 20.44V20.36L67.9327 20.24V20.32ZM67.3327 25.88V26.08C67.3327 26.1067 67.346 26.12 67.3727 26.12V26.08V26.04L67.4127 26V25.88C67.4127 25.88 67.3993 25.8667 67.3727 25.84L67.3327 25.88ZM67.4127 25.88C67.4127 25.88 67.3993 25.8667 67.3727 25.84L67.3327 25.88V26.08C67.3327 26.1067 67.346 26.12 67.3727 26.12V26.08V26.04L67.4127 26V25.88ZM86.648 5.4C86.5946 5.50667 86.5013 5.54667 86.368 5.52C86.2346 5.49333 86.1013 5.50667 85.968 5.56V5.6C85.7813 5.70666 85.5813 5.77333 85.368 5.8C85.1546 5.8 84.9413 5.8 84.728 5.8C84.5413 5.8 84.3546 5.8 84.168 5.8C83.9813 5.8 83.808 5.84 83.648 5.92C83.5413 5.97333 83.448 6.02667 83.368 6.08C83.3146 6.13333 83.2613 6.17333 83.208 6.2C83.1013 6.25333 83.0213 6.28 82.968 6.28C82.9146 6.25333 82.848 6.28 82.768 6.36C82.5546 6.41333 82.3413 6.50667 82.128 6.64C81.9413 6.74667 81.7413 6.82667 81.528 6.88C81.5546 7.49333 81.448 8.13333 81.208 8.8C80.9946 9.46667 80.808 10.0133 80.648 10.44C80.6213 10.6267 80.608 10.7867 80.608 10.92C80.608 11.0533 80.568 11.1733 80.488 11.28C80.2746 11.9733 80.088 12.7067 79.928 13.48C79.768 14.2267 79.5813 14.9467 79.368 15.64C79.9013 15.4267 80.448 15.28 81.008 15.2C81.568 15.0933 82.1146 14.9467 82.648 14.76L84.088 14.84C84.0346 14.8933 83.968 14.9333 83.888 14.96C83.8346 14.96 83.808 15.0267 83.808 15.16C83.8613 15.2133 83.9413 15.24 84.048 15.24C84.1813 15.2133 84.248 15.16 84.248 15.08C84.3813 15.1867 84.5013 15.2133 84.608 15.16C84.7413 15.1067 84.9146 15.04 85.128 14.96C85.1813 15.1733 85.1413 15.3733 85.008 15.56C85.088 15.48 85.1546 15.4933 85.208 15.6C85.288 15.68 85.3013 15.76 85.248 15.84C85.1946 15.9467 85.1413 16 85.088 16C85.0613 16 85.008 16.0267 84.928 16.08C84.9013 16.1867 84.8613 16.3067 84.808 16.44C84.7813 16.5733 84.8213 16.7067 84.928 16.84C84.8213 16.9733 84.688 17.0533 84.528 17.08C84.3946 17.1067 84.288 17.1867 84.208 17.32C84.1813 17.3467 84.1413 17.3067 84.088 17.2C83.1546 17.52 82.248 17.9067 81.368 18.36C80.5146 18.7867 79.5946 19.08 78.608 19.24C78.5546 19.5867 78.5146 19.8933 78.488 20.16C78.488 20.4267 78.5013 20.7067 78.528 21C78.528 21.6933 78.4613 22.4267 78.328 23.2C78.1946 23.9733 78.208 24.6667 78.368 25.28C78.3146 25.3333 78.288 25.4 78.288 25.48C78.288 25.56 78.248 25.6533 78.168 25.76C78.1413 25.8133 78.168 25.84 78.248 25.84C78.328 25.8133 78.3546 25.84 78.328 25.92C78.1946 26.2933 78.1946 26.6933 78.328 27.12C78.4613 27.52 78.6346 27.8133 78.848 28C79.1946 28.0533 79.4746 27.9867 79.688 27.8C79.9013 27.6133 80.128 27.4267 80.368 27.24C80.4746 27.1333 80.5946 27.04 80.728 26.96C80.8613 26.88 80.9813 26.7867 81.088 26.68C81.3813 26.3333 81.6213 26 81.808 25.68C82.0213 25.3333 82.328 25.0533 82.728 24.84C82.7813 24.68 82.8346 24.56 82.888 24.48C82.9413 24.3733 83.048 24.3067 83.208 24.28C83.3946 24.4667 83.528 24.5733 83.608 24.6C83.688 24.6 83.7546 24.5867 83.808 24.56C83.888 24.5067 83.9546 24.4667 84.008 24.44C84.0613 24.3867 84.1546 24.4133 84.288 24.52C84.3946 24.5467 84.4613 24.6 84.488 24.68C84.5413 24.7333 84.6213 24.7733 84.728 24.8C84.6746 24.88 84.6613 24.9467 84.688 25C84.7413 25.0267 84.7813 25.0667 84.808 25.12C84.8346 25.4133 84.8213 25.64 84.768 25.8C84.7413 25.96 84.688 26.1067 84.608 26.24C84.5546 26.3467 84.4746 26.4667 84.368 26.6C84.288 26.7067 84.208 26.84 84.128 27C84.1813 27.16 84.1813 27.3333 84.128 27.52C84.208 27.6267 84.2746 27.6267 84.328 27.52C84.3813 27.5733 84.3546 27.6533 84.248 27.76C84.168 27.8667 84.1813 27.9333 84.288 27.96C83.6213 29.24 82.5546 30.1067 81.088 30.56C81.0613 30.5067 81.0346 30.5067 81.008 30.56C81.008 30.6133 80.9813 30.6133 80.928 30.56C80.7146 30.6133 80.4746 30.6933 80.208 30.8C79.968 30.88 79.7146 30.96 79.448 31.04C79.208 31.1467 78.9546 31.2267 78.688 31.28C78.4213 31.3333 78.168 31.32 77.928 31.24C77.6346 31.16 77.328 31.0533 77.008 30.92C76.688 30.7867 76.3946 30.6133 76.128 30.4C75.5413 29.6533 75.1146 28.6667 74.848 27.44C74.5813 26.1867 74.5013 24.84 74.608 23.4C74.6346 22.6267 74.6746 21.84 74.728 21.04C74.7813 20.2133 74.8613 19.4267 74.968 18.68C74.808 18.52 74.648 18.3867 74.488 18.28C74.3546 18.1467 74.2613 17.9867 74.208 17.8C74.208 17.6667 74.2346 17.56 74.288 17.48C74.368 17.3733 74.3813 17.2667 74.328 17.16C74.4613 17.1867 74.5813 17.1467 74.688 17.04C74.7946 16.9067 74.9146 16.8133 75.048 16.76C75.368 15.1067 75.7013 13.48 76.048 11.88C76.4213 10.28 76.8746 8.72 77.408 7.2C76.5546 6.93333 75.9013 6.50667 75.448 5.92C75.5013 5.73333 75.5946 5.61333 75.728 5.56C75.8613 5.50667 75.928 5.38667 75.928 5.2C76.008 5.33333 76.088 5.37333 76.168 5.32C76.2746 5.24 76.3946 5.21333 76.528 5.24C76.608 5.37333 76.7813 5.46666 77.048 5.52C77.3413 5.57333 77.5946 5.57333 77.808 5.52C77.888 5.06667 77.968 4.69333 78.048 4.4C78.1546 4.08 78.328 3.77333 78.568 3.48C78.728 3.42666 78.888 3.4 79.048 3.4C79.2346 3.37333 79.3946 3.34667 79.528 3.32C79.7413 3.42667 79.8746 3.6 79.928 3.84C79.9813 4.08 80.088 4.26667 80.248 4.4C80.8613 4.18667 81.4746 4.09333 82.088 4.12C82.728 4.14667 83.3146 4.08 83.848 3.92C83.9813 3.97333 84.0746 4.02667 84.128 4.08C84.1813 4.13333 84.288 4.14667 84.448 4.12C84.5813 4.14667 84.728 4.16 84.888 4.16C85.048 4.16 85.248 4.13333 85.488 4.08C85.648 4.13333 85.7946 4.24 85.928 4.4C86.0613 4.53333 86.208 4.61333 86.368 4.64C86.3946 4.74667 86.3946 4.86667 86.368 5C86.3413 5.13333 86.4346 5.26666 86.648 5.4Z" fill="white"/>
</svg>
