<svg width="414" height="124" viewBox="0 0 414 124" fill="none" xmlns="http://www.w3.org/2000/svg">
<path d="M333.1 103.2H82.7L102.7 123.2L333.1 103.2ZM373.2 90.6V50.6C373.2 43.1 378.5 36.9 385.9 36.9C393.4 36.9 398.6 43.1 398.6 50.6V90.6H414V50.6C414 34.1 402.8 20.9 386.3 20.9C378.8 20.9 373.1 25.1 373.1 25.1V22.4H357.7V90.2H373.1V90.5H373.2V90.6ZM322.1 20.7C304.1 20.7 291.5 36.4 291.5 56.4C291.5 77.3 307.5 92.1 323.7 92.1C331.9 92.1 342.2 89.4 350.9 76.9L337.2 68.9C326.7 84.3 309 76.6 307 60.9H351.4C355.2 36.9 339.5 20.7 322.1 20.7ZM335.6 47.7H307.9C311.1 31.9 332.5 31 335.6 47.7ZM286.4 74.3C284.9 75.3 283.1 76.1 281.1 76.1C278.6 76.1 273.9 74.1 273.9 67.9V38.7H287.1V22.5H273.9V5.5H258.5V22.5H250.3V38.7H258.5V67.9C258.5 83.1 270 92.1 281.4 92.1C285.6 92.1 291.6 90.6 296.4 87.9L286.4 74.3ZM229.5 22.4V62.3C229.5 69.8 224.2 76 216.8 76C209.3 76 204.1 69.8 204.1 62.3V22.4H188.7V62.3C188.7 78.8 199.9 92 216.4 92C223.9 92 229.6 87.8 229.6 87.8V90.3H245V22.5H229.5V22.4ZM159.7 54.4L186.1 22.5H164.6L145.9 46.2V0H130.2V90.6H145.9V62.7L168.8 90.6H190.3L159.7 54.4ZM106 22.4V25.4C101.2 22.4 97.2 20.6 91.5 20.6C74.1 20.6 60.5 36.6 60.5 56.3C60.5 76 73.7 92 91.5 92C97.2 92 101.4 90.2 106 87.2V90.2H121.4V22.4H106ZM91.3 75.9C82.5 75.9 76.3 67.4 76.3 56.7C76.3 45.9 82.5 37.5 91.3 37.5C100.1 37.5 106 46 106 56.7C106.2 67.3 100 75.9 91.3 75.9ZM16.2 90.6V64.2H27.4L47.2 90.4H67.4L43.4 58.7C50.9 53.4 55.7 44.8 55.7 34.7C55.7 18.5 42.5 5.5 26.5 5.5H0V90.3H16.2V90.6ZM16.2 21.7H26.7C33.9 21.7 39.9 27.7 39.9 34.9C39.9 42.1 33.9 48.1 26.7 48.1H16.2V21.7Z" fill="white"/>
</svg>
