<svg width="208" height="71" viewBox="0 0 208 71" fill="none" xmlns="http://www.w3.org/2000/svg">
<path d="M6.66021 65.77C6.66021 66.1945 6.5799 66.5693 6.41927 66.8943C6.25865 67.2194 6.04257 67.4871 5.77104 67.6975C5.44979 67.9499 5.10559 68.1296 4.73845 68.2367C4.3713 68.34 3.89708 68.3916 3.31576 68.3916H0.866229V59.8498H3.13219C3.74027 59.8498 4.19538 59.8708 4.49751 59.9129C4.80346 59.9511 5.09603 60.0448 5.37521 60.194C5.68116 60.3584 5.90489 60.5745 6.04639 60.8422C6.1879 61.1061 6.25865 61.4178 6.25865 61.7773C6.25865 62.1788 6.15157 62.5383 5.9374 62.8558C5.72706 63.1732 5.43449 63.4218 5.0597 63.6015V63.6474C5.56834 63.7851 5.96226 64.0375 6.24144 64.4047C6.52062 64.768 6.66021 65.2231 6.66021 65.77ZM5.07691 61.9379C5.07691 61.7314 5.04249 61.5536 4.97365 61.4044C4.90481 61.2514 4.7939 61.131 4.64092 61.043C4.45735 60.9397 4.25275 60.8766 4.02711 60.8537C3.80146 60.8307 3.48978 60.8193 3.09204 60.8193H2.00208V63.3204H3.29282C3.64849 63.3204 3.91046 63.3032 4.07873 63.2688C4.24701 63.2306 4.42102 63.1541 4.60077 63.0393C4.77287 62.9284 4.89525 62.7831 4.96791 62.6034C5.04057 62.4236 5.07691 62.2018 5.07691 61.9379ZM5.47847 65.8159C5.47847 65.4946 5.43258 65.2307 5.34079 65.0242C5.249 64.8139 5.06352 64.636 4.78434 64.4907C4.60459 64.3951 4.40763 64.3339 4.19347 64.3071C3.98312 64.2804 3.68291 64.267 3.29282 64.267H2.00208V67.4221H2.92567C3.42285 67.4221 3.81485 67.3992 4.10168 67.3533C4.38851 67.3074 4.64092 67.2099 4.85891 67.0607C5.07308 66.9116 5.22988 66.7433 5.32932 66.5559C5.42875 66.3647 5.47847 66.118 5.47847 65.8159ZM21.6945 68.3916H20.2202L17.5125 64.9955H16.216V68.3916H15.0802V59.8498H17.2831C17.7726 59.8498 18.1818 59.8765 18.5107 59.9301C18.8434 59.9836 19.1589 60.1079 19.4572 60.303C19.7555 60.4942 19.9907 60.7409 20.1628 61.043C20.3388 61.3451 20.4267 61.7199 20.4267 62.1674C20.4267 62.7946 20.268 63.3185 19.9506 63.7392C19.6332 64.1599 19.201 64.4716 18.6541 64.6743L21.6945 68.3916ZM19.2392 62.2534C19.2392 62.0048 19.1953 61.7849 19.1073 61.5937C19.0193 61.3987 18.8836 61.24 18.7 61.1176C18.5394 61.0105 18.352 60.9359 18.1378 60.8938C17.9236 60.848 17.6578 60.825 17.3404 60.825H16.216V64.049H17.2142C17.5393 64.049 17.8319 64.0203 18.0919 63.9629C18.352 63.9056 18.5738 63.787 18.7574 63.6073C18.9218 63.4466 19.0423 63.2554 19.1188 63.0336C19.1991 62.8118 19.2392 62.5517 19.2392 62.2534ZM28.7377 68.3916L31.6175 59.8498H33.0172L35.897 68.3916H34.698L33.9236 66.0052H30.6595L29.885 68.3916H28.7377ZM33.6081 65.0357L32.2887 61.0086L30.975 65.0357H33.6081ZM50.0995 68.3916H48.826L45.0513 61.0258V68.3916H43.99V59.8498H45.602L49.0382 66.6133V59.8498H50.0995V68.3916ZM65.8566 64.1293C65.8566 64.9095 65.6979 65.6132 65.3805 66.2404C65.0668 66.8676 64.6443 67.3571 64.1127 67.7089C63.6805 67.9805 63.2407 68.1621 62.7932 68.2539C62.3496 68.3457 61.7817 68.3916 61.0895 68.3916H59.1218V59.8498H61.0665C61.8696 59.8498 62.4988 59.911 62.9539 60.0334C63.4128 60.1519 63.8029 60.3164 64.1241 60.5267C64.6748 60.89 65.1013 61.3738 65.4034 61.9781C65.7055 62.5785 65.8566 63.2956 65.8566 64.1293ZM64.6748 64.1121C64.6748 63.4543 64.5659 62.894 64.3479 62.4313C64.1299 61.9647 63.8067 61.6014 63.3784 61.3413C63.0762 61.1577 62.7531 61.0258 62.4089 60.9455C62.0647 60.8652 61.6364 60.825 61.1239 60.825H60.2577V67.4164H61.1239C61.6287 67.4164 62.0704 67.3762 62.449 67.2959C62.8277 67.2156 63.1738 67.0664 63.4874 66.8485C63.8813 66.5807 64.1777 66.2251 64.3765 65.7814C64.5754 65.334 64.6748 64.7775 64.6748 64.1121ZM77.3629 68.3916H74.0471V67.5196H75.1371V60.7217H74.0471V59.8498H77.3629V60.7217H76.2729V67.5196H77.3629V68.3916ZM92.1562 68.3916H90.8827L87.108 61.0258V68.3916H86.0467V59.8498H87.6587L91.095 66.6133V59.8498H92.1562V68.3916ZM104.752 68.558C104.148 68.558 103.596 68.4662 103.095 68.2826C102.594 68.099 102.163 67.8199 101.804 67.4451C101.444 67.0664 101.169 66.598 100.978 66.0396C100.787 65.4812 100.691 64.8387 100.691 64.1121C100.691 63.4237 100.787 62.808 100.978 62.2649C101.173 61.718 101.45 61.2514 101.81 60.8652C102.158 60.4904 102.586 60.2016 103.095 59.9989C103.603 59.7962 104.16 59.6949 104.764 59.6949C105.051 59.6949 105.326 59.7159 105.59 59.758C105.854 59.8001 106.106 59.8574 106.347 59.9301C106.538 59.9875 106.751 60.0678 106.984 60.171C107.221 60.2705 107.412 60.3565 107.558 60.4292V61.8002H107.46C107.319 61.674 107.171 61.5555 107.018 61.4446C106.869 61.3298 106.657 61.2074 106.382 61.0774C106.152 60.9627 105.888 60.8671 105.59 60.7906C105.292 60.7141 104.97 60.6759 104.626 60.6759C103.804 60.6759 103.139 60.9856 102.63 61.6052C102.125 62.2247 101.873 63.0489 101.873 64.0777C101.873 64.6513 101.94 65.1523 102.073 65.5807C102.207 66.009 102.4 66.3723 102.653 66.6706C102.898 66.9651 103.192 67.1907 103.536 67.3475C103.884 67.5005 104.274 67.577 104.707 67.577C105.028 67.577 105.347 67.5541 105.665 67.5082C105.982 67.4623 106.25 67.3934 106.468 67.3016V65.093H104.494V64.0949H107.592V67.8237C107.447 67.8887 107.252 67.9709 107.007 68.0704C106.766 68.1698 106.54 68.2482 106.33 68.3056C106.051 68.3897 105.798 68.4528 105.573 68.4949C105.347 68.5369 105.074 68.558 104.752 68.558ZM126.342 68.3916L129.222 59.8498H130.622L133.502 68.3916H132.303L131.528 66.0052H128.264L127.49 68.3916H126.342ZM131.213 65.0357L129.893 61.0086L128.58 65.0357H131.213ZM145.169 68.558C144.564 68.558 144.012 68.4662 143.511 68.2826C143.01 68.099 142.579 67.8199 142.22 67.4451C141.86 67.0664 141.585 66.598 141.394 66.0396C141.203 65.4812 141.107 64.8387 141.107 64.1121C141.107 63.4237 141.203 62.808 141.394 62.2649C141.589 61.718 141.866 61.2514 142.226 60.8652C142.574 60.4904 143.002 60.2016 143.511 59.9989C144.019 59.7962 144.576 59.6949 145.18 59.6949C145.467 59.6949 145.742 59.7159 146.006 59.758C146.27 59.8001 146.522 59.8574 146.763 59.9301C146.955 59.9875 147.167 60.0678 147.4 60.171C147.637 60.2705 147.828 60.3565 147.974 60.4292V61.8002H147.876C147.735 61.674 147.587 61.5555 147.434 61.4446C147.285 61.3298 147.073 61.2074 146.798 61.0774C146.568 60.9627 146.304 60.8671 146.006 60.7906C145.708 60.7141 145.387 60.6759 145.042 60.6759C144.22 60.6759 143.555 60.9856 143.046 61.6052C142.541 62.2247 142.289 63.0489 142.289 64.0777C142.289 64.6513 142.356 65.1523 142.49 65.5807C142.623 66.009 142.817 66.3723 143.069 66.6706C143.314 66.9651 143.608 67.1907 143.952 67.3475C144.3 67.5005 144.69 67.577 145.123 67.577C145.444 67.577 145.763 67.5541 146.081 67.5082C146.398 67.4623 146.666 67.3934 146.884 67.3016V65.093H144.91V64.0949H148.008V67.8237C147.863 67.8887 147.668 67.9709 147.423 68.0704C147.182 68.1698 146.956 68.2482 146.746 68.3056C146.467 68.3897 146.215 68.4528 145.989 68.4949C145.763 68.5369 145.49 68.558 145.169 68.558ZM156.726 68.3916V59.8498H162.067V60.8594H157.862V63.2H161.78V64.2096H157.862V67.382H162.067V68.3916H156.726ZM176.717 68.3916H175.444L171.669 61.0258V68.3916H170.608V59.8498H172.22L175.656 66.6133V59.8498H176.717V68.3916ZM189.078 68.5465C188.52 68.5465 188.005 68.4528 187.535 68.2654C187.068 68.078 186.665 67.7988 186.325 67.4278C185.984 67.0569 185.72 66.5941 185.533 66.0396C185.346 65.485 185.252 64.8483 185.252 64.1293C185.252 63.4141 185.342 62.7908 185.521 62.2592C185.705 61.7276 185.971 61.2648 186.319 60.8709C186.659 60.4885 187.063 60.1978 187.529 59.9989C187.996 59.7962 188.518 59.6949 189.095 59.6949C189.382 59.6949 189.65 59.7159 189.899 59.758C190.151 59.8001 190.384 59.8536 190.598 59.9186C190.782 59.976 190.969 60.0486 191.161 60.1366C191.356 60.2207 191.547 60.3144 191.734 60.4177V61.7888H191.642C191.543 61.697 191.415 61.5861 191.258 61.456C191.101 61.326 190.91 61.1979 190.684 61.0717C190.466 60.9531 190.229 60.8556 189.973 60.7791C189.717 60.7026 189.42 60.6644 189.084 60.6644C188.721 60.6644 188.376 60.739 188.051 60.8881C187.726 61.0373 187.441 61.2572 187.197 61.5478C186.956 61.8385 186.768 62.2037 186.634 62.6435C186.501 63.0833 186.434 63.5786 186.434 64.1293C186.434 64.7144 186.504 65.2193 186.646 65.6438C186.787 66.0644 186.981 66.4201 187.225 66.7108C187.462 66.9938 187.742 67.2079 188.063 67.3533C188.384 67.4948 188.724 67.5655 189.084 67.5655C189.413 67.5655 189.717 67.5254 189.996 67.4451C190.275 67.3647 190.524 67.2634 190.742 67.141C190.952 67.0225 191.134 66.902 191.287 66.7796C191.44 66.6534 191.56 66.5463 191.648 66.4584H191.734V67.8122C191.547 67.9002 191.369 67.9843 191.201 68.0646C191.036 68.1449 190.836 68.2233 190.598 68.2998C190.35 68.3801 190.118 68.4413 189.904 68.4834C189.694 68.5255 189.419 68.5465 189.078 68.5465ZM206.057 59.8498L203.172 64.6112V68.3916H202.036V64.7316L199.15 59.8498H200.412L202.615 63.6187L204.853 59.8498H206.057Z" fill="white"/>
<path d="M27.1694 16.5797C27.1694 15.3045 26.9182 14.2051 26.4157 13.2826C25.9126 12.36 25.0776 11.6486 23.9089 11.1473C23.0904 10.8055 22.179 10.5896 21.1746 10.4982C20.1696 10.4073 18.9185 10.3615 17.4236 10.3615H13.8339C13.3961 10.3615 13.0411 10.7156 13.0411 11.1527V23.2707C13.0411 23.7075 13.3961 24.0619 13.8339 24.0619H16.7925C18.6153 24.0619 20.163 23.954 21.4375 23.7375C22.7111 23.5213 23.7917 23.0599 24.6803 22.3535C25.5216 21.7161 26.1467 20.9528 26.556 20.0647C26.9643 19.1764 27.1694 18.0146 27.1694 16.5797ZM46.611 51.8729H32.675C32.4306 51.8729 32.2 51.7602 32.0498 51.5677L17.9767 33.5235C17.8268 33.331 17.596 33.2183 17.3516 33.2183H13.8339C13.3961 33.2183 13.0411 33.5727 13.0411 34.0098V51.0817C13.0411 51.5185 12.6865 51.8729 12.2487 51.8729H0.792418C0.354685 51.8729 0 51.5185 0 51.0817V1.7912C0 1.35437 0.354685 0.99998 0.792418 0.99998H20.9992C23.8966 0.99998 26.4208 1.17687 28.5717 1.52946C30.7219 1.88294 32.7085 2.6175 34.5314 3.73311C36.4011 4.89491 37.8846 6.37 38.9837 8.15781C40.0822 9.94622 40.6312 12.2182 40.6312 14.9738C40.6312 18.8688 39.7314 22.0291 37.9319 24.455C36.3057 26.6463 34.1842 28.4335 31.5668 29.8163C31.1291 30.0474 31.017 30.624 31.3291 31.0081L47.2263 50.5831C47.6466 51.1006 47.2778 51.8729 46.611 51.8729" fill="white"/>
<path d="M82.1974 48.1328C70.4497 55.3122 54.697 52.2348 47.0127 41.2597C39.3284 30.2846 42.6221 15.5676 54.3698 8.38849L54.6756 4.73994C66.423 -2.43944 82.1757 0.637974 89.8603 11.613C97.5446 22.5881 94.2507 37.3052 82.5033 44.4843L82.1974 48.1328Z" stroke="white" stroke-width="0.26022" stroke-miterlimit="10" stroke-linejoin="round"/>
<path d="M81.8732 43.5856C93.0891 36.7313 96.2338 22.68 88.8972 12.2015C81.5606 1.7227 66.5205 -1.21529 55.3043 5.63924L54.9981 9.28779C43.7822 16.1423 40.6375 30.1934 47.9741 40.6722C55.3113 51.151 70.3508 54.0887 81.567 47.2344L81.8732 43.5856Z" stroke="white" stroke-width="0.26022" stroke-miterlimit="10" stroke-linejoin="round"/>
<path d="M80.9369 46.3359C70.2522 52.8656 55.9249 50.0668 48.9354 40.0846C41.9465 30.1026 44.9423 16.717 55.6267 10.1873L55.9328 6.53875C66.6175 0.00907645 80.9448 2.80792 87.934 12.7901C94.9232 22.7721 91.9274 36.1577 81.2427 42.6871L80.9369 46.3359Z" stroke="white" stroke-width="0.26022" stroke-miterlimit="10" stroke-linejoin="round"/>
<path d="M80.6121 41.7888C90.7653 35.584 93.6122 22.8643 86.9704 13.3784C80.3289 3.89301 66.7142 1.23331 56.561 7.43813L56.2549 11.0867C46.1017 17.2915 43.2552 30.0111 49.8963 39.4971C56.5381 48.9827 70.1528 51.6421 80.306 45.4376L80.6121 41.7888Z" stroke="white" stroke-width="0.26022" stroke-miterlimit="10" stroke-linejoin="round"/>
<path d="M79.676 44.5388C70.054 50.419 57.1521 47.8988 50.8584 38.9094C44.564 29.9203 47.262 17.8664 56.8839 11.9861L57.1897 8.33758C66.8117 2.45762 79.7136 4.97789 86.0076 13.9673C92.3014 22.9564 89.6037 35.01 79.9818 40.8902L79.676 44.5388Z" stroke="white" stroke-width="0.26022" stroke-miterlimit="10" stroke-linejoin="round"/>
<path d="M79.3518 39.9916C88.4422 34.4365 90.9909 23.0483 85.0446 14.5558C79.0982 6.06299 66.9086 3.68186 57.8185 9.23697L57.5123 12.8858C48.4219 18.4409 45.8732 29.8294 51.8198 38.3217C57.7659 46.8145 69.9552 49.1959 79.0456 43.6405L79.3518 39.9916Z" stroke="white" stroke-width="0.26022" stroke-miterlimit="10" stroke-linejoin="round"/>
<path d="M78.4154 42.7419C69.8565 47.9725 58.3794 45.7305 52.7811 37.7345C47.1821 29.738 49.5822 19.0158 58.1409 13.7852L58.447 10.1367C67.0056 4.90615 78.4827 7.14785 84.0813 15.1441C89.6799 23.1403 87.2802 33.8628 78.7215 39.0931L78.4154 42.7419Z" stroke="white" stroke-width="0.26022" stroke-miterlimit="10" stroke-linejoin="round"/>
<path d="M78.0912 38.1948C86.1186 33.2891 88.3691 23.2323 83.1182 15.7326C77.8676 8.23294 67.1031 6.13009 59.0757 11.0361L58.7696 14.6846C50.7421 19.5903 48.4913 29.6471 53.7425 37.1468C58.9934 44.6464 69.7576 46.749 77.7851 41.8436L78.0912 38.1948Z" stroke="white" stroke-width="0.26022" stroke-miterlimit="10" stroke-linejoin="round"/>
<path d="M77.1548 40.9447C69.6586 45.5258 59.607 43.5621 54.7038 36.559C49.8006 29.5559 51.9022 20.1651 59.3981 15.584L59.7039 11.9355C67.2001 7.35465 77.2518 9.31807 82.1553 16.3212C87.0588 23.3246 84.9569 32.7151 77.4609 37.2962L77.1548 40.9447Z" stroke="white" stroke-width="0.26022" stroke-miterlimit="10" stroke-linejoin="round"/>
<path d="M76.8305 36.3979C83.7949 32.1416 85.7479 23.4166 81.1921 16.9097C76.6364 10.4032 67.2973 8.57865 60.3329 12.8349L60.0267 16.4835C53.062 20.7397 51.1097 29.4648 55.6652 35.9716C60.2209 42.4781 69.56 44.3027 76.5247 40.0465L76.8305 36.3979Z" stroke="white" stroke-width="0.26022" stroke-miterlimit="10" stroke-linejoin="round"/>
<path d="M76.2006 35.4991C82.6335 31.5677 84.4375 23.5084 80.2294 17.4984C76.0211 11.4882 67.3945 9.80273 60.9616 13.7344L60.6555 17.383C54.2223 21.3147 52.4186 29.3738 56.6267 35.384C60.835 41.3943 69.4613 43.0791 75.8945 39.148L76.2006 35.4991Z" stroke="white" stroke-width="0.26022" stroke-miterlimit="10" stroke-linejoin="round"/>
<path d="M75.5703 34.6007C81.4723 30.9942 83.1268 23.6005 79.2664 18.0868C75.4058 12.5732 67.4921 11.0272 61.5904 14.634L61.2843 18.2826C55.3826 21.8891 53.7278 29.2828 57.5882 34.7965C61.4488 40.3101 69.3625 41.8561 75.2645 38.2496L75.5703 34.6007Z" stroke="white" stroke-width="0.26022" stroke-miterlimit="10" stroke-linejoin="round"/>
<path d="M74.6341 37.3511C69.2636 40.6327 62.0628 39.2259 58.5495 34.2088C55.0369 29.1917 56.5427 22.464 61.9129 19.182L62.2187 15.5335C67.5892 12.2515 74.7906 13.6583 78.3033 18.6755C81.8159 23.6926 80.3107 30.4202 74.9402 33.7022L74.6341 37.3511Z" stroke="white" stroke-width="0.26022" stroke-miterlimit="10" stroke-linejoin="round"/>
<path d="M74.0034 36.4523C69.1644 39.4098 62.6759 38.142 59.5107 33.6215C56.3454 29.1007 57.702 23.0387 62.541 20.0816L62.8471 16.433C67.6858 13.4759 74.1747 14.7433 77.3396 19.2639C80.5051 23.7847 79.1482 29.8467 74.3092 32.8038L74.0034 36.4523Z" stroke="white" stroke-width="0.26022" stroke-miterlimit="10" stroke-linejoin="round"/>
<path d="M73.3729 35.5539C69.0655 38.1865 63.2895 37.0582 60.472 33.0339C57.6545 29.0097 58.8621 23.6134 63.1696 20.9809L63.4757 17.3323C67.7832 14.7001 73.5589 15.8283 76.3764 19.8526C79.1942 23.8766 77.9865 29.2731 73.679 31.9051L73.3729 35.5539Z" stroke="white" stroke-width="0.26022" stroke-miterlimit="10" stroke-linejoin="round"/>
<path d="M73.0491 31.0067C76.825 28.6993 77.8838 23.9688 75.4134 20.4411C72.9436 16.9131 67.8804 15.924 64.1045 18.2317L63.7984 21.8805C60.0221 24.1879 58.9634 28.9182 61.4338 32.4461C63.9036 35.9738 68.9667 36.963 72.7429 34.6556L73.0491 31.0067Z" stroke="white" stroke-width="0.26022" stroke-miterlimit="10" stroke-linejoin="round"/>
<path d="M72.4184 30.1083C75.6629 28.1255 76.5727 24.0606 74.4506 21.0295C72.3279 17.9984 67.9774 17.1484 64.7326 19.1312L64.4268 22.7798C61.1824 24.7626 60.2726 28.8275 62.3949 31.8586C64.517 34.8897 68.8679 35.7397 72.1123 33.7572L72.4184 30.1083Z" stroke="white" stroke-width="0.26022" stroke-miterlimit="10" stroke-linejoin="round"/>
<path d="M71.4824 32.8583C68.7691 34.5166 65.1311 33.8057 63.3565 31.2709C61.5818 28.7363 62.3424 25.3375 65.0553 23.6795L65.3614 20.0306C68.0746 18.3727 71.7126 19.0835 73.4876 21.6181C75.262 24.1529 74.5014 27.5517 71.7885 29.2097L71.4824 32.8583Z" stroke="white" stroke-width="0.26022" stroke-miterlimit="10" stroke-linejoin="round"/>
<path d="M71.1579 28.3112C73.3397 26.9781 73.9516 24.245 72.5243 22.2067C71.0974 20.1684 68.1716 19.597 65.9902 20.9304L65.6841 24.579C63.5024 25.9121 62.8908 28.6452 64.3177 30.6835C65.745 32.7218 68.6701 33.2932 70.8521 31.9601L71.1579 28.3112Z" stroke="white" stroke-width="0.26022" stroke-miterlimit="10" stroke-linejoin="round"/>
<path d="M70.2219 31.0615C68.5717 32.0698 66.3588 31.6378 65.2793 30.0958C64.2 28.5543 64.6624 26.4869 66.3129 25.4781L66.6191 21.8295C68.269 20.8212 70.4822 21.2535 71.5614 22.7952C72.6409 24.3369 72.1779 26.4044 70.528 27.4126L70.2219 31.0615Z" stroke="white" stroke-width="0.26022" stroke-miterlimit="10" stroke-linejoin="round"/>
<path d="M192.474 34.8925C191.383 37.2158 189.792 39.0384 187.701 40.3591C185.928 41.4753 184.058 42.0845 182.092 42.1867C180.607 42.2644 177.096 42.3127 175.466 42.3315C174.994 42.3369 174.608 41.955 174.608 41.4819V11.3557C174.608 10.8831 174.993 10.5015 175.466 10.5069C177.011 10.5243 180.233 10.5671 181.649 10.6346C183.546 10.726 185.359 11.2498 187.087 12.2062C189.474 13.5506 191.241 15.4125 192.389 17.7924C193.536 20.173 194.111 23.0371 194.111 26.3852C194.111 29.7332 193.565 32.5692 192.474 34.8925ZM204.305 13.6586C202.373 10.0257 199.736 7.13843 196.395 4.99744C193.668 3.24351 190.746 2.13928 187.633 1.68326C184.518 1.22784 181.177 0.999979 177.609 0.999979H172.337H162.637H162.575C161.94 0.999979 161.425 1.51476 161.425 2.15008V27.2567C161.425 28.0297 160.399 28.2968 160.023 27.6216L145.443 1.38494C145.311 1.14719 145.061 0.999979 144.789 0.999979H140.062H130.328H129.179C128.552 0.999979 128.044 1.50787 128.044 2.13478V32.0928C128.044 35.6855 127.356 38.296 125.981 39.9243C124.605 41.5532 122.452 42.3678 119.52 42.3678C116.519 42.3678 114.354 41.5199 113.025 39.8242C111.695 38.1287 111.03 35.5515 111.03 32.0928V2.13329C111.03 1.50727 110.523 0.999979 109.897 0.999979H99.4127C98.7861 0.999979 98.2779 1.50787 98.2779 2.13478V32.8291C98.2779 39.0542 100.113 43.7851 103.785 47.0198C107.455 50.2554 112.701 51.8729 119.52 51.8729C126.543 51.8729 131.845 50.2275 135.425 46.9361C139.005 43.6453 140.795 38.9319 140.795 32.7956V18.0074C140.795 17.8971 140.837 17.7876 140.919 17.7142C141.253 17.4165 141.822 17.4632 142.069 17.9109L160.598 51.4862C160.729 51.7248 160.98 51.8729 161.252 51.8729H162.637H172.337H177.745C181.245 51.8729 184.547 51.6283 187.649 51.1384C190.753 50.6488 193.621 49.5496 196.259 47.8413C199.418 45.8373 202.032 42.9615 204.1 39.2147C206.169 35.4678 207.203 31.2254 207.203 26.4877C207.203 21.5677 206.237 17.2917 204.305 13.6586" fill="white"/>
</svg>
