<svg width="168" height="48" viewBox="0 0 168 48" fill="none" xmlns="http://www.w3.org/2000/svg">
<path d="M13.48 38.4C20.6 38.36 27.72 35.92 27.72 28.48C27.72 18.44 11.76 20.56 11.76 16.04C11.76 14.04 13.8 13.48 15.4 13.48C18.92 13.48 20.76 14.96 21.6 17.32C22 18.44 22.8 19.04 24.16 19.04C25.96 19.04 26.44 17.52 26.24 16.24L25.8 13.68C25.6 12.48 21.84 9.44 15.4 9.44C8.12 9.44 1.48 12.08 1.48 18.76C1.48 28.96 17.6 26.88 17.6 31.48C17.6 33.32 16 34.6 13.4 34.64C9.8 34.6 8.52 33 7.24 31.36C6.52 30.44 5.52 28.96 3.84 28.96C2.56 28.96 1.2 29.8 1.2 31.88C1.2 35.84 7.32 38.36 13.32 38.4H13.48ZM39.3063 38C40.3063 38 41.0263 37.48 41.0263 36.56C41.0263 34.76 39.5063 34.88 39.5063 33.24V26.92C39.5863 24.92 39.9063 22.76 41.5463 22.76C42.3863 22.76 43.1863 23.76 43.1863 25.72V33.24C43.1863 34.88 41.7063 34.76 41.7063 36.56C41.7063 37.48 42.4263 38 43.4263 38H52.0663C53.0663 38 53.7863 37.48 53.7863 36.56C53.7863 34.76 52.4263 34.88 52.4263 33.24V25.28C52.6263 23.92 53.1063 22.76 54.3063 22.76C55.1463 22.76 55.9463 23.76 55.9463 25.72V33.24C55.9463 34.88 54.4663 34.76 54.4663 36.56C54.4663 37.48 55.1863 38 56.1863 38H64.8263C65.8263 38 66.5463 37.48 66.5463 36.56C66.5463 34.76 65.1863 34.88 65.1863 33.24V25.52C65.1063 21.08 62.7463 18.96 57.7063 18.96C54.7463 18.96 52.5863 20.28 51.5063 21.72C50.3863 19.88 48.2263 18.96 44.9463 18.96C42.4263 18.96 40.5063 19.92 39.3063 21.12C38.9063 19.88 37.9463 18.56 35.9063 19.12L29.8663 20.76C28.8663 21.04 28.1463 21.28 28.1463 22.2C28.1463 24 30.2663 23.88 30.2663 25.52V33.24C30.2663 34.88 28.1063 34.76 28.1063 36.56C28.1063 37.48 28.8263 38 29.8263 38H39.3063ZM72.005 17.44C74.885 17.44 77.245 15.64 77.245 13.4C77.245 11.2 74.885 9.4 72.005 9.4C69.085 9.4 66.725 11.2 66.725 13.4C66.725 15.64 69.085 17.44 72.005 17.44ZM77.085 38C78.085 38 78.805 37.48 78.805 36.56C78.805 34.76 76.925 34.88 76.925 33.24V21.48C76.925 20.24 75.885 18.6 74.245 19.04L67.285 20.92C66.285 21.2 65.565 21.44 65.565 22.36C65.565 24.16 67.685 24.04 67.685 25.68V33.24C67.685 34.88 65.525 34.76 65.525 36.56C65.525 37.48 66.245 38 67.245 38H77.085ZM90.5584 38C91.5584 38 92.2784 37.48 92.2784 36.56C92.2784 34.76 90.3984 34.88 90.3984 33.24V11.68C90.3984 10.44 89.3584 8.8 87.7184 9.24L80.7584 11.12C79.7584 11.4 79.0384 11.64 79.0384 12.56C79.0384 14.36 81.1584 14.24 81.1584 15.88V33.24C81.1584 34.88 78.9984 34.76 78.9984 36.56C78.9984 37.48 79.7184 38 80.7184 38H90.5584ZM102.461 38.56C108.581 38.56 112.341 35.8 112.341 33.6C112.341 32.36 111.261 31.8 110.501 31.8C107.821 31.8 107.981 34.56 104.501 34.56C102.421 34.56 101.181 32.92 100.661 30.84C106.261 30.84 112.501 30.48 112.501 24.96C112.501 21.68 108.741 18.96 102.621 18.96C95.4209 18.96 91.2209 23.28 91.2609 28.92C91.3009 33.88 94.5409 38.56 102.461 38.56ZM100.341 27.96C100.421 25.24 101.461 22.76 103.301 22.76C105.661 22.76 105.741 27.84 100.341 27.96ZM118.482 45.32C124.202 45.32 126.322 42.32 128.882 36.36C128.922 36.24 128.962 36.12 129.042 35.96C130.882 31.8 132.402 27.6 133.642 23.44C134.202 21.84 135.522 22.4 135.522 20.88C135.522 20.16 134.922 19.52 133.922 19.52H128.922C127.842 19.52 127.322 20 127.322 21C127.322 22.68 129.282 22.16 129.282 23.88C129.282 25.24 127.602 31.12 126.642 32.76C125.202 30.16 124.322 27.72 123.682 24.24C123.242 22.44 125.202 22.84 125.202 20.96C125.202 19.84 124.402 19.52 123.322 19.52H113.722C112.282 19.52 111.922 20.4 111.922 20.96C111.922 22.44 113.642 22.72 113.962 23.84C114.562 26.16 117.242 33.04 118.482 35.84C118.962 36.92 119.282 38 121.402 38H124.122C123.442 39.84 122.402 41.12 121.002 41.12C119.442 41.12 119.922 39.56 117.082 39.56C113.362 39.56 113.362 45.32 118.482 45.32ZM138.668 21.68C140.628 21.68 146.428 17.56 146.428 13.44C146.428 11.24 144.068 9.44 141.188 9.44C138.268 9.44 135.908 11.24 135.908 13.44C135.908 15.4 137.668 17 140.068 17.4C139.388 18.32 138.428 19.28 137.708 19.96C137.108 20.52 137.148 21.68 138.668 21.68ZM155.037 38.32C160.197 38.32 166.957 37.72 166.957 32.28C166.957 24.88 156.997 26.68 156.997 23.68C156.997 22.56 158.117 22.28 159.197 22.28C161.557 22.28 162.477 23.16 162.997 24.52C163.277 25.28 163.597 25.88 164.717 25.88C166.357 25.88 166.477 24.36 166.317 23.52L165.957 21.8C165.637 20.28 163.037 19 158.717 19C153.037 19 147.437 19.8 147.437 25C147.437 31.36 157.437 30.36 157.437 33.76C157.437 34.48 156.717 35.16 154.997 35.16C153.437 35.16 152.157 34.36 151.277 33.28C150.797 32.68 150.117 31.76 148.957 31.76C148.117 31.76 146.837 32.12 146.837 34.04C146.837 36.64 150.997 38.28 154.917 38.32H155.037Z" fill="black"/>
</svg>
