<svg width="84" height="30" viewBox="0 0 84 30" fill="none" xmlns="http://www.w3.org/2000/svg">
<g clip-path="url(#clip0_165_153)">
<path d="M7.17593 9.48758H0.388428V3.26257H21.3884V9.45007H14.6009V27.4501H7.17593V9.48758Z" fill="white"/>
<path d="M22.5509 3.26257H42.9509V9.45007H30.0134V12.4501H42.9509V18.2251H30.0134V21.2251H42.9509V27.4126H22.5509V3.26257Z" fill="white"/>
<path d="M51.6509 21.2626H54.5759C59.2259 21.2626 59.9009 17.5126 59.9009 15.2251C59.9009 13.6876 59.4134 9.48758 54.0509 9.48758H51.6884V21.2626H51.6509ZM44.1884 3.26257H56.4134C64.4759 3.26257 67.3259 9.22508 67.3259 15.3376C67.3259 22.7626 63.3884 27.4501 54.9509 27.4501H44.1884V3.26257Z" fill="white"/>
<path d="M78.0509 18.15L75.7634 14.3625L73.5509 18.15H68.0759L73.2509 10.5L68.2634 3.22504H73.7384L75.7634 6.82504L77.8259 3.22504H83.3009L78.3134 10.5L83.4884 18.1125H78.0509V18.15Z" fill="white"/>
</g>
<defs>
<clipPath id="clip0_165_153">
<rect width="83.25" height="30" fill="white" transform="translate(0.388428)"/>
</clipPath>
</defs>
</svg>
