<svg width="46" height="30" viewBox="0 0 46 30" fill="none" xmlns="http://www.w3.org/2000/svg">
<g clip-path="url(#clip0_262_66)">
<path d="M10.43 29.667C16.328 29.667 20.985 24.885 20.985 18.987C20.985 13.089 16.141 8.30699 10.243 8.30699C10.184 8.30699 10.095 8.31499 10.036 8.31599C12.368 6.45899 15.297 5.33999 18.503 5.33999C19.978 5.33999 21.165 4.14399 21.165 2.66999C21.165 1.19599 20.216 -7.71236e-06 18.741 -7.84131e-06C8.27204 0.000991244 4.19032e-05 8.51799 4.0988e-05 18.987C4.09878e-05 18.989 4.09876e-05 18.991 4.09874e-05 18.994C4.0472e-05 24.889 4.53404 29.667 10.43 29.667Z" fill="white"/>
<path d="M35.4451 29.667C41.3431 29.667 46.0081 24.885 46.0081 18.987C46.0081 13.089 41.1681 8.30699 35.2691 8.30699C35.2101 8.30699 35.1231 8.31499 35.0641 8.31599C37.3961 6.45899 40.3261 5.33999 43.5321 5.33999C45.0071 5.33999 46.1951 4.14399 46.1951 2.66999C46.1951 1.19599 45.2311 -7.71367e-06 43.7561 -7.84262e-06C33.2871 0.000991242 25.0001 8.51799 25.0001 18.987C25.0001 18.989 25.0001 18.991 25.0001 18.994C25.0001 24.889 29.5491 29.667 35.4451 29.667Z" fill="white"/>
</g>
<defs>
<clipPath id="clip0_262_66">
<rect width="46" height="30" fill="white" transform="translate(46 30) rotate(-180)"/>
</clipPath>
</defs>
</svg>
