<svg width="45" height="45" viewBox="0 0 45 45" fill="none" xmlns="http://www.w3.org/2000/svg">
<g clip-path="url(#clip0_487_1702)">
<path d="M44.5 8.54719C42.8638 9.28125 41.1203 9.76781 39.3025 10.0041C41.1725 8.86219 42.5998 7.06781 43.2708 4.905C41.5273 5.96812 39.6022 6.71906 37.5508 7.13813C35.8952 5.33531 33.5357 4.21875 30.9618 4.21875C25.9677 4.21875 21.9473 8.36438 21.9473 13.4466C21.9473 14.1778 22.0077 14.8809 22.1562 15.5503C14.657 15.1762 8.02125 11.5003 3.5635 5.90063C2.78525 7.28156 2.32875 8.86219 2.32875 10.5638C2.32875 13.7587 3.9375 16.5909 6.3355 18.2306C4.88625 18.2025 3.4645 17.7722 2.26 17.0944C2.26 17.1225 2.26 17.1591 2.26 17.1956C2.26 21.6787 5.38675 25.4025 9.487 26.2603C8.75275 26.4656 7.9525 26.5641 7.122 26.5641C6.5445 26.5641 5.9615 26.5303 5.41425 26.4066C6.583 30.06 9.8995 32.7459 13.843 32.8331C10.774 35.2884 6.87725 36.7678 2.65875 36.7678C1.919 36.7678 1.2095 36.7341 0.5 36.6413C4.49575 39.2766 9.23125 40.7812 14.338 40.7812C30.937 40.7812 40.012 26.7188 40.012 14.5294C40.012 14.1216 39.9982 13.7278 39.979 13.3369C41.7692 12.0375 43.2735 10.4147 44.5 8.54719Z" fill="white"/>
</g>
<defs>
<clipPath id="clip0_487_1702">
<rect width="44" height="45" fill="white" transform="translate(0.5)"/>
</clipPath>
</defs>
</svg>
