<svg width="102" height="30" viewBox="0 0 102 30" fill="none" xmlns="http://www.w3.org/2000/svg">
<path d="M27.6388 6.93008C23.8553 6.93008 20.9235 9.38816 19.7316 13.4306C17.9102 10.6986 16.533 7.41877 15.7261 4.65708H11.654V15.2519C11.654 17.3397 9.9511 19.0425 7.86319 19.0425C5.77527 19.0425 4.07254 17.3397 4.07254 15.2519V4.65708H4.61879e-05V15.2519C-0.0147283 19.5906 3.51692 23.1517 7.85548 23.1517C12.1943 23.1517 15.7259 19.5906 15.7259 15.2519V13.4751C16.518 15.126 17.4879 16.7918 18.6651 18.2727L16.1699 30.0001H20.3384L22.1449 21.4932C23.7293 22.5076 25.5507 23.1444 27.6386 23.1444C32.103 23.1444 35.7383 19.4869 35.7383 15.0223C35.7383 10.5652 32.103 6.93008 27.6386 6.93008H27.6388ZM27.6388 19.0575C25.9951 19.0575 24.455 18.3616 23.0556 17.2287L23.3964 15.6295L23.4112 15.5702C23.7146 13.8676 24.6772 11.0095 27.6388 11.0095C29.8598 11.0095 31.6664 12.8161 31.6664 15.0371C31.6589 17.2509 29.8525 19.0575 27.6388 19.0575Z" fill="white"/>
<path d="M95.0207 14.4447C97.4859 13.0527 99.1593 10.4095 99.1593 7.38139H95.6868C95.6868 9.93565 93.6139 12.0087 91.0596 12.0087H90.5931V-0.000132019H87.1208V22.6922H90.5931V15.4811H91.0079C91.3484 15.4811 91.7927 15.7033 91.9926 15.9771L96.9233 22.6924H101.084L95.0207 14.4447ZM83.367 10.8168C81.0497 10.8168 79.1766 12.6973 79.1766 15.0073V22.6924H75.704V7.38888H79.1766V9.74328C79.1766 9.74328 80.6573 7.38139 83.7002 7.38139H84.7663V10.8168H83.367ZM65.398 19.8124C62.7623 19.8124 60.63 17.68 60.63 15.0444C60.63 12.4085 62.7697 10.2764 65.398 10.2764C68.0338 10.2764 70.166 12.4085 70.166 15.0444C70.166 17.6727 68.0338 19.8124 65.398 19.8124ZM65.398 6.92982C60.9188 6.92982 57.2909 10.565 57.2909 15.0369C57.2909 19.5163 60.9261 23.1442 65.398 23.1442C69.8774 23.1442 73.5125 19.5163 73.5125 15.0369C73.5125 10.5577 69.8774 6.92982 65.398 6.92982ZM48.1694 7.38888L50.7977 17.9837L53.6927 7.38888H57.1428L52.6932 22.6999H49.2429L46.5111 12.0384L43.7863 22.6924H40.3363L35.8863 7.3816H39.3366L42.2314 17.9763L44.8597 7.3816H48.1691V7.38909V7.38888H48.1694Z" fill="white"/>
</svg>
