<svg width="685" height="71" viewBox="0 0 685 71" fill="none" xmlns="http://www.w3.org/2000/svg">
<path d="M26.2405 47.8323L39.9691 1.72329H53.3375L33.0448 60H24.2392L26.2405 47.8323ZM13.5925 1.72329L27.2811 47.8323L29.3624 60H20.4768L0.304133 1.72329H13.5925ZM71.549 1.72329V60H59.5815L59.5815 1.72329H71.549ZM113.135 44.7504C113.135 43.7097 112.975 42.7758 112.655 41.9486C112.361 41.0948 111.801 40.3209 110.974 39.6272C110.147 38.9067 108.986 38.1996 107.492 37.5058C105.997 36.8121 104.063 36.0916 101.688 35.3445C99.0463 34.4906 96.5381 33.53 94.1633 32.4627C91.8151 31.3953 89.7338 30.1545 87.9193 28.7403C86.1315 27.2994 84.7173 25.6317 83.6767 23.7372C82.6627 21.8426 82.1557 19.6412 82.1557 17.133C82.1557 14.7048 82.6894 12.5034 83.7567 10.5288C84.824 8.52758 86.3183 6.81984 88.2395 5.40561C90.1607 3.9647 92.4288 2.85734 95.0438 2.08352C97.6855 1.3097 100.581 0.922787 103.729 0.922787C108.025 0.922787 111.774 1.69661 114.976 3.24425C118.178 4.79189 120.66 6.91323 122.421 9.60826C124.209 12.3033 125.103 15.3852 125.103 18.8541H113.175C113.175 17.1463 112.815 15.6521 112.095 14.3713C111.401 13.0638 110.333 12.0365 108.893 11.2893C107.478 10.5422 105.691 10.1686 103.529 10.1686C101.448 10.1686 99.7134 10.4888 98.3259 11.1292C96.9383 11.7429 95.8977 12.5835 95.2039 13.6508C94.5101 14.6915 94.1633 15.8655 94.1633 17.173C94.1633 18.1603 94.4034 19.0542 94.8837 19.8547C95.3907 20.6552 96.1378 21.4024 97.1251 22.0961C98.1124 22.7899 99.3265 23.4436 100.767 24.0574C102.208 24.6711 103.876 25.2715 105.771 25.8585C108.946 26.8191 111.734 27.8998 114.136 29.1005C116.564 30.3013 118.592 31.6488 120.22 33.1431C121.847 34.6374 123.075 36.3318 123.902 38.2263C124.729 40.1208 125.143 42.2688 125.143 44.6703C125.143 47.2053 124.649 49.4734 123.662 51.4746C122.675 53.4759 121.247 55.1703 119.379 56.5578C117.511 57.9454 115.283 58.9994 112.695 59.7198C110.107 60.4403 107.211 60.8005 104.009 60.8005C101.128 60.8005 98.2859 60.4269 95.4841 59.6798C92.6823 58.906 90.1341 57.7452 87.8393 56.1976C85.5712 54.65 83.7567 52.6754 82.3958 50.2739C81.035 47.8724 80.3546 45.0306 80.3546 41.7485H92.4021C92.4021 43.563 92.6823 45.0973 93.2427 46.3514C93.803 47.6055 94.5902 48.6195 95.6042 49.3933C96.6448 50.1671 97.8723 50.7275 99.2865 51.0744C100.727 51.4213 102.302 51.5947 104.009 51.5947C106.091 51.5947 107.799 51.3012 109.133 50.7142C110.494 50.1271 111.494 49.3133 112.135 48.2726C112.802 47.232 113.135 46.0579 113.135 44.7504ZM159.364 1.72329V60H147.397V1.72329H159.364ZM177.296 1.72329V11.1292L129.746 11.1292V1.72329L177.296 1.72329ZM203.512 11.6896L187.662 60H174.894L196.548 1.72329H204.673L203.512 11.6896ZM216.68 60L200.79 11.6896L199.51 1.72329H207.715L229.489 60H216.68ZM215.96 38.3063V47.7123H185.181V38.3063L215.96 38.3063ZM279 11.6896L263.15 60H250.382L272.035 1.72329H280.16L279 11.6896ZM292.168 60L276.278 11.6896L274.997 1.72329H283.202L304.976 60H292.168ZM291.448 38.3063V47.7123H260.668V38.3063H291.448ZM347.843 50.6341V60H318.505V50.6341H347.843ZM322.387 1.72329V60H310.379V1.72329H322.387ZM397.955 34.4239H382.985L382.905 26.1787H395.473C397.688 26.1787 399.502 25.8985 400.916 25.3382C402.331 24.7511 403.385 23.9106 404.078 22.8166C404.799 21.6959 405.159 20.335 405.159 18.734C405.159 16.9195 404.812 15.4519 404.119 14.3312C403.451 13.2105 402.397 12.3967 400.957 11.8897C399.542 11.3827 397.714 11.1292 395.473 11.1292H387.148V60L375.14 60V1.72329H395.473C398.862 1.72329 401.89 2.04349 404.559 2.6839C407.254 3.3243 409.535 4.29825 411.403 5.60574C413.271 6.91323 414.699 8.5676 415.686 10.5689C416.673 12.5434 417.167 14.8916 417.167 17.6133C417.167 20.0148 416.62 22.2295 415.526 24.2575C414.458 26.2854 412.764 27.9398 410.442 29.2206C408.148 30.5014 405.146 31.2085 401.437 31.3419L397.955 34.4239ZM397.434 60L379.703 60L384.386 50.6341H397.434C399.542 50.6341 401.263 50.3006 402.598 49.6335C403.932 48.9397 404.919 48.0058 405.559 46.8317C406.2 45.6576 406.52 44.3101 406.52 42.7892C406.52 41.0814 406.227 39.6005 405.639 38.3464C405.079 37.0922 404.172 36.1316 402.918 35.4645C401.664 34.7708 400.009 34.4239 397.955 34.4239H386.387L386.467 26.1787H400.876L403.638 29.4207C407.187 29.3674 410.042 29.9944 412.204 31.3019C414.392 32.5827 415.979 34.2504 416.967 36.3051C417.981 38.3597 418.488 40.5611 418.488 42.9092C418.488 46.6449 417.674 49.7936 416.046 52.3552C414.418 54.8901 412.03 56.798 408.882 58.0788C405.76 59.3596 401.944 60 397.434 60ZM475.363 29.5008V32.2625C475.363 36.692 474.763 40.6678 473.562 44.19C472.361 47.7123 470.667 50.7142 468.479 53.1957C466.291 55.6506 463.676 57.5318 460.634 58.8393C457.619 60.1468 454.27 60.8005 450.588 60.8005C446.932 60.8005 443.583 60.1468 440.541 58.8393C437.526 57.5318 434.911 55.6506 432.697 53.1957C430.482 50.7142 428.761 47.7123 427.533 44.19C426.332 40.6678 425.732 36.692 425.732 32.2625V29.5008C425.732 25.0446 426.332 21.0688 427.533 17.5733C428.734 14.0511 430.428 11.0492 432.616 8.5676C434.831 6.08604 437.446 4.19151 440.461 2.88402C443.503 1.57653 446.852 0.922787 450.508 0.922787C454.19 0.922787 457.539 1.57653 460.554 2.88402C463.596 4.19151 466.211 6.08604 468.399 8.5676C470.614 11.0492 472.321 14.0511 473.522 17.5733C474.75 21.0688 475.363 25.0446 475.363 29.5008ZM463.236 32.2625V29.4207C463.236 26.3255 462.956 23.6037 462.395 21.2556C461.835 18.9074 461.008 16.9329 459.914 15.3319C458.82 13.7309 457.485 12.5301 455.911 11.7296C454.337 10.9024 452.536 10.4888 450.508 10.4888C448.48 10.4888 446.679 10.9024 445.104 11.7296C443.557 12.5301 442.236 13.7309 441.142 15.3319C440.074 16.9329 439.261 18.9074 438.7 21.2556C438.14 23.6037 437.86 26.3255 437.86 29.4207V32.2625C437.86 35.3311 438.14 38.0528 438.7 40.4277C439.261 42.7758 440.088 44.7637 441.182 46.3914C442.276 47.9924 443.61 49.2065 445.184 50.0337C446.759 50.8609 448.56 51.2745 450.588 51.2745C452.616 51.2745 454.417 50.8609 455.991 50.0337C457.566 49.2065 458.886 47.9924 459.954 46.3914C461.021 44.7637 461.835 42.7758 462.395 40.4277C462.956 38.0528 463.236 35.3311 463.236 32.2625ZM514.348 44.7504C514.348 43.7097 514.188 42.7758 513.868 41.9486C513.574 41.0948 513.014 40.3209 512.187 39.6272C511.359 38.9067 510.199 38.1996 508.704 37.5058C507.21 36.8121 505.276 36.0916 502.901 35.3445C500.259 34.4906 497.751 33.53 495.376 32.4627C493.028 31.3953 490.947 30.1545 489.132 28.7403C487.344 27.2994 485.93 25.6317 484.889 23.7372C483.875 21.8426 483.368 19.6412 483.368 17.133C483.368 14.7048 483.902 12.5034 484.969 10.5288C486.037 8.52758 487.531 6.81984 489.452 5.40561C491.373 3.9647 493.642 2.85734 496.257 2.08352C498.898 1.3097 501.793 0.922787 504.942 0.922787C509.238 0.922787 512.987 1.69661 516.189 3.24425C519.391 4.79189 521.873 6.91323 523.634 9.60826C525.422 12.3033 526.315 15.3852 526.315 18.8541H514.388C514.388 17.1463 514.028 15.6521 513.307 14.3713C512.614 13.0638 511.546 12.0365 510.105 11.2893C508.691 10.5422 506.903 10.1686 504.742 10.1686C502.661 10.1686 500.926 10.4888 499.539 11.1292C498.151 11.7429 497.11 12.5835 496.417 13.6508C495.723 14.6915 495.376 15.8655 495.376 17.173C495.376 18.1603 495.616 19.0542 496.096 19.8547C496.603 20.6552 497.351 21.4024 498.338 22.0961C499.325 22.7899 500.539 23.4436 501.98 24.0574C503.421 24.6711 505.089 25.2715 506.983 25.8585C510.159 26.8191 512.947 27.8998 515.349 29.1005C517.777 30.3013 519.805 31.6488 521.432 33.1431C523.06 34.6374 524.288 36.3318 525.115 38.2263C525.942 40.1208 526.355 42.2688 526.355 44.6703C526.355 47.2053 525.862 49.4734 524.875 51.4746C523.887 53.4759 522.46 55.1703 520.592 56.5578C518.724 57.9454 516.496 58.9994 513.908 59.7198C511.319 60.4403 508.424 60.8005 505.222 60.8005C502.34 60.8005 499.499 60.4269 496.697 59.6798C493.895 58.906 491.347 57.7452 489.052 56.1976C486.784 54.65 484.969 52.6754 483.609 50.2739C482.248 47.8724 481.567 45.0306 481.567 41.7485H493.615C493.615 43.563 493.895 45.0973 494.455 46.3514C495.016 47.6055 495.803 48.6195 496.817 49.3933C497.858 50.1671 499.085 50.7275 500.499 51.0744C501.94 51.4213 503.514 51.5947 505.222 51.5947C507.303 51.5947 509.011 51.3012 510.345 50.7142C511.706 50.1271 512.707 49.3133 513.347 48.2726C514.014 47.232 514.348 46.0579 514.348 44.7504ZM566.181 51.3546L581.951 63.8424L574.386 70.4066L558.856 57.9187L566.181 51.3546ZM582.351 29.5008V32.2625C582.351 36.692 581.75 40.6678 580.55 44.19C579.376 47.7123 577.681 50.7142 575.466 53.1957C573.252 55.6506 570.637 57.5318 567.622 58.8393C564.606 60.1468 561.258 60.8005 557.575 60.8005C553.92 60.8005 550.571 60.1468 547.529 58.8393C544.487 57.5318 541.859 55.6506 539.644 53.1957C537.429 50.7142 535.708 47.7123 534.481 44.19C533.28 40.6678 532.68 36.692 532.68 32.2625V29.5008C532.68 25.0446 533.28 21.0688 534.481 17.5733C535.708 14.0511 537.416 11.0492 539.604 8.5676C541.792 6.08604 544.407 4.19151 547.449 2.88402C550.491 1.57653 553.839 0.922787 557.495 0.922787C561.177 0.922787 564.526 1.57653 567.541 2.88402C570.583 4.19151 573.212 6.08604 575.426 8.5676C577.641 11.0492 579.349 14.0511 580.55 17.5733C581.75 21.0688 582.351 25.0446 582.351 29.5008ZM570.223 32.2625V29.4207C570.223 26.3255 569.93 23.6037 569.343 21.2556C568.782 18.9074 567.955 16.9329 566.861 15.3319C565.794 13.7309 564.473 12.5301 562.899 11.7296C561.324 10.9024 559.523 10.4888 557.495 10.4888C555.467 10.4888 553.666 10.9024 552.092 11.7296C550.517 12.5301 549.197 13.7309 548.129 15.3319C547.062 16.9329 546.248 18.9074 545.688 21.2556C545.127 23.6037 544.847 26.3255 544.847 29.4207V32.2625C544.847 35.3311 545.127 38.0528 545.688 40.4277C546.248 42.7758 547.062 44.7637 548.129 46.3914C549.223 47.9924 550.557 49.2065 552.132 50.0337C553.733 50.8609 555.547 51.2745 557.575 51.2745C559.603 51.2745 561.391 50.8609 562.939 50.0337C564.513 49.2065 565.834 47.9924 566.901 46.3914C567.995 44.7637 568.822 42.7758 569.383 40.4277C569.943 38.0528 570.223 35.3311 570.223 32.2625ZM623.217 1.72329H635.184V40.2275C635.184 44.7104 634.223 48.4861 632.302 51.5547C630.408 54.6233 627.779 56.9314 624.417 58.479C621.082 60.0267 617.239 60.8005 612.89 60.8005C608.541 60.8005 604.672 60.0267 601.283 58.479C597.921 56.9314 595.279 54.6233 593.358 51.5547C591.463 48.4861 590.516 44.7104 590.516 40.2275V1.72329H602.524V40.2275C602.524 42.8425 602.937 44.9772 603.764 46.6316C604.591 48.286 605.779 49.5001 607.327 50.2739C608.901 51.0477 610.755 51.4346 612.89 51.4346C615.078 51.4346 616.933 51.0477 618.454 50.2739C620.001 49.5001 621.175 48.286 621.976 46.6316C622.803 44.9772 623.217 42.8425 623.217 40.2275V1.72329ZM684.175 50.6341V60H653.155V50.6341H684.175ZM657.078 1.72329V60H645.07V1.72329H657.078ZM680.132 25.4582V34.584H653.155V25.4582H680.132ZM684.135 1.72329V11.1292L653.155 11.1292V1.72329L684.135 1.72329Z" fill="black"/>
</svg>
