<svg width="589" height="83" viewBox="0 0 589 83" fill="none" xmlns="http://www.w3.org/2000/svg">
<path d="M42.5646 82.3387L11.981 16.9031C10.0122 12.7467 8.1421 9.85482 6.37335 8.2328C4.60461 6.61078 2.55307 5.79711 0.218759 5.79711H0V2.67846H44.1519L44.0986 5.79978C42.0924 5.87181 40.5691 6.31733 39.5286 7.13901C38.4882 7.95802 37.9707 9.11851 37.9707 10.6125C37.9707 11.3061 38.0694 12.0717 38.2694 12.9094C38.4722 13.7498 38.7897 14.6622 39.2299 15.6466L50.9921 45.027L66.6387 0L83.8193 45.027L94.4318 16.6844C94.7252 15.884 94.952 14.9983 95.1147 14.0326C95.2801 13.0668 95.3602 12.0717 95.3602 11.05C95.3602 9.44664 94.8133 8.21413 93.7195 7.35777C92.6257 6.5014 90.9663 5.98119 88.7414 5.79711V2.67846H111.338V5.79978C108.456 6.09056 106.167 6.99228 104.471 8.50758C102.774 10.0202 101.141 12.784 99.5726 16.7937L74.1886 82.3387L57.6643 39.3339L42.5646 82.3387ZM157.013 70.9045C153.913 74.6234 150.357 77.4593 146.342 79.4121C142.338 81.3614 137.939 82.3627 133.486 82.3387C129.329 82.3387 125.434 81.4983 121.806 79.8203C118.178 78.1437 114.973 75.6761 112.423 72.5986C110.294 70.0843 108.644 67.2007 107.555 64.091C106.461 60.975 105.911 57.6083 105.911 53.9987C105.911 50.2772 106.442 46.8117 107.499 43.6024C108.59 40.3297 110.217 37.2609 112.314 34.5212C114.648 31.3465 117.794 28.7775 121.75 26.806C125.709 24.8371 129.729 23.8527 133.814 23.8527C140.926 23.8527 146.608 26.0216 150.858 30.3621C155.105 34.7026 157.232 40.5211 157.232 47.8148H125.554C125.773 54.3082 127.889 59.7051 131.901 64.0083C135.913 68.3141 140.745 70.4643 146.398 70.4643C148.551 70.4643 150.501 70.0748 152.253 69.2905C154.069 68.4586 155.69 67.2564 157.013 65.761V70.9045ZM125.445 43.9332H130.476C135.438 43.9332 138.482 43.5037 139.613 42.6446C140.745 41.7909 141.31 40.1556 141.31 37.7492C141.31 34.5025 140.726 32.0668 139.56 30.4448C138.394 28.8228 136.626 28.0118 134.251 28.0118C131.226 28.0118 129.001 29.279 127.579 31.8134C126.157 34.3478 125.445 38.3868 125.445 43.9305V43.9332ZM178.451 7.70991C174.257 8.44089 170.656 10.1723 167.647 12.9068C164.637 15.6439 162.111 19.4722 160.07 24.3969L157.605 23.5219L161.986 0.656276C163.007 1.31255 164.339 1.8141 165.979 2.16091C167.62 2.50772 169.573 2.67846 171.832 2.67846H209.638C211.863 2.67846 213.789 2.50772 215.411 2.16091C217.033 1.8141 218.356 1.31255 219.378 0.656276L223.862 23.5246L221.403 24.3996C219.287 19.4028 216.734 15.5452 213.741 12.8294C210.753 10.1109 207.178 8.40621 203.016 7.71258V67.239C203.016 70.8138 203.619 73.2575 204.825 74.5701C206.025 75.8826 208.325 76.6483 211.718 76.867V79.9857H169.589V76.867C173.052 76.6483 175.397 75.8719 176.618 74.5407C177.84 73.2095 178.451 70.7765 178.451 67.239V7.70991ZM249.513 33.0406C251.335 29.978 253.315 27.6783 255.449 26.147C257.583 24.6157 259.869 23.85 262.313 23.85C265.013 23.85 267.184 24.6504 268.823 26.2564C270.466 27.8624 271.288 29.978 271.288 32.6057C271.288 34.9 270.602 36.7435 269.233 38.1281C267.867 39.5153 266.053 40.2089 263.791 40.2089C261.75 40.2089 259.789 39.3873 257.911 37.7466C256.03 36.1059 254.838 35.2842 254.326 35.2842C253.125 35.2842 252.266 36.0845 251.754 37.6905C251.242 39.2965 250.988 42.1591 250.988 46.2808V68.877C250.988 71.7209 251.565 73.7644 252.712 75.0049C253.862 76.2454 255.748 76.8644 258.375 76.8644H258.704V79.9857H222.865V76.867H223.193C225.602 76.867 227.325 76.2561 228.363 75.0343C229.401 73.8124 229.923 71.7609 229.923 68.8797V48.2523C229.923 46.5022 229.705 45.2084 229.267 44.368C228.83 43.5277 228.008 42.7087 226.805 41.9083L219.965 37.093C223.539 35.8524 227.661 34.1477 232.33 31.9761C236.998 29.8072 242.726 26.9527 249.51 23.4125L249.513 33.0406ZM301.207 47.7028C297.925 49.018 295.426 51.0855 293.71 53.9134C291.995 56.7412 291.139 60.196 291.139 64.2804C291.139 66.6147 291.603 68.4768 292.534 69.8614C293.465 71.2487 294.676 71.9423 296.173 71.9423C298.104 71.9423 299.427 71.174 300.14 69.6427C300.849 68.1113 301.207 64.2804 301.207 58.1525V47.7028ZM302.247 72.924C299.473 76.0987 296.565 78.4597 293.518 80.0097C290.472 81.5597 287.254 82.336 283.861 82.336C279.376 82.336 275.737 81.0688 272.95 78.5344C270.156 76 268.761 72.7453 268.761 68.7676C268.761 64.0616 270.887 59.9693 275.137 56.4851C279.384 53.001 288.076 48.7245 301.207 43.653V39.7714C301.207 35.687 300.687 32.7578 299.646 30.989C298.606 29.2203 296.901 28.3373 294.532 28.3373C292.598 28.3373 290.992 28.9108 289.717 30.0607C288.441 31.2105 287.801 32.6404 287.801 34.3558C287.801 35.2655 287.839 36.3326 287.911 37.5571C287.983 38.7763 288.02 39.5527 288.02 39.8781C288.02 42.5432 287.281 44.6855 285.806 46.3075C284.328 47.9322 282.367 48.7432 279.923 48.7432C277.698 48.7432 275.911 48.0416 274.561 46.6356C273.211 45.2297 272.536 43.3809 272.536 41.084C272.536 36.1219 274.889 32.0135 279.595 28.7454C284.301 25.4827 290.354 23.85 297.76 23.85C301.916 23.85 305.683 24.3783 309.055 25.4374C312.43 26.4938 315.191 28.0251 317.344 30.0313C319.097 31.6747 320.335 33.5875 321.066 35.7777C321.797 37.968 322.16 41.2654 322.16 45.6806V61.2711C322.16 65.6116 322.498 68.6956 323.173 70.5177C323.846 72.3425 324.934 73.2548 326.428 73.2548C326.768 73.2523 327.104 73.1777 327.413 73.0361C327.741 72.8894 328.087 72.6706 328.453 72.3771V75.9333C326.994 77.7954 325.105 79.236 322.789 80.2551C320.474 81.2769 317.91 81.7891 315.103 81.7891C311.891 81.7891 309.202 81.0421 307.033 79.5455C304.864 78.0489 303.266 75.8426 302.245 72.924H302.247ZM357.497 68.877C357.497 71.6862 357.996 73.7004 358.999 74.9222C360.002 76.1441 361.672 76.7897 364.007 76.8644V79.9857H329.373V76.867H329.701C332.11 76.867 333.834 76.2561 334.872 75.0343C335.912 73.8124 336.432 71.7609 336.432 68.8797V48.2523C336.432 46.5022 336.214 45.2084 335.776 44.368C335.336 43.5303 334.517 42.7087 333.314 41.9083L326.473 37.093C331.236 35.352 335.918 33.399 340.506 31.2398C345.63 28.8274 350.658 26.2173 355.579 23.4152V32.7151C357.767 29.7965 360.322 27.609 363.238 26.1523C366.157 24.6904 369.441 23.9621 373.088 23.9621C379.069 23.9621 383.527 25.4827 386.464 28.5293C389.399 31.576 390.866 36.2179 390.866 42.4552V68.8797C390.866 71.7609 391.389 73.8124 392.427 75.0343C393.467 76.2561 395.19 76.867 397.597 76.867H397.925V79.9857H369.806V43.0021C369.806 39.0618 369.321 36.3273 368.355 34.796C367.389 33.262 365.757 32.4964 363.46 32.4964C361.307 32.4964 359.775 33.2914 358.863 34.876C357.951 36.4634 357.495 39.1712 357.495 43.0021L357.497 68.877ZM399.779 77.7394V59.7958H402.623C404.264 65.7397 406.782 70.3256 410.173 73.5536C413.563 76.7817 417.541 78.3957 422.1 78.3957C424.544 78.3957 426.441 77.8301 427.791 76.7016C429.141 75.5705 429.816 73.9831 429.816 71.9396C429.816 67.9273 425.875 64.3177 417.997 61.1084L417.285 60.8336C410.357 58.0271 405.76 55.3726 403.498 52.8729C401.238 50.3759 400.107 47.1559 400.107 43.2155C400.107 37.3464 402.313 32.6671 406.726 29.183C411.138 25.6988 417.122 23.9621 424.672 23.9621C427.516 23.9621 430.435 24.2075 433.425 24.7011C436.416 25.1919 439.481 25.9122 442.616 26.862V41.7989H439.881C437.4 36.7648 434.919 33.19 432.438 31.0744C429.957 28.9589 427.116 27.8997 423.906 27.8997C421.497 27.8997 419.547 28.4947 418.051 29.6792C416.554 30.8637 415.81 32.387 415.81 34.2464C415.81 37.3491 419.838 40.5211 427.9 43.7678C428.556 44.0239 429.047 44.2213 429.375 44.368C436.709 47.3613 441.45 50.0771 443.603 52.5208C445.753 54.9645 446.831 58.2112 446.831 62.2582C446.831 68.2047 444.542 73.0361 439.964 76.7577C435.386 80.4792 429.431 82.3387 422.1 82.3387C418.526 82.3387 414.879 81.9545 411.157 81.1915C407.271 80.3745 403.464 79.2204 399.779 77.7421V77.7394ZM477.569 68.877C477.569 71.7956 478.097 73.8551 479.156 75.0583C480.213 76.2614 482 76.8644 484.519 76.8644H485.284V79.9857H449.448V76.867H449.776C452.182 76.867 453.906 76.2561 454.946 75.0343C455.987 73.8124 456.504 71.7609 456.504 68.8797V30.4715H451.142V27.4089C452.857 26.059 455.01 23.2685 457.598 19.0373C458.985 16.8124 460.079 15.1344 460.882 14.0059C463.617 10.1029 466.874 7.06698 470.646 4.89539C474.418 2.72381 478.372 1.64069 482.491 1.64069C486.906 1.64069 490.508 2.70781 493.296 4.84204C496.089 6.97627 497.484 9.68141 497.484 12.9655C497.484 15.153 496.791 16.9138 495.403 18.245C494.019 19.5762 492.175 20.2405 489.881 20.2405C488.093 20.2405 486.597 19.8324 485.394 19.0107C484.188 18.189 482.931 16.5563 481.619 14.1153C480.269 11.7409 479.119 10.1936 478.172 9.46265C477.222 8.73434 476.091 8.36886 474.779 8.36886C473.247 8.36886 472.044 8.81705 471.169 9.71076C470.291 10.6045 469.854 11.797 469.854 13.2936C469.854 14.8996 470.932 16.9858 473.082 19.5576C475.235 22.1293 476.619 24.3809 477.241 26.3151H487.525V30.4715H477.569V68.877ZM538.181 70.9019C535.081 74.6208 531.525 77.4566 527.51 79.4094C523.506 81.3587 519.107 82.3601 514.654 82.336C510.498 82.336 506.603 81.4956 502.974 79.8176C499.347 78.141 496.141 75.6734 493.592 72.5959C491.462 70.0816 489.812 67.198 488.723 64.0883C487.629 60.9723 487.08 57.6056 487.08 53.9961C487.08 50.2745 487.611 46.809 488.667 43.5997C489.759 40.327 491.386 37.2582 493.482 34.5185C495.817 31.3439 498.962 28.7748 502.918 26.8033C506.877 24.8345 510.898 23.85 514.982 23.85C522.094 23.85 527.777 26.019 532.027 30.3594C536.274 34.6999 538.4 40.5184 538.4 47.8121H506.723C506.941 54.3055 509.057 59.7025 513.069 64.0056C517.082 68.3114 521.913 70.4617 527.566 70.4617C529.719 70.4617 531.669 70.0722 533.419 69.2878C535.235 68.4562 536.857 67.254 538.181 65.7584V70.9019ZM506.613 43.9305H511.645C516.607 43.9305 519.651 43.501 520.782 42.642C521.913 41.7883 522.479 40.1529 522.479 37.7466C522.479 34.4999 521.894 32.0642 520.729 30.4422C519.56 28.8201 517.794 28.0091 515.42 28.0091C512.394 28.0091 510.169 29.2763 508.745 31.8107C507.32 34.3451 506.611 38.3842 506.611 43.9278L506.613 43.9305ZM567.225 33.0406C569.048 29.978 571.027 27.6783 573.159 26.147C575.293 24.6157 577.582 23.85 580.026 23.85C582.725 23.85 584.894 24.6504 586.535 26.2564C588.178 27.8624 589 29.978 589 32.6057C589 34.9 588.314 36.7435 586.946 38.1281C585.58 39.5153 583.766 40.2089 581.504 40.2089C579.46 40.2089 577.502 39.3873 575.621 37.7466C573.743 36.1059 572.548 35.2842 572.038 35.2842C570.835 35.2842 569.979 36.0845 569.466 37.6905C568.954 39.2965 568.701 42.1591 568.701 46.2808V68.877C568.701 71.7209 569.274 73.7644 570.424 75.0049C571.571 76.2454 573.46 76.8644 576.088 76.8644H576.416V79.9857H540.58V76.867H540.908C543.314 76.867 545.037 76.2561 546.078 75.0343C547.118 73.8124 547.639 71.7609 547.639 68.8797V48.2523C547.639 46.5022 547.42 45.2084 546.982 44.368C546.545 43.5277 545.723 42.7087 544.52 41.9083L537.68 37.093C541.255 35.8524 545.376 34.1477 550.045 31.9761C554.714 29.8072 560.439 26.9527 567.225 23.4125V33.0406Z" fill="white"/>
</svg>
