<svg width="148" height="30" viewBox="0 0 148 30" fill="none" xmlns="http://www.w3.org/2000/svg">
<g clip-path="url(#clip0_165_143)">
<path d="M72.0183 -55.9518V-12.7084H35.7388L72.0183 -55.9518ZM72.0183 -71.4578C72.0183 -61.5759 63.9114 -53.5735 53.9005 -53.5735C43.8896 -53.5735 35.7388 -61.5759 35.7388 -71.4578H72.0183V-71.4578ZM77.9941 -12.7084C77.9941 -22.5904 86.1009 -30.5928 96.1118 -30.5928C106.123 -30.5928 114.23 -22.5904 114.23 -12.7084H77.9941ZM77.9941 -28.2217V-71.4578H114.273L77.9941 -28.2217ZM98.2868 24.253C100.147 24.2892 101.97 23.6024 103.333 22.3374L105.815 24.9831C104.182 26.6675 101.897 27.8964 98.3234 27.8964C92.2305 27.8964 88.3125 23.9133 88.3125 18.5133C88.1953 13.4169 92.311 9.24579 97.43 9.13013H97.7376C103.794 9.13013 107.207 13.6482 106.892 19.9663H92.6479C93.1605 22.6048 95.028 24.2964 98.2868 24.253ZM102.629 17.0169C102.241 14.5663 100.769 12.7663 97.8181 12.7663C95.0646 12.7663 93.1605 14.2988 92.6552 17.0169H102.629ZM4.57837 24.0651L15.5559 13.0337H4.84933V9.58554H20.6383V13.106L9.66071 24.1374H20.7994V27.5855H4.57837V24.0651ZM33.1391 24.253C34.9992 24.2892 36.8227 23.6024 38.1409 22.3374L40.6235 24.9831C38.9904 26.6675 36.7055 27.8964 33.1318 27.8964C27.0388 27.8964 23.1209 23.9133 23.1209 18.5133C23.0037 13.4169 27.1194 9.24579 32.2383 9.13013H32.5459C38.6022 9.13013 42.0149 13.6482 41.7 19.9663H27.5075C28.0128 22.6048 29.8802 24.2964 33.1391 24.253ZM37.4818 17.0169C37.0936 14.5663 35.6217 12.7663 32.6704 12.7663C29.9169 12.7663 28.0128 14.2988 27.5075 17.0169H37.4818ZM65.5006 18.5494C65.5006 12.8024 69.8433 9.20242 74.6546 9.20242C76.9834 9.16627 79.1951 10.1566 80.7476 11.8843V1.27229H84.6289V27.5494H80.7476V25.0627C79.2317 26.8627 76.9834 27.9325 74.618 27.8964C69.9604 27.8964 65.5006 24.253 65.5006 18.5494ZM80.938 18.506C80.8574 15.3687 78.1845 12.8747 74.9988 12.9542C71.8205 13.0337 69.294 15.6723 69.3746 18.8169C69.4551 21.9181 72.0109 24.3687 75.1526 24.3687C78.4994 24.3687 80.938 21.7663 80.938 18.506ZM109.462 23.7181L112.992 21.9181C113.922 23.6024 115.745 24.6 117.686 24.5639C119.898 24.5639 121.026 23.4506 121.026 22.1928C121.026 20.7398 118.894 20.4289 116.602 19.9735C113.497 19.3229 110.275 18.3253 110.275 14.6096C110.275 11.7759 113.029 9.13013 117.335 9.1735C120.747 9.1735 123.274 10.5108 124.709 12.6578L121.45 14.4217C120.52 13.0843 118.968 12.3181 117.335 12.3542C115.24 12.3542 114.193 13.3518 114.193 14.5012C114.193 15.8024 115.863 16.1494 118.499 16.7205C121.487 17.3711 124.9 18.3325 124.9 22.0843C124.9 24.5711 122.688 27.9036 117.488 27.8675C113.688 27.8964 111.015 26.4 109.462 23.7181ZM135.416 19.547L132.347 22.8795V27.5494H128.466V1.27229H132.347V18.4699L140.571 9.54217H145.302L138.162 17.241L145.493 27.5422H141.106L135.416 19.547ZM53.776 9.16627C49.1551 9.16627 45.281 12.1157 45.281 17.0169V27.5494H49.2356V17.5157C49.2356 14.5663 50.9419 12.8024 53.8932 12.8024C56.8445 12.8024 58.2798 14.5663 58.2798 17.5157V27.5494H62.1978V17.0169C62.2417 12.1157 58.3604 9.16627 53.776 9.16627Z" fill="white"/>
</g>
<defs>
<clipPath id="clip0_165_143">
<rect width="146.538" height="30" fill="white" transform="translate(0.931396)"/>
</clipPath>
</defs>
</svg>
